<mxfile host="app.diagrams.net" modified="2020-10-13T14:57:08.673Z" agent="5.0 (Windows NT 10.0; Win64; x64) AppleWebKit/537.36 (KHTML, like Gecko) Chrome/85.0.4183.121 Safari/537.36" etag="esd9fVrvGkf9KxCB8A_X" version="13.7.9" type="github" pages="5">
  <diagram id="HZh-ZGl9IQIxTn_eFyWw" name="Accenture">
    <mxGraphModel dx="2489" dy="1943" grid="1" gridSize="10" guides="1" tooltips="1" connect="1" arrows="1" fold="1" page="1" pageScale="1" pageWidth="827" pageHeight="1169" math="0" shadow="0">
      <root>
        <mxCell id="0" />
        <mxCell id="1" parent="0" />
        <mxCell id="XoJ6xCWna6AEDFndNEd_-3" value="" style="rounded=1;whiteSpace=wrap;html=1;verticalAlign=top;strokeWidth=1;strokeColor=#d79b00;dashed=1;fillColor=#ffe6cc;opacity=50;arcSize=5;" vertex="1" parent="1">
          <mxGeometry x="-180" y="230" width="1500" height="424.5" as="geometry" />
        </mxCell>
        <mxCell id="XoJ6xCWna6AEDFndNEd_-2" value="" style="rounded=1;whiteSpace=wrap;html=1;verticalAlign=top;strokeWidth=1;strokeColor=#d79b00;dashed=1;fillColor=#ffe6cc;opacity=50;arcSize=5;" vertex="1" parent="1">
          <mxGeometry x="-180" y="-204.5" width="1500" height="424.5" as="geometry" />
        </mxCell>
        <mxCell id="XoJ6xCWna6AEDFndNEd_-1" value="" style="rounded=1;whiteSpace=wrap;html=1;verticalAlign=top;strokeWidth=1;strokeColor=#d79b00;dashed=1;fillColor=#ffe6cc;opacity=50;" vertex="1" parent="1">
          <mxGeometry x="-180" y="-354.5" width="1500" height="139" as="geometry" />
        </mxCell>
        <mxCell id="yS9cGKFyaextmzslB4Ii-2" value="&lt;b style=&quot;font-size: 26px&quot;&gt;Core ERP&lt;br style=&quot;font-size: 26px&quot;&gt;&lt;/b&gt;" style="rounded=1;whiteSpace=wrap;html=1;verticalAlign=top;strokeWidth=3;strokeColor=#020912;fontSize=26;" parent="1" vertex="1">
          <mxGeometry x="110" y="250" width="690" height="350" as="geometry" />
        </mxCell>
        <mxCell id="ATF7dGTZQeOv2MeoGrKM-13" value="&lt;b style=&quot;font-size: 26px&quot;&gt;MES&lt;br style=&quot;font-size: 26px&quot;&gt;&lt;/b&gt;" style="rounded=1;whiteSpace=wrap;html=1;verticalAlign=top;strokeWidth=3;strokeColor=#020912;fontSize=26;" parent="1" vertex="1">
          <mxGeometry x="840" y="240" width="190" height="110" as="geometry" />
        </mxCell>
        <mxCell id="ATF7dGTZQeOv2MeoGrKM-14" value="&lt;b style=&quot;font-size: 26px&quot;&gt;Analytics &amp;amp; BI&lt;br style=&quot;font-size: 26px&quot;&gt;&lt;/b&gt;" style="rounded=1;whiteSpace=wrap;html=1;verticalAlign=top;strokeWidth=3;strokeColor=#020912;fontSize=26;" parent="1" vertex="1">
          <mxGeometry x="1100" y="-200" width="190" height="790" as="geometry" />
        </mxCell>
        <mxCell id="ATF7dGTZQeOv2MeoGrKM-15" value="&lt;b style=&quot;font-size: 26px&quot;&gt;HR/Payroll&lt;br style=&quot;font-size: 26px&quot;&gt;&lt;/b&gt;" style="rounded=1;whiteSpace=wrap;html=1;verticalAlign=top;strokeWidth=3;strokeColor=#020912;fontSize=26;" parent="1" vertex="1">
          <mxGeometry x="840" y="365" width="190" height="110" as="geometry" />
        </mxCell>
        <mxCell id="ATF7dGTZQeOv2MeoGrKM-16" value="&lt;b style=&quot;font-size: 26px&quot;&gt;Group Consolidation&lt;br style=&quot;font-size: 26px&quot;&gt;&lt;/b&gt;" style="rounded=1;whiteSpace=wrap;html=1;verticalAlign=top;strokeWidth=3;strokeColor=#020912;fontSize=26;" parent="1" vertex="1">
          <mxGeometry x="840" y="492" width="190" height="110" as="geometry" />
        </mxCell>
        <mxCell id="ATF7dGTZQeOv2MeoGrKM-17" value="&lt;b style=&quot;font-size: 26px&quot;&gt;CAD/CAM&lt;br style=&quot;font-size: 26px&quot;&gt;&lt;/b&gt;" style="rounded=1;whiteSpace=wrap;html=1;verticalAlign=top;strokeWidth=3;strokeColor=#020912;fontSize=26;" parent="1" vertex="1">
          <mxGeometry x="840" y="100" width="190" height="110" as="geometry" />
        </mxCell>
        <mxCell id="ATF7dGTZQeOv2MeoGrKM-18" value="&lt;b style=&quot;font-size: 26px&quot;&gt;Transport Management&lt;br style=&quot;font-size: 26px&quot;&gt;&lt;/b&gt;" style="rounded=1;whiteSpace=wrap;html=1;verticalAlign=top;strokeWidth=3;strokeColor=#020912;fontSize=26;" parent="1" vertex="1">
          <mxGeometry x="581" y="100" width="190" height="110" as="geometry" />
        </mxCell>
        <mxCell id="ATF7dGTZQeOv2MeoGrKM-19" value="&lt;b style=&quot;font-size: 26px&quot;&gt;Marketing&lt;br style=&quot;font-size: 26px&quot;&gt;&lt;/b&gt;" style="rounded=1;whiteSpace=wrap;html=1;verticalAlign=top;strokeWidth=3;strokeColor=#020912;fontSize=26;" parent="1" vertex="1">
          <mxGeometry x="581" y="-40" width="190" height="110" as="geometry" />
        </mxCell>
        <mxCell id="ATF7dGTZQeOv2MeoGrKM-20" value="&lt;b style=&quot;font-size: 26px&quot;&gt;OmniChannel Commerce&lt;br style=&quot;font-size: 26px&quot;&gt;&lt;/b&gt;" style="rounded=1;whiteSpace=wrap;html=1;verticalAlign=top;strokeWidth=3;strokeColor=#020912;fontSize=26;" parent="1" vertex="1">
          <mxGeometry x="840" y="-40" width="190" height="110" as="geometry" />
        </mxCell>
        <mxCell id="Q_ESog8GYrtDBoinAWXV-1" value="&lt;b style=&quot;font-size: 26px&quot;&gt;Web Portal&lt;br style=&quot;font-size: 26px&quot;&gt;&lt;/b&gt;" style="rounded=1;whiteSpace=wrap;html=1;verticalAlign=top;strokeWidth=3;strokeColor=#020912;fontSize=26;" parent="1" vertex="1">
          <mxGeometry x="120" y="-340" width="190" height="110" as="geometry" />
        </mxCell>
        <mxCell id="Q_ESog8GYrtDBoinAWXV-2" value="&lt;b style=&quot;font-size: 26px&quot;&gt;Field Service Mgt.&lt;br style=&quot;font-size: 26px&quot;&gt;&lt;/b&gt;" style="rounded=1;whiteSpace=wrap;html=1;verticalAlign=top;strokeWidth=3;strokeColor=#020912;fontSize=26;" parent="1" vertex="1">
          <mxGeometry x="120" y="-190" width="190" height="110" as="geometry" />
        </mxCell>
        <mxCell id="Q_ESog8GYrtDBoinAWXV-3" value="&lt;b style=&quot;font-size: 26px&quot;&gt;Store Point of Sale&lt;br&gt;POS&lt;br style=&quot;font-size: 26px&quot;&gt;&lt;/b&gt;" style="rounded=1;whiteSpace=wrap;html=1;verticalAlign=top;strokeWidth=3;strokeColor=#020912;fontSize=26;" parent="1" vertex="1">
          <mxGeometry x="350" y="-190" width="190" height="110" as="geometry" />
        </mxCell>
        <mxCell id="Q_ESog8GYrtDBoinAWXV-4" value="&lt;b style=&quot;font-size: 26px&quot;&gt;Drawing Tool&lt;br style=&quot;font-size: 26px&quot;&gt;&lt;/b&gt;" style="rounded=1;whiteSpace=wrap;html=1;verticalAlign=top;strokeWidth=3;strokeColor=#020912;fontSize=26;" parent="1" vertex="1">
          <mxGeometry x="581" y="-190" width="190" height="110" as="geometry" />
        </mxCell>
        <mxCell id="Q_ESog8GYrtDBoinAWXV-5" value="&lt;b style=&quot;font-size: 26px&quot;&gt;PIM/DAM&lt;br style=&quot;font-size: 26px&quot;&gt;&lt;/b&gt;" style="rounded=1;whiteSpace=wrap;html=1;verticalAlign=top;strokeWidth=3;strokeColor=#020912;fontSize=26;" parent="1" vertex="1">
          <mxGeometry x="840" y="-190" width="190" height="110" as="geometry" />
        </mxCell>
        <mxCell id="Q_ESog8GYrtDBoinAWXV-6" value="&lt;b style=&quot;font-size: 26px&quot;&gt;Sales &amp;amp; Service (CRM)&lt;br style=&quot;font-size: 26px&quot;&gt;&lt;/b&gt;" style="rounded=1;whiteSpace=wrap;html=1;verticalAlign=top;strokeWidth=3;strokeColor=#020912;fontSize=26;" parent="1" vertex="1">
          <mxGeometry x="120" y="-40" width="190" height="110" as="geometry" />
        </mxCell>
        <mxCell id="Q_ESog8GYrtDBoinAWXV-7" value="&lt;b style=&quot;font-size: 26px&quot;&gt;Product Config, Pricing and Quotation&lt;br style=&quot;font-size: 26px&quot;&gt;&lt;/b&gt;" style="rounded=1;whiteSpace=wrap;html=1;verticalAlign=top;strokeWidth=3;strokeColor=#020912;fontSize=26;" parent="1" vertex="1">
          <mxGeometry x="120" y="100" width="190" height="110" as="geometry" />
        </mxCell>
        <mxCell id="Q_ESog8GYrtDBoinAWXV-8" value="&lt;b style=&quot;font-size: 26px&quot;&gt;Sales &amp;amp; Operations Planning&lt;br style=&quot;font-size: 26px&quot;&gt;&lt;/b&gt;" style="rounded=1;whiteSpace=wrap;html=1;verticalAlign=top;strokeWidth=3;strokeColor=#020912;fontSize=26;" parent="1" vertex="1">
          <mxGeometry x="350" y="-40" width="190" height="110" as="geometry" />
        </mxCell>
        <mxCell id="Q_ESog8GYrtDBoinAWXV-9" value="&lt;b style=&quot;font-size: 26px&quot;&gt;Enterprise Performance&lt;br&gt;Mgmt&lt;br style=&quot;font-size: 26px&quot;&gt;&lt;/b&gt;" style="rounded=1;whiteSpace=wrap;html=1;verticalAlign=top;strokeWidth=3;strokeColor=#020912;fontSize=26;" parent="1" vertex="1">
          <mxGeometry x="350" y="100" width="190" height="110" as="geometry" />
        </mxCell>
        <mxCell id="XoJ6xCWna6AEDFndNEd_-5" value="" style="triangle;whiteSpace=wrap;html=1;rotation=-90;" vertex="1" parent="1">
          <mxGeometry x="-536.25" y="41.25" width="1002.5" height="210" as="geometry" />
        </mxCell>
        <mxCell id="XoJ6xCWna6AEDFndNEd_-7" value="&lt;font style=&quot;font-size: 18px&quot;&gt;SYSTEMS OF INNOVATION&lt;/font&gt;" style="text;html=1;align=center;verticalAlign=middle;resizable=0;points=[];autosize=1;fontStyle=1" vertex="1" parent="1">
          <mxGeometry x="-160" y="-295" width="250" height="20" as="geometry" />
        </mxCell>
        <mxCell id="XoJ6xCWna6AEDFndNEd_-8" value="&lt;font style=&quot;font-size: 18px&quot;&gt;SYSTEMS OF DIFFERENTIATION&lt;/font&gt;" style="text;html=1;align=center;verticalAlign=middle;resizable=0;points=[];autosize=1;fontStyle=1" vertex="1" parent="1">
          <mxGeometry x="-185" y="-20" width="300" height="20" as="geometry" />
        </mxCell>
        <mxCell id="XoJ6xCWna6AEDFndNEd_-9" value="&lt;font style=&quot;font-size: 18px&quot;&gt;SYSTEMS OF RECORD&lt;/font&gt;" style="text;html=1;align=center;verticalAlign=middle;resizable=0;points=[];autosize=1;fontStyle=1" vertex="1" parent="1">
          <mxGeometry x="-145" y="432.25" width="210" height="20" as="geometry" />
        </mxCell>
      </root>
    </mxGraphModel>
  </diagram>
  <diagram id="MhgtMXg-drUwo6uzFw6g" name="EPM">
    <mxGraphModel dx="1662" dy="774" grid="1" gridSize="10" guides="1" tooltips="1" connect="1" arrows="1" fold="1" page="1" pageScale="1" pageWidth="827" pageHeight="1169" math="0" shadow="0">
      <root>
        <mxCell id="T_Evcuj6So3vLvqtFHyj-0" />
        <mxCell id="T_Evcuj6So3vLvqtFHyj-1" parent="T_Evcuj6So3vLvqtFHyj-0" />
        <mxCell id="ZtxC2L9r3oJZcuiYa41r-0" value="&lt;b style=&quot;font-size: 26px&quot;&gt;Enterprise Performance&lt;br&gt;Mgmt&lt;br style=&quot;font-size: 26px&quot;&gt;&lt;/b&gt;" style="rounded=1;whiteSpace=wrap;html=1;verticalAlign=top;strokeWidth=3;strokeColor=#020912;fontSize=26;" vertex="1" parent="T_Evcuj6So3vLvqtFHyj-1">
          <mxGeometry x="100" y="110" width="190" height="110" as="geometry" />
        </mxCell>
        <mxCell id="ZtxC2L9r3oJZcuiYa41r-2" value="" style="shape=image;verticalLabelPosition=bottom;labelBackgroundColor=#ffffff;verticalAlign=top;aspect=fixed;imageAspect=0;image=data:image/png,iVBORw0KGgoAAAANSUhEUgAAAz4AAAGCCAYAAAAhXBb/AAAgAElEQVR4Aey9z4slR5Iumv/GWffuUTvttDqrXHQvumFoeAiRr6lZzAMtBmqRUHAHxDBIDQkFDwSCgsMUzUjMUJyhoEgQxU10G/VlyCERBUIkSbcuTU+So6a5XZOdavoWIrGHRfhnbm7+IyJO/qg8mVaQdSLC3c3NPjM3d3P38Ngg/+cIOAKOgCPgCDgCjoAj4Ag4Ao7ALUdg45bL5+I5Ao6AI+AIOAKOgCPgCDgCjoAjQB74uBE4Ao6AI+AIOAKOgCPgCDgCjsCtR8ADn1uvYhfQEXAEHAFHwBFwBBwBR8ARcAQ88HEbcAQcAUfAEXAEHAFHwBFwBByBW4+ABz63XsUuoCPgCDgCjoAj4Ag4Ao6AI+AIeODjNuAIOAKOgCPgCDgCjoAj4Ag4ArceAQ98br2KXUBHwBFwBBwBR8ARcAQcAUfAEfDAx23AEXAEHAFHwBFwBBwBR8ARcARuPQIe+Nx6FbuAjoAj4Ag4Ao6AI+AIOAKOgCMwPfA5/w/a3f4xzedzms8f0u63349H8btv6IvnH9ODTS7b/20++Jh2X35L5+OpVHOef/Mp/SzQ7ej/7FP65jIIV2u8Gwnn3/47/ePuISWa/naXHgDrH35ML5PEu4HLVUj5/cuP6YfA9cEufTtYyTHtPvhhaE/v0scvvwslas8HCU7MMFxP0X4m1hKzv6Zvv/xX2v0KcnLK9/Tt7kPxKT/8+GVqq7GwXzkCjoAj4Ag4Ao7AHUZgYuBzTn/64ue0iYHZlMDnuy/p43c3ZXCCwKf//TE9+PSQ9FBmuk7+D33z6XuG/nv06Tf/ZzopLxEQ+BN9s/tzenc+p2ww6YHPlVjJ7Qp8GvazCnrf/Zp2P/gZzec6wGNCHvisAqeXcQQcAUfAEXAE7hoC0wKfLHgZu+Kjg5IY5Jx/+0v6uQRDFwxSzn9Nn/4sD6w2P/iC/nTXtHpJ8upBuAc+lwTqABmN+XzNV3y0LJn9DOCQJ39HLz9+t7CyxTk98Mnx8ieOgCPgCDgCjoAjYBGYEPj8F738+K/NisrYwOdP9M0Xz+jjBz+m+ebP6Ys/Yf+ZDog26Wef/nrlLW9xm9sm/eyjj+jvsZ0uqc+K7/ctBC534NqqydOAgMb8YoEPKL65Xy3L1QY+b05Gr9kRcAQcAUfAEXAE1geB0YFPDCzi+zmT3/HJcNGBzw/pwe5xlmPcAx2U8crRMX3xwV+FIO2v6IMv/neFzDl9983/pOcfP1Db9+Y033xAHz//n/TNdwjQVPHCe0rz+Y/pwcfP6Itv7NqSnokuyKe3i+nZ/e9f0sc/DDjzc67z0w+6LWfd1kDm75ff0HfE/H9Bn3bbf/DO1GP6peFDD0B5MP2f376kXS3zux/QvyTvWenZda3vOclgXPNefMfnNX378kXCWx0nIlL0ukFySebdl/RtppIVdKjUmV6WeGb5f0YffPpFbg8r80xEVr53P6BPv/iG/uvK3/HRuuWJiz/SN198Sh/Iyivb8ue9rJZHsTuNWukdH11HxX6YxPm39PKzf1J1h7wBC9n6qtuDbLPlvGhTup0VtmXW6qq2c02Pt9X9qdDOau8mqkkexSu/y/j8C26z/s8RcAQcAUfAEXAE3hQC4wIfdaDB5t8+oL/FasqUd3wyCfkl5X+MBx28+5helgKNrFzhwZ++oA/AU3egQfouUnm72zl99/JxDCbUIEXeP7I8ZVv9zKBu/tf08cv/UgzqARQGaSpZDZwloOBkPdB792/pgQxKdX0/pgcf/Lcy/5v/jXb/87VUlAQ+DXrbu/8RVtxGDFw17zbwOf+WvnxsgskE35/Rz7/4z3R1T9HbfPD39PdFmTfp3Y+/VIPHFXQoqNiL1/TtF4/KeIJ3aw8r8czjfb3FM9Xp3z74f2MQroNhy67clwIPTqw917p9lx48wPYxzcec6jr4MUU7qdWj60jpip2f/yd98XN+X8eky73StW4Pks7l0KZ0O8sDHz5c4TGvNidlVb3vPqIvvo3tJd0612hnWXvXEzCKvtSrZBL9+YUj4Ag4Ao6AI+AIXBcCIwKf1/Sfu/8tDMb+mj4++DyuRqwa+JiBzOaDf6Qvk4HHFPF1kKO2yyXv/BTeH9LpyYD2T/TrT7eDvIoe6dUpHeCc03e//pcYwCUnyekBGQZpSjY1cJYBISdX8dG89QOrzQf/Qr/mgDEZSGq+mZw6KWzOg1rgbQb7jYAp26qkeU8CH20vui5emdlVs/saw3TFhweodR7VVsnJOlTY20sV1AqmnEc9n8/N6qHGYCzP9L/VauQmvfvBblhJMrrgwfKVBz796ubjL/lURWPHXP/mNn36a17FNLwlNl4LsFK7S+1HB6zxnT9iHvRkRLJNVQdTEw43UJM23Yrj438Pq4bx4IUuIEp8gG633M5+TA9QLmlnc9KTKnFV3AQ43x3SpxJ4FXyRtUW/dwQcAUfAEXAEHIErQWA48JGBX+jMk0H52Hd8DO9mwNhtLeu2bpl8o271QFIPKnSgkgYCHVktRzbjW6pYD7wKKxalIslL16sGPlomGyCkaUmAowbNyXMT3FAS0KU46XLpwNXwoQMfsRceOKcrT9nAVg+gE5tI5SId4MxV2mQdFpU08FDr3ehwFZ716mQysGc2zIqB0mGdyVrgUXuu5Un1na4SmTSNdTLhUaunFfjUpUmDfu1fNN9jA580kNrc3qX/TLZKary1vCbw0XbKO/T0sfkqLbaXTXr3578sbMtsyO1JjoAj4Ag4Ao6AI3DlCAwEPmpggBnR6gBoBV6T2VM98zuBlhpI2oFNbYDSUU8G02FbSrfnf5d2i3vxdSCFbSz8PsS/0u5u5X2gSwl89OCvEXB0C0VqZUcNmuOAbE5zNVADykl6pdzYwKdGC3WlQYySTQcROpDqClYG15N1KFwMXpx/+5I+29017381Ap+RPGt89GoBGNLpV7/iY+Spbo+zq5BKb40yWpbMfiBw98vvVv132t391/4AFNkaputZJfDRZaysPQOJjxDbTwOfjPeKrSa0ggzduz27nxXe/0sA8BtHwBFwBBwBR8ARuAYEmoFP7MjVvv7LDHxYQBW4pCe+jZE+3VbVbVmRQROCE/yarVV2+05WLn+hvf5uBtfB25Y+NQMcPYAqDLz0AEoGXWaQaQfUuoxJ0wNNPWiuPReEKzR1uXGDPy1v/q5FX18liKnw0Cyzgg5F5sIFBzvJoQ+ZTRgdTuZZb8ss4xPb3HVsdbMrJxXdMFbVdl8v07Qf1t3LXRPooK3i96KBT503UX9RhwN2XCzDS0ED7y3ZQxuECb9wBBwBR8ARcAQcgetAoB74qL3xyUpKdQC0KrsjBic10qUZ/2ywikFUuh+/J5mfimaDp2xW3p50ZetLti/pAZQZNDMDegB1UwIftSLUHLhq3iUA0/KWB/bpdio18C7Sg+JbNrKCDkFW/+oteqxTHqTu7tJnL7+hL+X7MUaHk3n2wKeHPN2C1k8a/BPt7v53enn875V3CPXqjbKbjmDN7lp2E5Rf1GGNXqtMSCM+1U2fkhf9T+9bzHtiKOa/joAj4Ag4Ao6AI3DlCNQDHz0gsIP77F7PzE7lWQ9O1PsbI8gks+MZT3bAwe+cqBfjM/o8YPmMdnft8bo12fpjlHd3n5sjm/XgWA+g9DsEfeUJ/9cV+KjABhDoAKe2UjRuxSd9r0PTQl3VlQNtbxJIoZS2ETvoRR7+napDlE0DkiTQJz3g1ro1getInmtYg5OhdOSLvzVsas+1PBbLWpnLXvHR7+Wp1WQWqjqx0uJbtzMdcOsyRncBwDLeNXqhUNNWo2a6I8t3d2lXH0XPfkq3dZXdLx0BR8ARcAQcAUfgahG4nsBHn2pkB94rb3XT79w0ZlGTVaFGPo1zUqYW+OgCmhc9wGoNoNLBdjIY0oM/O6BuDLrKgzgTjOjDAToRNO9pcKbpjQ180q2L7cMNkgCjIVd1lUirwF5P0qHWU4oBJaewad2uFvik+NhAXL1TN3qAXAtWas91MPCmAh/Nm5ns0P4gOUShxbfWnw580jaW2FtnLxpvHYDV6AUja9qqNcT+vjrJUc7uTx0BR8ARcAQcAUfgChCoBz61yvSgPBmYcAE9oFGDqmQQWjsaVg88apWr55pmcyVHD+znhMGPHojEo5OZvjnWF4FaUt8D6o8ADvzowM4EFrqeeDywPdrZzAJrjC898OFtXPhuifmWkj2FTQ3wgJtoQKXNEx7T964itlZm885VlR7XWLYrjW2sp6FDYd5epAPkiI858li+GxPKr8BzenKbPs7a1mVswrIs92VsaphRsoKl2mhHr0artRLTKKPwSe1Hr/ioE9C++zXtqo/xph9I1sGI9RU6TQc+3Jz/g3a38Q0f5Xt4dXD35/G7TTi8pcOhQY/TlVzR9rWf0fVwAX0MvQ2suwr9P0fAEXAEHAFHwBG4BgSuJ/CxwUS2LU0NfkYJnQ5Us/dwDA09QJ5LYKIHI4VtccyjfMeECZqAKJOBaRROpksGXmk9yUci9faXqwx8qh8wLRzRrYM9yItAsDj4C8APveQ9L9TVolcJfNIBZYqtvKuV6NAYhr617/hAXv4+z7vv0v8d7hNbW4ln/jaQ/q6L5vvHdN0fMP345XcKhUYQo20ymfBolKnaj33HR2PwQ3r33b8KHxtNV2jTdsxlEES0A5X2oSR6IgBQtOmVA5+WXqN8yTeiUJ3/OgKOgCPgCDgCjsC1IHBNgU+QhQ8GeP5x/Nhn99HHj+l58fjolvx6xjgdHBVLJQMwDJY4Z/+ezvOPH4QPlmKAwie6vaCXpY+qFmTAy9mfveQPQRb+2QMRumOz+Qjs/6DdBz/sB3nXFfhwPd99Q79UMvORu7tF3hmfz5OTt2TmvjnoZwz6I4pTbBu4Nuk1Bter6LCgIn6UnerGBxx89pK+/f7X9OnPNns96dXFlXnmQfI39IV+9yOc+PVf+mOz2iYqPNdXdmqYtbaM1cqsuOLT6aZiP9mpbrz69U/Ebeh79Z2cJNDkVZpfPlb+Ays/A4FKr1x6+Zk5Lhv6zRrtAL2m3vk9s2dJm+mC8GpdVcV6giPgCDgCjoAj4AhcMgLTA59LZsDJXT0C+l2d5F2iq6/aa3AEHAFHwBFwBBwBR8ARcARuBAIe+NwINVwtEx74XC2+Tt0RcAQcAUfAEXAEHAFH4OYj4IHPzdfRhTn0wOfCEDoBR8ARcAQcAUfAEXAEHIE1R8ADnzVX4Bj2PfAZg5LncQQcAUfAEXAEHAFHwBG4zQh44HObteuyOQKOgCPgCDgCjoAj4Ag4Ao5Ah4AHPm4IjoAj4Ag4Ao6AI+AIOAKOgCNw6xHwwOfWq9gFdAQcAUfAEXAEHAFHwBFwBBwBD3zcBhwBR8ARcAQcAUfAEXAEHAFH4NYj4IHPrVexC+gIOAKOgCPgCDgCjoAj4Ag4Ah74uA04Ao6AI+AIOAKOgCPgCDgCjsCtR8ADn1uvYhfQEXAEHAFHwBFwBBwBR8ARcAQ88HEbcAQcAUfAEXAEHAFHwBFwBByBW4+ABz63XsUuoCPgCDgCjoAj4Ag4Ao6AI+AIeODjNuAIOAKOgCPgCDgCjoAj4Ag4ArceAQ98br2KXUBHwBFwBBwBR8ARcAQcAUfAEfDAx23AEXAEHAFHwBFwBBwBR8ARcARuPQIe+Nx6FbuAjoAj4Ag4Ao6AI+AIOAKOgCPggY/bgCPgCDgCjoAj4Ag4Ao6AI+AI3HoEPPC59Sp2AR0BR8ARcAQcAUfAEXAEHAFHwAMftwFHwBFwBBwBR8ARcAQcAUfAEbj1CHjgc+tV7AI6Ao6AI+AIOAKOgCPgCDgCjsCtC3zOjxa0ubFBG5sLOjq/LgWf0+neQ5ptzGhzcUiD1Z7u0fZsgzZmD2nvdDD3dQlxC+o5p7Ojz2hn6x5tsA2M1YeV/Mr0AzvZoNn2Hp129f6B9rbfoo2Nn9Li6C+Wk0u+f00nB/9GR2dXYHMTMTs/+ZI+P+oRuGQhc3Lg7Vp9Qs7GxZ/AVt6i7b0/XJzctVOA/U/0k9eot8wu19J2pvrBgl+A3LeijyrId2W2P9HGr4yPqyYMOXVfdtV1Xhb9UzraW9JiezOME3issEGzrR16+uyATga6x3FjzIhPPxbp60iuZ1u08/TzFfrjEv/3aGvnn2kv61PRZ1zH+KKln4hHHPu08l9t2i0LfKBkNrLrHBxAqRM79FvRqVytgU6ifrZPO/OZcmYr2sCVdfqwE91ZwGav2jH9hY4WP726AGsCZn3HMbKtTDKASmbwdo0D6AonF3wMW1nRri9Y+8WLw/5H6v6a9Va0y2vm4eIYE9EkP1jxC5B77fuoinyXAnSJyEQbL5FYi2eQU/dla8D4+THtPUwDniQY4QnT+fu0d/K6Igx88NAYM+KT0e8mZVUgNH9EByMnI89PXtDDZIyj6HR079HW4is6E+7B71WPL6TCykXEwwOfCkQrPw7OevbOFr0zu8EN8tZ0Kitr6koKYiZmdn9JxwOzNk0Grkw/b7LxX7EDHI0ZMBg5+G0qamQiePPAZyRgV5XtDeh+tCg3mbfRQnQZp/nBil9Am1n7wKci3zRIJ+S+PXbUFhpy3uBxVibAazpevkezsLqzPDhJduecn+zTk7AKVB2ch3YxPMYEPvV+LtZXz5OIIBMaM5pvL9LVnfMTOlju0BbvJNq4R/eXvw2yXbf9JxyrG+BxM+zlFq34wKh5NvTra9w+pHQ79vLWdCpjBb6efNLhyzayFeu9Mv28ycZ/xQ5wNGbAYKSzX1GFSTHw5oFPAsv137wB3Y8W8ibzNlqILuM0P1jxC2gzHvhMA59ujx21BYecN2Mg2+YVqRVbRzL/nh/SYnNWeQ1hyhgT+Az0c2hng33TKzrY+VEX1KQrOgnzdHbwiObdqhVWkUbIrElc2TXwuBn2cnsCHxhst2z4fTCAGc139tWyX02rwTiKTp6Xyv+u+P5F38FwoPX7yjs+vNd6T+0lvUdbj35FJ68q7/hw1P7sMW3LUiZH9o/pmZmZqEnRPc9o8AxAYYYgNLjZ9gs6PnwSZgoCXq00rmRMHZidqDTo8+Ml3R+5Knd+ckDLna1upqZfNt6k7cVzOsByNHRvlpCrszYC4FXqh/fhLqIuZ1v0aP+YXnXvgunGX3NMvC/9ubKdfg+ynaUiyvN1GM23abF31Ns+nKvGJ7H1Ag0uX9zvPBEzwZovIKtenk+3bQ3qWtNLZrlg54X2AvkTWzT66TqLmsy60njNvD5bbPcdjWDLtrmn9m3D4XMH+JKOD5bJO2jz7V9EO46kic6OaE/Rnm19RPsnx2FCJ8VMF9PXGX+8p3xZ2MM+CkctxyF9f/IreoR36Zjui2BrTOtJxGS29YheyL5zTeNrOtXv45V4y/Smy4/FsmDb0DXaR8suMx6AMNPVuuQtMgX7UeUPj40fm2/Tkwm+fbBtTPWD4E1sV713ijT2E6+OE52ynEW+s36h1n9ZH8Jt1/h0wNx1N7ad1fOqYkSQoSRfl3GkDkF0hXYiGw9Me+775IKvQl2jfkfiCBwS/xcqqKVluuR3SJbKV6Et9n3ZK7Va0stW8WslubK64MvNqgaXvRCOrXFeiTHzDO1r1BgT+AwEPqCZ9MemXr6t6SnL+gfa2/kHWix3g67Q59qtbmNtv1aeK66lmb61OvbJmL+2BxcLfM6O6IUakKad3LXJ0FXUByHKyMYaVGAzBjHmpeFAJx9Ehwi8M9jvC4HPeYy+tePlIOTBgz7Q0MZ+9hUtMJBI8vedwsO942RZtohukwZ3au/R8jjsXQ0NCUu2fUAR8Gulja4De6tLgzSk2cZopTqnMwnKGAfzN7tPi8PTOEtj0nOdafpXqR/Mzhh+NzbpwfY7/VK7rEqVnMcpHS7uq0BP09mkaAutfFwmLHnDaWp8xPZaNGY0f/hCvew5ETMNd3cNWbU8sI+RugbNph2afc6QXzr+AZkHJ0sGeOWtFLLdMnaAb8/fLuvU7vHGpIHWF1/P36PtzkcAM4Bhf1v8GZ2OxjHKMd/+hxjQC49v0faLL8v750U+RQM+UMr3NjHbekKH2O+e6S2WH4dlS8+qfUgHXrDLjAfGuk23KMPbc5p321B0HXz9I9o5eGUVaO5b+mS/vqIfhGxaB/ALSJu9Q9sPSu9EGL6bdqR91oAsYisMwVDe1rsYarBYkm+KDpmVpnza30QblYOOmmUNjkbz9dshbDDjr3AQ/6eoQs86rcWvvP8COXlC7gE9kMlaZd+JLlWd+rJVF+tNj1maecfgiBWb2iSiZiy/njbGBD5qTJqTHBnQjKRVoi++TY+1JvivYnlUhP5c054y9gGd6/9dPfCpGSGc8LXKUlIABtd6v2ODqUqA0xu7mgkDic5hwKgLhimDl03afrIfBo8cZf8iDhrQyRB45RkyPVOi8msHAB6S38jDfHupZpx5gQazs+BXOUMOxJLBbSttWh3VVR0EpdrZJrKEG8GQZ5s+izLpgFvRgK7aAY+lfdn6UcGBnhnlWS09E94IfIBbNwu6PAwrlqd0tHyYLmOj05o/pKXMqvcrcvuPwgqZ4FNqI0TAzM7ixv3Hqv2IPsZgVlIoP4s2JAMDfiy0x+g6Otd0suWUjl48CquXyhkDJ2CB+wQ3nj1d9m1T2mVNBmC5SduiH877mk72PzL1Q14eEGjZVH3JQSyQLfUFUR9MZyDwOf8tLe/zyYZMA75A14dBAurigYBemSnhaOTgletuOvs1ney939nlbD6nuaIT/Q741TQsbziNUdkb9AS9ie2MxBLlEz3X2gd4Uz6SVQoaigfZTqJXuniQLitYigbKd+8VKIzPDmk59D4BzG9S24htepQfrA1sanyrl8Mj/Sn9V6XtCB6wFdZT2HbEq0HSh/b6gy+NEwwAy/6iPuUPWFfYEjRGh7RKO4ENRLuKbbEzLPHnEUfLe+sechkfVMIRuhQbVnSztBgcbOh2I3SxiwZy2bbI4w28gK90qaqMl6ChfUGfGn3HJeN4fkLSN4aAuDvNbbmkpawARw7jFfDWdgS7Vz5LCkTZkn5OpRf9haTrC9QzhKcug2vL91Tbt+VBl39tmqI9auyjaV3v9YqBD5TKRp//rdaQLyB41nh7WjKoKzX4rLogUzLo6Q1u9uBD+nDzbXWELORHI8B9oZFms8fKOFAXHHyFz14O0M4YH/EA/KktVsCsdIxyK61aW6EONAzIGcqOkwf04GhNxTK4i84A+h62vxbti+oHzgCDS8236kCrgQ+cXEHugsyaenINHQr24As2y7lRl36mqCR2OREzRSa9jHRihxCfFbemWrkhW3FGMXbcYgfIj/aFe92xp0xe4A44wy4hW+mIfaSpti28qRlbcCMDYNBGQvqLdrCR4WOwadVFJq8OOoAjqoWdZL7Eyod7vSIGIkQS8IM++MN9iwdJU1hG0vkVaEv7AG+mPPIJD9BvqX0rGUAX5TNsSkFVzqaeKBjVNjguCJ90EPsvkZVnkMf4gCl8Q/+CkRDvLlJ/j/rMgD0tUihnMwz4LsmO+rR8eDZRh1l74kpq7QR2FO0qDXyEwRUvIMMwjnnwrqqEnqE76LKwEints7Nt7HIZ6ddUleMugRvGLLjPg6Rx9HQunqT4nJZPcRiAHsOaIBvFLE7hOdpa/vkU8Ktpl6+TFWLUl/zC1tt+PykiN7AT2D/uR9o+xnAl/5WltWiXxj7C5LVfrBj4nNHBzrwY9HSB0A926OD765IlOp5SENY/Kys547AzbmVcnRPggOd33VHAsSPpFRzvYeRwdgOGikYUOkdpPIUgUssU68s4Nw9Cw+ZZjOWSnurtiBhwGx4SAq00yTiiDplZAy5cGNigIQpBc4F8Sh9JDov5lA5/gLaRf5J+0HFg4FPkGc6cE+EsgAfua3InBOMN730O+k4cuvABuqhHz6iWHbLYXkfjz+E47ApfBrPImL3K9RZtokLbDGq/HxrYgRd05vZeMI9y97N+q35T4VnXzpbLT9T7O5ClJC8wydNga+W2Dh2CNujoX9DUNqbT43W7LjswB13dlgOtqs3bMvY+8tJdWTqZ3lrlW2nh3YBm+6iUtzxYHo0IWXu25XX+VprkG/BVpm3wItygXoU2X8CmlF/gx+BN/IcqZNJQn/iLSj/W2zRwjm1vg1ddnj5LT6mSfkLlK9JttYWKfBN1CPnKbVJh1fkbyKfaCfAS/nnl95OBFQaFd/ES9Sh8ijha/gwx8GZ9ZUnvSdFYf45LKy0hom5GjCfA66XiyCzwOynPkkAoXUlcZYwZMai2i9I7gQqReDnkA2LO/Mq074m2X/UPXUVTaEc8cnvJub7qJ+sf+ECR0hiUI1DPxoHdG1ifN8z8dw4gzG7AGXQNUDtcKBXODgah8yhVgudAD4612kAgB5yTIpVequ1QKGN+BQc4kRLNVho7CWy5MrTBv9TBzEFW1GPvUwHU3QCGF+rwB2iDx1X088fKwRVBMug6YgRewsADdQ9tZ+rocWcRtmdVdBE/kmvq4fJSV7nNQJ/9x1V/136xHrTQRpQm00vbVjgVvFXaS6Lrr+mP2QERaQ0yaIPNlexZb5dMsBs5oyhbP2rYQZaSvODXpuG+FrSM6QCRp0bD1t3Il+AG3uDjQEfZUaZ7Wwb3wEbR6C5hB6EtJPVzBpQv8FBMm9I+KrQtD7jPZIUsQzIg38CAVLKBXg2znO/cxwixwgXoX33gE2fF9VZK035kFTbacfRDJm/Xbku2oMUsyDdJh38O7+9epJ2wHWIrp5VhxIqNFie5HoPjgJ0Bi+ArYTux30gqVDewuxIurTRForucMp64KhwVT3Z3ASehb0v6CatHiwMwGLJPVXf1chotPgTluRyaYuwf+h7rv6RvNv6h43UabdhWHPtUBb7yhBUDHygiVz47qesTLG5LqtYpRltSXI5vp5zOKH7fDfSEbmcw3Pn0qz/RiTMN4AEjh9OudFbG+C7HINSsRDfz06/2LOp8y1QAACAASURBVJc8k/Yqd97gAYNDDUU1bWIdHU2U6fHvZQVOulJ7PYBhhvmUmc4B2pA/OIdJ+oG9FR0L7ES3EeM8xNFUbEfBJFsPundHPgmrDmGvspEhBheqHTR5VRV1l9Mws6XjPTDQNjBA2+j64is+kRuZ7VumpynGbXg6b7iWzrF/SfYpVhKWvGLU+434Hk5JXtDM09q2Bltp2QZoahtDfelvuy47YAJdrTfgUTsC1pax9yk/MsBA24ENi49qlc/TprWPvHzHneVhsM1AR6Gd2fJa5Faa5JvWNt7kio/0lcL70AUPZD+n5fJpcnpl37cOyT1EG+lGH/x4og4vrZ1w3ViZVyc29hNLfwHDK/y2cLTt2JC3Noh7tEGTPd6ivZT8TCstUtDbBPtVv4Exiy46GUfwVPBfmq7pa85l10pJzlAQ9pRsBxtbX1J5/QZ6EV9Yy4p2AzmN/YPXqn5NfhmPqHGDVG3yNmkDjwaOQvfqL1YMfBqnnFzr4QYG+CJe1hCKmdRDprlJ9x9/RA9meoDR19W/7/MDSgdGUCqMLd6X9mXDkcqsCox68AADxaa9bBpdYX8l6iw1pFra1DrAY6A3235O+4uf0jhHDwwrDUUGn1FHwHW4Awbtwns03C+GrVSr6Qc2WdpeCVvUMiE/HAvylHiLaZuLL+mwwzLKD7g5EI8v7z6kvVMeDtl6ODeelV7OjNT6q4mY2eJyH+nENoRnGhcpQGR1DfssOm8E2ooW8pdsXVXDl6L7Rl7kKdpZ9h4OZINv0BUW0sBr6X0CtL+B1UDwl7/jY+Rrrk5aHAu8QhTwlenDlsG90g1oMPbhiHuZVAIWoguUH4Ml2srY9lGhnfGANlOiq2QAFll5JXArTbKBrzJmWdtQNly0T6GLC8gD/xOegzfIgez8a9PkXp0aqvOPvYYddQNItdIiJySOJaTzleTDs4k6LGEx+I6P5sVew0ZL9mzzTrhPcPxLri8hpfoJtDEpW+i/JI1tRekH2+cV3dOhVXnOC3pFXAtjFqFvL0biCDst+VYhCVqwDdiKaR+Sny9QRusR7VY/SwpNvAEe+gTBnIT4UBlLWv5xD/lSGrG8HTcU8ktfB2xAu2A7glHFj6VsXPnd6oEPs2a2i6QnA10577FBo9HWqoTBFxuYLQSDtSe51Z5zeaQpI0ej5tl4OQGJZ2bU1iThB0ZtT1fiE1Lw7QdF27LcsaBOwFEnTcXy/eqcdIbApIRdLU1kSpfnq3UIn0G+2ds0f3tGMrCR9MqFNCx9GpaxO+XEMOATGStku8ciy+XrB3zwLNajfXwdOl3SjzzCWcB5qMETn2YkurQnhr0K79yYrVn2WxNiY6hHOzDV8SWnG7FJqy9Bw0YmYVYDH23FOMBJuq61F731QzlfY8/QT+av5MSfdltD+eTUo+57Svq7LsAZ8pZoltLQibIv4G/3hOPnk611oF3BWALF1Dbyk5Km4FjiNdQPuxBbA1+2DO7ZF9XanQrCjd6KfhZVZT4YOKYYJHbNW1eE58hbbJtqkI82kEwqqO8X8XPZzqQmLTIZhOHx/dekthGD20QOVW16WfILSm7BR5WCTJJWs6NC/yW2orFj2sq/Aeua3Elbi35TcaguS/LV/F5Fh6NOdYO/gR2hvcMOTR/WuVictjokgxIHl1NwRN6kzakTY7kdAHMVyCX+TXwj8kJO48c7/lppEEAFPkk/p21Gj1kuA8dop8VvbulvBGFcAVsXfBT/+hL5pE0AA9iBzrzitbQH9mnmG1C6v8ZnLLpqYP+wsam2D9zT/ig9ZRS0o+8ZN/ZZEYdLKHaxwOcSGFidBBQyMAjoKoDBj8kbG2TWcQTjzp5nnS5XWjtnf5Xv+LDRqe9bFEFDQytvP8Q+aeEdDbXUoKtpE+tQfMpgMWmUKkPxsoZhkNGsLqIOkbFIEw9rtC9DP7Vz8sd+xyfOtkNv8VfN+EBPrb3H4ojRXoAdZnRqvCJf+EZIB9tEzAC1+YWeepnQJmu0S3w0Vpw7LBRGXDdwEluHPwi0LX7yrQrDuNyiM6mU7+hFufrZz1IHiPZk0mqfChj9HR8dPOc8Jr6kVleGY4VXxgQDK7E1AGXLxHv5llmCvTlaP9NbLB9XC2t1Kb0ndRg8FM9Fu8x44PrabSbBt1g+8NxKg1jd77S2ATnG+cGKXwBvCh9hqZTWtCPdf6mBV1EvE775wwP5xVcDHyivyDdFhyx4Uz7NR8FGZcBqbK+TP7V56C4G5IK6uZiCY60/uUdbH77fH78vvpHbM47DL/ArfS7kvEDgI+OmQj3KNsSOJ+BowIq3yQRSpV6REbYDXx7J5FfoU5AX+Bjfnhec8MRMnCuMkvGBTLQzafRVMTiZ5L/YHLASb+qbbb1PH3bflRtDuzT2mSD6JWdd38Cn2tmWERKHoht4OWtYuvwbdXw1MrIR/Q0tjux+3LqRp5FxmOV8VXkBnqP2Z/pdg8rXwMFO9mu+mMuGyieH8LsHxy9omz+gh44MnVcJj1ZadwLKIn6LqFWH5g80Ub9OG7i2K0q1r3xDx+IoB+hy8tXpx8yoVb9eXHJMzBmXf57ufWddJt8aYEe4l+bpvoC+pL2j3+SHESROXzurQl0dnefqS90RzEmYxWLqSq9+pR3DWF13xJJZLu7ECjNhnBG2p2291NYaMivm+0s9O9h1CH3dy71DOk62edR9Q3MFg/nT333qVn+Oc51mjMUHjOWz5F0C/uL9XvweFrKOwrEhR9UX2zL6/ms6TVa/7QpASW+6/KH5oHMpbWL7SA5uCXZZsp0ON24zeoWv4qur5UvyQSHl37FtY7IfLPkF8F3y17W0UpsqnlxV8jeVttv5aGvH9bxF5EryTdEhiF6gneRtsWwv0J3006i7+DsFRzM2wAo/dKl9I9eV6ZIxX6iT99DeLhL4cEWGr4HxxFgci3DJw/4UN33abRc4dO9G78Y+r+rXhFByIbrrsAQ+af+WFFj1pnu/yYwTeRJg5xN6JocagHhrfDHCf3VkrB/F6iXeZ9VjCS7Adqm/V8k7X47pVdIvgr8387u+gc+bwctrXREBOIUpQcmKVXkxR8ARcAQcAUdgLRHo+kobiKylJM60I3AzEfDA52bq5XZxJV/7xj7o2yWeS+MIOAKOgCPgCFwcgX4b5Q+yAwMuTtkpOAKOQI+ABz5uCVeGAFZ5sP80/SjYlVXrhB0BR8ARcAQcgfVD4GyfHm1/HA81WT8JnGNH4MYj4IHPjVfRGjOI/cPduxfL/N2CNRbNWXcEHAFHwBFwBBwBR8ARWC8EPPBZL305t46AI+AIOAKOgCPgCDgCjoAjsAICHvisAJoXcQQcAUfAEXAEHAFHwBFwBByB9ULAA5/10pdz6wg4Ao6AI+AIOAKOgCPgCDgCKyDggc8KoHkRR8ARcAQcAUfAEXAEHAFHwBFYLwQ88FkvfTm3joAj4Ag4Ao6AI+AIOAKOgCOwAgK3LvCRI5TfyAfALv613vOTL+nzo1OlytqXd1WWN3rJX/X9nJbJF+I3aLa1Q0/3jujsjfJ2Eysv47XBXzhffn5DTr67uB2XkYctbxCOOLe/ud1cFS9lDqc9hTz2y9XTqFxP7r/Q0eKntLFxBV8SvwoBcCLkG/HjQwJB72/R9t4fQmbgW7Nt/tr5P6sv3/fFpL/iL9bPHtLe6XmjctTLdei68yIJXaY98Nd9WBpfqu/ytukToV32tNsfpn5FBzs/oo2L6DLhbVieYSxzzK78yfkJHXyu+0ToU/kP2P2gLVw5t5dfAWS7iB1cPldvkCL0P9TWAouZ/bxB1te86lsW+MCQhjuGq9EbOoPVBhd9Z2XLQiblHK+G+elU5cOk9Y5otvWEDs9anfn0ate2xPkJ7T/aollrEDLbokf7J/RmEbuYHdf1A1uu20s/QJvRfGc/BM1XxUudy/EpkOcGtk0rBAYdbHvrMKgCvzdykAS96wHLUOADm08/4pwGKJqeVSARAZMRgUlKF3XXf/PAZ4PawQww6GnW876mk733ac48X0SX6x74gP8EA2Co/Ad0vA5ttGCizUeQLcGgWeKWJ0L/A+2eUSjazy2H5wrFu12BT2hYs3e26J3ZkOO+ClQvMki7SNmrkGWIZpjF4w6NVyuS1Z3XdHKwpJ2te91Mo3+4lLFUeM22aOdpurpzfnJAyx0ERengaEgTl59+VbYIR686+oR5tptf0PZ8RhsbyHNVvCQV3/IbYHiP3tn6Cc0GVgtuBBg3epAEO9YDFgQ+duIqoMmztU+2swBAApS35zRv9lnQ4Vs0n/9gcMWnpEPUVQ1SMLjaCHW0Bt+dfmb09vztbiKnSNNO9Fz2gBf8tvgsAfEmno21Z+RbB5mm4gjZLtsOpvJxY/KX/EiFOceuAsxqj29R4POajpfvhU79a9rbfksNnlYDZ3opdE6Vzq9J8CJlm4SvIPGczg4edZ14c0XnbJ92ukHsmx7IXwEEk0iOxIvO6ezwCW3NOJh8RAdvbKXsqmwRjh5BTQlEW7e9L5XxZ00Ezn9Ly/v3+pWe372gbbavmz74uNEdPex4QuDTKQjlov0jGNnY/DvaefBWYzUulEW+FYJX1FUMUpg/BBIbP6EPd9CXYiuftjC0SeSzk4x6AmNG8wcPep922TYHftchSBhrz8i3DjJpkxhzDdku2w7G1H0j88AfaD9SYdSxqwCz2uPbE/jACXYDxu/DwFxvmVEAKSM6PNYz7f3qxZODfKsRz8g/M++xbGxs0vZiT72XgQ4BgQ9m+WNHp7ggkgHJT+j/eef/Mvuw0RjQOCwN7lye02J7U8rx+xFLy/vZEe0lfM9ovv2Yntl8CWNDNzWebDnG4/+jh4unpr50Rajb3sSrRs8O6CTb48XvxOwpOXmv/Gd0dPo1LTZnaqCgeDr8X3Sw3Ok7225byCZtP9kv0CZKV1p42wbr9DkdnLw2wpzS0d4irEaELSNVnk1RUrwd/cUmmnvMHEP/cYvLbPsFHSMw2tC2nduCYJqsxIWqePb52WMlC2O6VDJbOwaLhXpGY8A0xuGQDtAm8FJcfVR1jrGLSb5B0e70qnl9Scdq1ZPfrZlv/0JhDEzH2jfyT//t8YS9wCeVJiNW4b9gE0U9aNpf0+nRZ7IinPvRaPM2QJvuh8fqYQqu0Ltqo4R2C99fohfKqUEtbH1j8zHtv3hYX43r7PIe3V/u04tuUk/XXaorf4a6hgOfn9Ji/3kXIJfz9nLM7j+lrzuebeAT5JxvU9eXqjZ1lPn3nM/RT9DnKzyLZTN/x/6b2+Mie+eK310a19+EmjLatn+F3Yc+o+uPgBfsSPXtwCqRSU2IbWzSw73j4a3QGV/Wx9f4r2ADvjYXNHbMlOlC0Tg6PaIXssOhwhsTyOSw+Ga1qAfAvtQmS2lW94xFbTzQjx3SMWE9L5lx2GzrI9o/OQ4T9K22DD5L9hNEZYyS8c4UjBRcd+jy1gQ+6Nw3F4e9U2g5RTTAsL0gf/FTDwq000mND+XiVi4YaWxorc4m8vw/Qmem6aMxFJwjndLh4n7lXRHlGM++okXYbgZe46+WcaLFA7+VZm5avPOhCPqdoLhSEvnuMZptPaAHvJokHQRwwlYQjSVfY+AHWQf0OrtPi0McMtHi2dIFffU7Ea/MZkJ5bOHssYCNtXhjuXmw9NvYUbZsYv4+7XUBX27H1LS5Gc0fvigGlgqFkYGPrdveM8UpMk+0C+hqlG8AbQxcIq/YAmTtNl3Jm2LfKZLj7zAgB49EmX0Jsan8T9FDpC0rAGEQCIyStg89iI8ZaK8bG1Tyw+P0IACMvIDe4aO5GHBGuzSkeHAStrrpYAK66AK8036FXKf3VAJ2na/7/YjBkqk73KKunD4yHPaTSd0205P+QALxr4pmpxuW/fd0usfBGgbyyPOaTr78KvqDTJfId8HfVh8P0i1/x/Y3e4+Wx5jkmtgem7TRD8Pu0/6o1wHsKLZNeY9LcFd2P/b9zxZf4uOJqJXPYgMdjvKLAN/8gsb8PdoujUuSPneIP+Br6khugX2pTdo0hbPxS51/SnZgDOVFPxqYkZ0vqQ1sCA7ajyQCcOQnbQx+kn+lDTd1eI+2Fl/5AVMWUiK6JYFPwYFIR2QGfgwCGiAb0NYjeoFT1M4OaRlWUMSwZJZ6k7aXh8qIXtPJ/kdhVQGOC0aqGpqs6tgTe9BRNsp2CstlOz9e0n3ersKzEcLTKR0tH/Z7yMOqV98pcfS/VKtSMV+UsWAZjUeDHWi1rOpY+D2XFzjhhmdaMAOssBOHoVdseIYZ74HoF7WBEz/TtKO8MUhip4pteGEFCdvKztRMFAZdsJf5Q1rCVrqZwWW/aiKdVFnwyXihQ7f1c/BmA4wib/1MmRykADqE7aC8sqlkEbtHEJfbMWTg97n0iuj5yT496dpMoZ1lcEBHsHmb4ZSOXjwablOTZEadI+0CtCf5BsgD3PqAs1uZ7OyK7TvYit6iJDY4xr4tViPvIY/YgNrSlAz6mN5E/kFb21JHRh3iIfVq2uyT4urX+cmv6FE3EFJtH7SlPPSofR5X1vLDI/UwEsqYDbzoAQv8uRncJIMo64tjENqvbAUamT/p60sHy7ruyFnrCm246vfhd8L7dX1+W0/QY8fj9zIoq9JkhjJdtrickAZ+M7xAAzZXwL1kc5PaI/Sd2nJnj+ifdPsqYgA7gv9QWAV8ZeuzDQogYvY73cen4wNeyWi0x1F+MWOqfwAMuE1on6H63Dh5MRHfYpVR/zIhLvlsGnRh/Iv0jaodwO54/KV3kujJjftLOu5WN7HCntpJ7DfZXyjawp+5AHbiDzkdtM04lkr9qKF3x29vR+BTNArbqShNI7+8QF1ISwxMpSeXaCwwXNuYODOeIU8ggMYj9SCf6vy7rKgDzlE5BDn5CjTDXv6uIWE2Lnf6IffKP4MdaJUyZCmvNklAl3SqGIxrojqAQkAJ2hY/Loc0YBixjqeHKfoIVuGQYC/aWavsQ5eT8YJtoENH/SV7bVWOcqADuhs5/jXs+w4DNgf8TKWgK7Zs0uUWemgNDsNgVWaqoq7yzksIxwsrs+h+jF2ogUcJa9AWOSEPcAGvpXdokAY+4n1ugyX7jiKOv4p1pNhBn+AFFJF/DP8oU/kFVrA98YPl99fE/oAtyuO+Uk3/GHqAj71EOYr12vo4EzAdsG3jQ+AbsKWvGGx0WEC2Ut1FJrOHqKsapKAdw/bDfZq/r79/FnFO85iqJ+nSlG3dgl+xsVZmm2Z5x/3I/gZ1V+yzx1q1ryIG0CX8h/I/s4f04vAzesi7GozNWEmSe/A16ONbew6BhVpZAP+wDV0p0ipYSFbk0wEhEqXPDVhAjgrNDF/QSX4hh9KDpNs06MIEPpI/XrTrhh8IckDmZMUo0JJAG2071pFdgY7GA89KtNUkZ7NtZhXdjQe3IPBRMxzJ7JrugMxADwajjQj6bqVxJL33jJbLJS2Xn6g96jBc25gCURi4qi9vPJWyMnCDc0QDRZ1gvPALWQQXXt34hJal9z4KxWuPet6VU6xltM/hzKodFWRjWV+F745U5Mxo6bL2PRqbBudUoS2DNDhMlI821X1vZuR3dybjBdlgL9BjFbcANO8j7mxzScun6h0nlBtLx8oPfsSOIg56+T1ZUbO67+5zHJPy3b57+/5ZrV2MlDlrP5ox8IO2pQYewF5nB36SZsu3eLVpAzYIzKE7zcfYaxlMVPTVzbzqQzQsj7qiVhqvoA7YnrUpTZqvrbwZ1rrAin64IzEgh66meg29a/8BfcJn2MJqpVoN/OAbEPgAhzhYCfyKHZTqtnWV71FXpG3yQQcyuA0ySd1oH5AbWA70BU1dGh6m3IJfzV+1PK+6fh767iU9lfdLwDv0B9kMIVMXsEz9V97OBOsiBtBlwf/M3qb523y6pd7CaXgq3aKeUZiAwBA20HtpQmQgDVXwL3gT/6kTU/wn46tJyTXss9QmbRrulQ6701efmffAwKfKV+wXezuCHGIHwhtfQP8Vm9N5C9i1aQ/hrYnfvev1D3zgkIrGF40zMbyCEYnqS2my3BnppQ4PhovGYxsaGgscnL3n2mtl0ThCWZEXdQrnhQu9hczyPjyzUSDYPyphVMvMy7/Pw6EFKFd1ylrW37X3sgMHoaXLDgU+yFvDsKALtRyf6n7EihrkLjr8AnAhv9hss7zeRmV1HO4DRnCUwwGKkR9YD7SxeAR1QabuEXBHO6jl088NL13SeJlj51Kqs8BPC+sszZYv8QpZbBrKVmwQmIt9g874X9F3U2+6fsujrquUNkUPpfKaPvAIesqw5uAqbkVO2yDsHrK06mqlaX5a1+AV9XFe+HTr+zUdrOTFPKIj8Q2Bjui9r0t8wZTBkq6ae5ijBW3yQHp7j/D2YpIFNieBD8pAzoCd8AYsGzS5gpIuk4pXvAG/wk+JjtrqXGkHPR4lnSp6pi5gWbZD2KMKFIoYoE7lm5CPeZ39hLbe4U9CjNlG3PMqfDUxgVxjsRnQIXgWGwZ98xvyle0PttS3je+DrY7G11TV36Y00zWuUpreIqZ0yLqQVTe0c5Oe2RbL8TX9sfgOHJgFLbQvPC/8ZhiD/0bby8oU6N7RR2se+KAjaSgfDks586YjtsaiZk37WX5e7eE//g6LfdEUxhg7NthVv5UjPAdPiaOolbXOEfcjGgsq51/MyCYnvCmHq/MOXoOH4fLiiFnW78PLs1WnrOnepBUfDQhmm/WpaLm+dYn24DvNGQdQSr/WJlUR2SK0EVbzsOLDq3ooB7ztvaKTXhpbhL2CTpp5wp3Wrw1Oa2QMLzyAk3fcRsgsA8WSrRb4AUZJ2wy8ZWm2fM5rlMqmDXR6F8Yc+7+VHUVmuqukbXajAsujLpCnTdNDXl5Tx0qHBOUW60vyw/UJpoSbgRvoXWMLfbZ9ATDH4A/3suIjAUqg3eGg6ynVPcBuSEZdqDsrBZvTfWV4poODWB46bfS/XInVZVbxig/Ab9Uvqd0g3ew9+m6exX9l3k+C/jTWii9T1yCWqmh3WcQAulS+CfnCqqC0MbVKaEkn91IeW8CTVHUzBZsBHaLOks9UNbbtIMV/Mr66HrmGfZbaZDutXx18qk6TRRCb8ilVVS7ackD/FZvTNAsYt2kP6EzTvoPXax74wHCU48iUCENVxl8wIilm0prGhS1seBekumrD1AOvvHd3/zFtbih+usprDdHKGOXJ3w2IaemefpEuXIzNZ8vhXgWcySlsSA+/MljBjBVkKTf06OTZaePF2dKea8xElg43KNkC6kUasK502MJ3mU8tJexDD1x0en8d8drQp+pkGdVpMXrfrrHJWAx6LPGp6sTAAJ13Yf+3DDy7Qc+fw6AANgr8oMfIwbQr0IEexpSGrsDLRJnR7vRgTqot8FPFutSR2PKWV6mosKIb8+btuGTfmtaI65YcKC72AH1EnnL/YdOm6gHly1t3pO1j8GT4RzuLg24IoQ8qQTtAXbAZlbfpo3W+1jX0jvo4L/Ao1QlasU1CDsiV+I+gFz6+/nc8Y4z225Ep1Q367V/Uhbqz3Jk9cI4gF/PQfQNKywycK34UFRhd4vGFf8Fvgo+i2kzHxAB4hywj+xvINDUggX13bEKXaH/Kx4hMMUCJL/4rGe0lZB7y8Ydfms9BaEIWG8VXwn8oAyxKaZos8olsKlH63ICF5NWn7qn8oy6hU+hYF4KMrfYa8gumzBv6xrIf0zV015BD9+fIJHR1m0Ki+QUdjTGelfD0d3wMgOntegc+ULw2hlS+/g75YCC4L5Uzaegs4lInk+T92svx7/h0XKDT+wHN56WPq9Yaae4cZZCQnOpmTzfCiok5tYyHYHJqi3K4Jdyaz+A4eBnYfoMnxSc6bGBgT9jSW/JUxyOBpT49xWyvgU6nDnCFtsFHb2kLzgo2kJwAyNjIl8lHOE91Akt36txTXjGMi+/p94TMUZ3GJqNa4mArOZnHnusvGMVONLFnkQOzWrBFyFXTW4+BfEOg1J4iszH4LwYhSUZ1Y3mZKnPefiLxQloV61Lnb8tbXmNNxZUGscEx9q1pDV23+NBlkQ8DA9xD76W8SJuqB9DmLSK6zem2rwJrowe0wcRuV/TDOO0yD+60vK1r6F0PWCIeZbrqHR81KBW5krYTaIWPlaaBSqnuFq8xDXWl9GJ6OvkRV2T7cuFjpeJLuFzUaZUmZzO6VDVe7BIDx4QnRRLpST/Zf39lmb3jowPoMe0x9n+2X4i+HG1FYZDwCl2qfhhY6XwSFJh3lZWo8XKkj8fui7HYgK/ETkOtrbTIWLSD7mQ4/o5NOEZcbWGNY4WJ+Op61DVsnvvcR/vh+4zq9DX+zEXXXmEryYmwTEiNqyC7+G3tx0JeGRdCp/ALfPJaWeZJp7ppu1BjitQG9Za9MTajALsjl2sc+MCgdOdT0xoaUcjbaqhZGpxTa08neEBHoByeZgmNq/LCojTSbr8oaKJ+NCQmqJxbtrdUnd0uDbTEe3o0stSdNCzNfOFaOazaXtyksXck2t/+SL7lwUdGHzzqj+jO5AwyCb8lnMBzKU2trpRoJ8eHwn5KOHLgZ87tR7X2VwcYpTr5mXbQKJ/ZJBJUh1qj19FU2x6kEy3IIjKX7Littw0pq3jLLkt6yDKZBwVegMcomVt1FtJAG52c5iZLs+ULvEr5UtoU++ZxJr6zAt8gxNML5JO2kSYnd/ARXd64ypoP3gv8A49Reojl51vvFNp06o/ywTKwLtit1A9cYl2j5GBo8U7BGMxkkgX1MaLoj1r8cZqa2NH1GnsTflSQ1OsNOOi6E41Wb0CzGqTAbuzEhDxPeb+UwEdoT5dH2kNVZ7CDtk4iHhPbY/MbKuabdCJnz0tfJ3Sp+na0KSMTdJd+B6yi6kk+fiQ24MvYacdBK02ziHzy/RpTt+1Hp+Cr69HXNSxmW/Thh1s0Q+AzONbQk5EDYwee2JFTSTmgrnxPUXAYYftF+2nQ7nyi4UPjcsev1zfw+wgcxAAAIABJREFUgSEYB1HTpzgObrh/3Ou+Sp1sL0BBNE7dwM1Xd/uvPj+m5d4hHScvr8HRVgKfYoeJivlXv2wIGgXn2BXhGcTn6R5UXnkxJ7YVv3SerdBM7fgNz3vLlI9uRmeHnj4Lhxro7MK7XjErrRqhEM8I7yX0+3etwjs2ov8aTkynnhZn5+CEK19f5lmiZ/q9Hs5fyQvWi78sz+e0TN61CvLXTokr2aTQzvHp+VrS3tFvygdEZLLwAQ36K+Y1Oy7Y3CQM6noQcbKLEi9TZG7VWUhrYZ2l2fIlXiFQLS2XpWzf4wMf+Lo4oAMPpV8M2Nnf4GVc+B6dv8R/znvd9nT5l3SMb51wB13wW3ngw538Ee0l7Ybtdqof1nyEj13rAET8iZbdXkPvesACHOFH7C94xbfLeprQVdYXoX/T/VBXpFS35a98j7qqdoE6beAjQZ0aoHdVAEusGJbrLeoSWaVOjSUSB35Rtqkzfidz0X9vDQEy2xv72uMX/TggKZ/bdLU9MnuZL631ZUwX3/LCyjp0qXCFj0l44oow+WaDzwpGGV/Wx3O5CdiAr8we1eRbKU2zp2mc6oNK7MqJKpTJUcNXlbGXxm/0qyN4x0v7ulL/1rfbZwdhtUjRzsdW9bydnYQPGPMkcT8hfFzun1Ud8bJkPyGVMVqqU1yLp6NGSn51az5guiaqHOWo35wsXcc45LzeHHtpzdqJxh1jaR6/cwTWFYGafXc+5B1aHMWtSOshIgbJeqBxszhfK/93s6C7GDfrYNO19ngxyb20I+AIvAEE1nfF5w2AdbEqX9PJ3vs0N1sdLkbzMkv3W5l+UDvq9DKrGkULAyXMjoT9wFxWttjd3EHUKBE90x1GYBX7DlssfqC2Lq4NgpD3prbZm+b/1kaxF2T0ptg07NP7mwsq1Is7AjceAQ98rlpFWOXBMvvYU2Cumi9L/2yfHm1/HF84tOlv4h7vHwA785u+D/QmGPQ6HYELIDDZvl/RwaO/iy/pXqDq6y+KgeUNDXxuov+7fiW9gRpvkE1Pbo9vAC6v0hFwBC6MgAc+F4ZwiAD28fLe1Ie0PCp+Om6IyN1N5/25T/X+1XAi3LL2/tDdhcolX0ME7ox93/DAZw1Nx1m+AgTuTHu8AuycpCOwJgh44LMminI2HQFHwBFwBBwBR8ARcAQcAUdgdQQ88FkdOy/pCDgCjoAj4Ag4Ao6AI+AIOAJrgoAHPmuiKGfTEXAEHAFHwBFwBBwBR8ARcARWR8ADn9Wx85KOgCPgCDgCjoAj4Ag4Ao6AI7AmCHjgsyaKcjYdAUfAEXAEHAFHwBFwBBwBR2B1BDzwWR27G1CSvzT8b3R0NvQFT5yoZL8mXrrXx82qE+nMUdL89eH+C8Q79HSv8jVyzpN9gdrCputY4evdltyU+0v5KN1YHUxhLOQFf4MYrkD7jRaBztUXy6v8wHaVXQIX+dhuIU9Hz+qmlq9a+e1JAGa3zpZuj4rGSwI73qDZjfnumuF+kr3BH8D/Qz7V5gP585Mv6XN9MirqEV9g+Lipt+D7Au0xw+JaZYXOxvjwa2QMuIo9XDOf5yd08LkeD11z/Q2or9VeMj00GHsDSR74vAHQL6fKv9DR4qe0sTHG8aAjKQU69pnubNBobR57P6P5zj6dBcG6L6BLoITOrCI1GkiXfyBvhcTKj1G3OMmplKboYCptIgJ/F+gcV6j1GorArqbYrrJL4CJ6g32rPFTSTSnfNYh7E6oAZrfOlm4CuNfNA+z4bgU+fb+i27jykeILrlsXK9Z3wfZYxGJFVlYrNsWHr1bDSqWAq9jDNfKJbzZK3SzBNdbfAOza7SXTQ4O5N5Dkgc8bAP1yqpzSoFbtKIfq4Bn1X9D2fJYEYBL4vD2n+azVOYOvt2g+/wFtbKxb4DOEzwU1Dedx6warF8QNuCQdjMX6gnVYcut+D8xunS2tu2JW4R9+s+VbV6F7iWUm2Rvaasv/Q2YT+Fwiy9dKahI+lrNbhoUV7yL3wLXZN1ykgkbZN1l3gy2iN2AvNxaLHigPfJoGc5MT0VlMmTWf2lGOqSNvVBL4bP4d7Tx4q7HdLdBHPg98UoOD87h1g9UxdpVCkdwBl2bndsE6kgpvwQ0wu3W2dAt0M1kE+Nyp/nxyRasXmGRvaKse+IwDHPq/JUHgOKHH5YLdNfuGcaQm53qTdTeZfQP2cmOx6IG6BYHPKR3tLcKqQ9iCNd+mxbMDOpFXX1qKL6RppZ0e0YudLZp1W7FmNN9e0J7eY5wsZf6ejl48oq2Z4sO8/9LDzislS9rZute9J9O9L5PxzDlDh8CDleOXtND5ZStZqKs5oIGMUztKdEjt4AqBDvab435j8zHtv3hIs1pA0+F8j+4v9+nF9lsjV3wgC3eSv6HDxf2gmx/RzsGr0PwZ3+e02N5s46v1LLZCdH5yQM8W2zRPMN6k7cVefJ8KZXWeRAcjeeg4Pqezoz3F7z3aevQrOnm1R9tsSwndIGLhJ+N7tkU7S90O+kJZvk4GI18yS/Q1nR59puzV5g3M8P7mZ4/Ttrgxrc3MtnZoeXBCUR3Qt+rkgb10biYP0jPdfE+ne2yPihZwzHhnvh/Ts4SXkJm/7p7YRyMv6Ce/BdtgXtkHJP5Ctb/D/0UHy53oWzY2afvJvvJxqOCCtgTsGNuxvs/6p/kjOsB7h4xrwncLqxyX3B56OXMbZpt8TgcnrwFE+B3TP3BWixv71RrNko+o5L2wrRhxulvYu/bnq9hKiTZDMbYdl3Ab8F0Gj9nWR7R/ckx7if+HfGinkC30dV27DkGSttfoNIiIbWlEH6vKHx4f0FL6+r49Pim1/wps5cfWrlr45PYvYwPxCw0sAgN524Atq/6rxCy2atX6m4BV38+DDzM2MPrd6Py/8aMK86NEZ42ti2NtMqNt+cQWaG1L9hp2xyCN0QnsNaXTxGmsfWIMyK80jO4DtHIhv+YtnWBge0nsvuH3VmlXUcdjfbHm/2qu1zzwOVUDX61YvtbvncAwtUED0EIaGs/8PdouBRuz+7Q4PA0EYFib9GD7nTAI17zco63FV/L+C1GL5w2abT2hQwwaYPSzn9DWOypI0gM6XNecVcclZNQdJeRv/UI249ySIqAdsY2BDw+e9mlnPiu8hBvKdXz/3nR8SQXmBvXdo3e2fqLwBo8tfGc0f/giDhahZzWAPjt8ogaXWo/99ez+ko7ZWaMs8Odf0cEEHnjAdfDIBFnBfh886HkRugYKuT2nOt9a5lY+I58KfObgQ8u6YWz17KuBwPw9Wh5jUAq7GtNmoO9oX4K90lsS0FR1Uwl8mrxv0sO94xiINfPq4FuUYy5atsE64ImA34b6gBO2gvY6wsEiqY/jai7BloDdFN9n/RP00sRqil/UOhiw4fn7tCfBTwvrtH+otx8eAKtAjjFu+Qhdf1P+MbZiTEdu0Sa0P59qK0IsvWjyzD5Ot+OJ9nbW9wXRfoM9i61hQAb50OYhm7b/VuDT0rvxW7D3sC07423jYnoa79vbPEe/0MBiyDbZZ6P/SrUe7l7T8fK9ykQlAgbgAT7Q7xJR03ZQTvWd8BOaF+hDpzXpGpvMyls+IYe2JXsNuxurE9hrSqce+LTpFseAG2P7AA0mX0N+zVtsZ01floxzmdYEvjM9tMpqX2z5v5r79Q58AO78IS1lFYZnWJb9rLMMGGGYMGgNZiENdHmgN98mmfU5P6H9R2H1RxqmNiw9C/uaTvY/CoNoOAfVUfBs/Auc/sE8Y0Zd86ho6w61Yx9poK1lsteQURt/5VowYxpDdZyqFa7IRxL4nAdHk9CNtFPngAZp+df3WhY9IOrzSN1ab90k5j496VaA1MASes50uUnby0MVrJZ0GWWwB0xM4kEGA8Z25N0pHVBpHNT1+W9peZ8DY55NX4ZVKdUOpPOGPsfIp3Fmur+Q2fTzk1/Ro25CALaKvLr+oI8sr8aNbVDzouxJBliR9ubisA8IMr0V8hRtt5QPHWEqYz+zFd5fK/AScWZ5Tulo+bALXnt7Vrqxl+A98Vn9LHvTtyT+ItYXg20eeGBgeQFbAn9TfV/mn17Rwc6PwsmPj+iF+GelY3Uwy/nxku53K+XGHgKuEnxgVtquePGM8JN+lVYGd5AlwVq1C/FJlXZxdkjLzmcovzS6/mhrK9uKtR25B+1S4MP+QvctFVsRWvoCdEe240n2BntI29n5Cfwy+wLgHPmQNq8mYuKz0iB6Yh8LG+kmcpSdiu41xhqrEddT8AEfia3W/EIJH+anYse8upCNRSr8Bz4yPwa7z/pK9PuRp0F7h6xCS/GSpdXo8sKk7YdK9gBMwKeqS1+eH9PeQ+wQCUEaeBmlk1LdXIGtf6J9SvnLaddJ2xH7vEdbO5/F3SxnapeT6Ggi38AO5XGfYFnyxVopV3d9CwOfElix8SSK77IW0qAkGTAqmjLIREOCYZeiVsygYICIvGr2Q5NG5591yCivMkuDAB86zV5Dxkqwo2fypW6mAX6HyqWztzLwD0bf36NTC7x1GOMZ6sG95V/fK1nQqCQZg9gKJtZ5Q88ZHSGoLko84pmubwoPkKVkO9rRPKS9U7snILImeCcz05wO+xvTeUMW6AC82Rnvvl4ZqA5iF+nEzhR1qSBUxAHPsHmUx32pgynkEdvVuinkszYhfAQ5jxa0KVvjYvm0czeFVr2FPUobBE5KdqGNNMineFMnLAYp4qqi0BZC6QV4mOj7Mr8KOplNcnXQMewSbabQDsTf9nbZ23oJD6YLOgET4UFPjKXi9nfAUgddpXxE4+v/s2yrvHxbga6BH/MKGUrYIA22Upat/dTWifuCzvTKI+xNdKFXz0KNMgCzvkfLEutLbA10xQ9B1pF9LMqrIFxwQJrQlpQRF5FffeJpX3C8b+/ygw9gWQsCm1wBF2BcyxzySV2B48QP8jPQg00peWXyrVIH5Cnh2krLyKFO1Q6y8pbPjAiRCnJ5Ii5Z4S9k7x6hHo0TniVy2fpxP9I+BWfdFsAUaEEHeG5/gZOmEZ/l9skBNyZTYS+oayTfFgvcJ4GP5fP67tc78BGjiANz3hP+dPl5jF47LKOSE6dZS4OSEgOGUtC5WoMoGx8Gpd2gD4Ms3VhAtvuFcYEW7lGXzow05NVp9hryKwdhsxTvUUfEN90KwLN3Zv8ut5nOSW7QBvALcseBb+BHcEA9QU7grwMynpHrvlnRkAX4mnIpz2oFBfWAzwQD3o/6jJbLJS2Xn6j3W7QuwLfSwSQe/hyOJNc0FRPgT3BSaXLZwEPylC6G5ANd7SwVHciZ8cazOJ8H3Jb0VO2Zj/ov4KZJB/tJ9a34AC6itxKvpTryfGKrAzYjvKNuyc+zZZ/QUvbgK0GGLnk/fGdfS1o+Ve/vCKYlGUDUplm/hHzhF3wLbZOOW+QTbJHAv7YO8JDbL3AV3DQZvk7qqdNJi6H+mj/Cc/ADunjO25xa/UPM162aPH1m3uecWD9kvAxbSYCAHcMnciJkVb5IyrTSJJO5GGrHwAJYm+KQPdhb2x7AH2hBPtXma4N91AN7rfol8Ie6Ak62PLLxbytN5yteT8MnITHoF0r4JBSY+RH9ly3D96ANXfAzyKJty+DI2YDXkL0jH3Sm2WilcUA91Ldk5Qt86vr0Nrpsa5fKOKgTJX8il6l/qn1eSruGTnV7gk61npW8YgehzFS+q3qIPrbsizUPV3e95oEPb+9Qy3LS4BhcvVxfUjxALaRlSkNe/rX5jWHrrHytaf1x6GV1S8vea+KtNJ2Pr8Gz7ihtntL9lDpieXRyEvjAccqgq6cbB0WoJzRCYJboE7xDFt2IQ91onKZcFvhgdg/1aEeVzP7ERhppaEcBvlWHMImH37XfbQItwS1iHK/gwIBPTClejZavgXNH2MquttRU8M/0XZMr0UuBjySdmSnkKXYYeT6x1QrPonexEe58sS3V2sfwigHzKltxa3UKLhZjrVGbhnttnyr/KFsy/ipbZLT4oU5l/12VyNewSa3D7w9psclH4ld4FzGirYteihgq3zCqf+AK9BY8o1eZpZxa/0VtRQQ3FyV8a7rgoq00Q1pt26xh3Ldj0KzoLLE3vFtXswfgClqQT+mx2MYL9gq7kjZk5QPfVx34oB7IZPhI8OGGNsUvlPAJ9Ef7d8OPvg0YypZR8Co+kDNDPt32R9o7dJTQCwwU0yb0LVn5Ep99XXGrHE+G6ve2AcYUnRRssSNj6gd/Y+2ziDP4M7TxOPst2QvKVuzTtrepfCO/1vFoX5wJcOkP1j/wEUgww6FPlYLjLCkeBQtpJaUhOwbx0knDgLQDkMyy+tF1FnAg12r0zAtkrHU8kd/0qi1bmjfeyWBSGX3/LDSyDl/d4FCPfhbppVeQBbpVqYP4qrx8afUsy7uYGebVHv7jFcTSAQzgW+l+Eg+2w6/wV7UXzg88Ruh2knygW8C5qzYMVjve/hJeig37kJ8CN54xfxW2/Gj+Crgp0WE//QCrwIfVm2CgeS3VkdNK61JMjLnELGBywpuyhQIN2SK4EVaKsOLDK0aQS/RdkgFEbdpl2FKhTaC67tfWYXmImQdxhaydjwCdofZv64/1DV+1+gddmgc7vGL5VJ2yiNXrC9S/gq1ortJr2PHYNgV827aptyD2K16tdjyABfQbbLltD+AP+od8uj2XnhXsddD/oq6ABfhUfZVg3UqTTLWLifhgm/sov1DBYpJ/r/HNz8E7Y/TnsE0WukE5gyMe47dl7y1cs7S4LXbYJgv2UAkczk9e0MPu+4O8lVsfiAIBiKb56lLdTMvgNNU+bfnIXk47SdM3JXuBjq1eUc6Umcp3pkfQ5d+xvliXudzrWxT4pMDA0farDlCi7iiQP750KdvgoDR5qRl5eZyJvY/oRGDYY95XQN6ysUlDW2ngo3jMLlvyZ5nVA/ALWVVS4zLFPmQMDWe2/YJ+x0cKi4ycjnrKuKRVQRbdKSIH6JR0gTzqF3oOnR74jisTKm+2D53TUJ/GB8/G8BBlKe2zBT/JC+yKJVxKvsL7FJK2uaDDQ35fpdQG9Ivx0AF4K58EJLbK2GHGPtEpuEP70vUCI9SFvPyLjg76BR+4L3UwhTxF3RTywQZKbV2zNXiNjkTxmZVBnpLcpX3/wEnbF4jatCjbRWxJJgNKeFR9X4E/wbX0fhp0DJsALqX3RWLa5uJr+mN3HHnZJoHMmF/dLuJxq4WS6PC7VWK8t3PR+rVM4cCOQtX1R9A18OOc1h506VaaygdZR7Vj8FDSmdruDFqwh4KPItQrk4mRtvTJxcmNki+ArKU2pgazlq9LD3yiDMPtsbXlueQXIu2IT8R8fP+ldG8u+/Yxo/mHv6AFH5wDvCQfcC60fcmDC2PvsIWMppIV+oBtZHmZdqFvAW2UL7SLMUFPDP5KdqT41HxldTOPFifcl+gW7DMrD0xLtHWavi7ZC55pH6LKiK8HnxP5LmKh6KvL0b5Ylbno5VoHPgBstqVOY2FE5PS1OAhBXp41eLQfvhOiTgLirXHiRKC07KSXuK1OloHFMAunbuCbPjKI0A1Gn7yjl4h1RwJjKzkXpMEwW6YwYOTVoqijVH+1kKxyxa1unDc4v/Cx0tQ5o54psih9CSs1fHubkO+JwClCz+FebES2tjBh+z0IzWOJ74k8wLHzTB9/u6fbXmSW2LVzFVnVhTgpvb0zP/Xme7x7NUq+aDN8lGo89UXbagjuRIZ0q5f9PkDUOXDr24y0R73NRrWZ5KhqFtvoLa56aZtAHVpfkEnnU52n8SORf+RHB67x6PUQt0202grKp3rqvpuiv3Uj+oYMJZqFNNHDBWwJ2E7yfSX+arjqLWXxRVkJpJNT/gqnUckEhNWBbqc9P2jPg/0DcEtOQ2O9qvrhM0bX/yq8v2f51O2yhJtq19VL2LEetBTsQcq30iQTxQBkZDsGbqN8F2yfV9P52z3haPtkaxbaKuRDu2Me8UzLXPYFcoR0ok/tt1QfC3uHfhUcuZ/RiSOuR+ODwGesXyhjAXvfGOXfB/gX3vttn9F3o5y1Keh3hL0Lbe2nuP2GUzR5+yr0IXlH2mSmT8Mn0rmOykpPLyHkGasTZYviv5mSqT85+OOyxoBDfqRsL/EUUKMzvSVNJipq45px7Qq2OeiLYV5X/LvWgY+O+Iv7kbVhy+DQ7N+ebdGHH/IR1crJonHM36EtLIfqveSarhj2nLa25vGDmZLfnhLSOs/cfGNAaJcMGw0zyJM0Nms10fCLOAmvgRacTrN+W0e8h5GL8wpJ8jw7MQrOAR1fpJVfQRalryRTG99kLy/0nMlrbCTBR/NY08EEHtgRFr8LMiP5fk5Tt73wceCY8x6/CwCc8zzRLiBfxHm+9U75O0PyTSTkbdHVAxbwUfuOj24zoK30nemtkAeBNnTXYYh3DRQthk+/4Ir86jfip1fGSrLqbyYlRhlvwLuiH7EPNEXfwKnU/ktpl2BL4G+S7yvxN4RrehJkXOkr4arz1mREOZ03Bl8Zxoy/+HHVqRf1ktpjub0W6pcgCWn6N7UV8Y2i+2gy+RXsvdSmSroo2UpOVQcXRbwCNnEQXNNFxXfV2tngd3x6XgWjjo/gp2Cv4sM5b9v/Ju25WD5gU0gTHkbqqWwrBXxQV9H+gt2oOoUPjYX019rO7DX8e0n/+pnu20plCjY12t7jim9qZ/do68P3+0+AiD6jrad5U7nEJoGjlDd8Ir2FM3ZFjMmrdBInDnreep5M/R3EE+xTdHqRdh1XA3sMoc9a+w3YZu89TeAb2IkexvpibYNXd73mgU+Yyc++Fj/uK9p99Il3ENRgSCnt8Fh/Z4Dp2q8fK8PmL+uGb0n0hysszKlAUKSenQxGxl9tf3YQP67ZZVW0j/6CwvE3mS0rNQxkHec8xLGIsQ7UD/LmV5yy0AkZMHtjn0vjRoM0BJNbyKL0laTzDeP7PN2jX/oasdKzbHfhvcnJOxs84/OYlnuHdIxtNt3pcqHSqg5G8hDIpN+zaH3dOxNWHuRf7C7Y62j5NM4v6VjPxrGtZqeY8b7dRf/9LHQqnI/fjzp+Qdv8jRbpJLRd/V6+gcP2l80IyUyv0nemN82r2jqU6QZblRQtoFf6MnixTfKM/QE9S2yEB9Gl9gvi+pdnyPYKtrmkvaPfmMMuNE62/dfTLmRLCttJvq/kn1hsxlWvZpW+5C7wFNpM0dZKOujb6bODsJoPmiW9lnxB0WdUaHZiWRso5x1rK+IzpY1AgNIv7P2yAx+ua0o77nmbZG/JLgus/hwbu4d8tp3ql9xDmrJX8eEdWyP72Gp5NYOv+qtpepqCzxS/EPSEb1zpSdvR/r3nrfk/sJFZf5277H/G2ntmZ1idQ50K8ywv9y+1viUrb/hEOvqoym8ftEzVCecP35Bkup0Mpn6BcKR9ytioNL6r0ZZK1EWh7YRU1tlSnb7afVtv8Vy+26eIFHbAVPo+4Kz1ONoXpzVexd36Bz5XgUpJadV6phhflYgnOAI3DIHa4OOGsensXC4Ck3zf5Vbt1ByBdUCgC370gG4dmHYeHQFHQBDwwEegUBeTOn8PfBRyfnlrEPDA59aocoogk3zfFMKe1xG4DQj0231+oFf9b4NYLoMjcIcQ8MCnpOxJnb8HPiUI/dm6I+CBz7prcCX+J/m+lWrwQo7A+iJwtk+Ptj+OhzOsryTOuSNwZxHwwKek+kmdvwc+JQj92boj4IHPumtwJf4n+b6VavBCjoAj4Ag4Ao7AG0PAA583Br1X7Ag4Ao6AI+AIOAKOgCPgCDgC14WABz7XhbTX4wg4Ao6AI+AIOAKOgCPgCDgCbwwBD3zeGPResSPgCDgCjoAj4Ag4Ao6AI+AIXBcCHvhcF9JejyPgCDgCjoAj4Ag4Ao6AI+AIvDEEPPC5EPQ42GDMhzcvVNGlFJaPr1U+2iUfMA3p8jXk0bVPfCHeX6Q2yAK/9KvUiV74Q29PP6ejs3NTdp1u9VfBS7Leo62dfy58/DfiM902bxI+8Bulj9LdJD6vi5eJeuUP4X1+RGfXxd6NqYc/evhva972rwrMK8Lm7Ihe6I87+vd7ygqs9OXnJ1/S50ensUwlX8wwcHXR8gPk8+SJvikn0D3JcKjk88fXg4AHPhfCGQMYD3x6GOEk7Be3KyBfuxOr8HFjHgO/UjBgnhW/pn1jBBlgZCjwgaw/op2DV4pWxMcDHwXL2l9O0Ov5IS02Z+Gr6Gsv+AQB0GY8WM5BuypsXtHBzo9ITzytt9/Jkbu0J4W+vJ9oNWOBQr5JPFy0/KTKOPME31ShXcShktcfXw8CHvhcCOf1CnxKomIV6HIcOpyEcXalivnZtTuxGiM35fkwfucn+/Rke5M2NkZifFNES/jAQKUiA8/oP9mmOa88JjOswGeDLsdeE6au8QZ+wwexPegT9HpnfYbbTL2BXhE2CLJn79Hy+HW9ek8p9OVo0xUfvypm197+IceqfQ7KXzIOq+Ln5ToEPPC5kCHA4a7Hik9JVA98Sqi8qWcjneS1O//LxmMg8OmqQ9vSwQHwWbUTumw5VqVXkm1VWreh3AS9rr3tr6ovt5k6cleEjQQ+D2nvdJ23FteRu7SUrF2iTV/ygD+r59IkqBCCHKv2OSh/yThUuPXH4xC4BYHPKR3tLWh7PotL0vNtWjw7oBPxVS3jq6ednxzQs0WYeebZZ36/YqnpwuFy4HNMJwe/UHxs0vaTfcVDWyFZXd17Npu0vdjL93SfHdGe5mtjRvPtx/Ts4IRE5HZ1kjo28BnHn8byazo9+ox2tu71esmwa6348H7t57ToVjbCtqdMpxChkJex4/x7+j0A6EoPpEGjlYY8+pfrXEbZUF9ic1G+2fYLOj58QlszlmVG8539yvsJGr/Dui4rHTLraKn3o2+w/TyngxPMVgY5Z6WOnIORv6PF0V+0oN11byMxuM9twdbDxVRdxy9pATvotuj9mY4WPx1YtVLlZdABfCZ0Qrx69OyxapdI/YG7AAAgAElEQVT8/tBSYRLEzfIFXW0v0neNVMd7eGzwnm/Tk1FtUNvb7+noxaNgGxs029qhZZFGwc6rbcKqELiVOt9K2hQfk2HX8kfGX8+26NH+Mb3ae0izjZZewSe2Qfa/ycof87HcESy7tjbVL2ayWHsBH9wefkOHi/sd3xsbelvmFF0V8sKfwH/B5ro+Ichv2vC4NmntAveqrWVtte9RxtEHNmxnxv93vqjQl/FmokG/xXxWeNSY4FpjM8WOAQdhYia1tY2O7u9pb/st6q4rWNEoO9RYHdL3J7+iR/CR3Fe+CH0X08LqN7ePrUf0Qr8zIzzrC+1fTulk/yNpE7p83D3AcrKdf6bGGil/6biikAYb7VboUb/GL/QfST7mWdMaYTNZ+SB31m5bPkhjpa8n+KasPpaV69T9RQOHrtoRbV+z59eXhsCaBz6nquPRjSwYoQwwdeOyA8pS2jmdyUC1QPfhixDQwLDv0db2e/3WHDjf7rc1yIUOW3X1dc/uL+kYnufsqziITOrivLrzBf3273DgM4W/iOX8wQNxtske6a0ndIgX84tObECngj3L1crLeNyj+8vfhgACurpo4NOuc1aQb/bOFr3TBT3MU2nwCR1F/DYX1k6RJwZUcRvYgI5m92lx2L9gaoMYoRqCqWQg2SWGfe5dp/99o11wsPk+7WVB1k9o650Q/LK9dh0jBhYVLFRnn/IDfFoDZJGIqNVWNK+tfMyz3uoCm317TnPRad9Oezsf0wZhi5v0YPudMHDWNO7R1uIrFRy3bG5G86RNKPnlEriV8C6kNfEw8jXzbtLDvWMVwOfvTPSYRRxSfYsAaoCkcVJ20OTD4qnpqusWDbEX4HWP3tn6idId/MoUXbXyspzBf8HmtL+Xwf1A2xe+lZzZZbDHWamtTqEPbGY0yv/TAG3lt2LgY3jUmOAa2LT02ewr4Z9SW0sDH8MHtuQ269R2qLDa/gc1MYM636LtF1/S3kPe1oxn4Xfw/c7oX7Z3HuTjktlDenH4GT3Uk8VdHXq8EvnL+6JCGmz0AoHPKJtJ6gmG3MTc+qDM+MODCb6pWZ/uL6AHrT9MII5s+zV2/fmFEFjvwAeNYP6QljILck5nR8vekcABJrMKdkBZaMTnv6XlfR6scQS/DLMgiq44TWXYepaGXtPJ3vu9wxEeanoCjU3aXh6qwc5rNVODTjXyGvliuqd0tHzY1VcfOJTrHw58VuGPG7rFDqs/KhiB/tBp8PDmaEGb7ITN7HmcnSqUT/TfTSHS/qOtflAitCEHsNR4tNJ0vnM6O3gU9Kpm5bgDl9UtNbiEfIzF4OCU64n6zTubPr1Yz9k+7XSdmJm10ycSAYdKgCO4W3vtZAgyYaWJZ2/1aqYOVCRIB6Y2IGI5KgOLpIPX9gMdAB814EVS9vuajpfv9Tag7ePskJbhHal+5Q008/rOZRa2pFMz+yp0x/CmsGEspd2fxtUfFWyJbsa0iQwHfhBlzO3KpsX7YR8DPTJ2v1CraDyTGVa/RQ7VdrQcynZ4gDfov9CmYM+dvHHQome0O78oq2mldq/Bmmov7OPyQdUkXUEWbZ+duk7G+69JbVLLq6+VPdpAaRJ92A78f7SJYlua4rew4tP1DXqCheUA/1rH4MW26wl9JWRPfCLqKvm1KXYI/hire7T16FdhMjWOHWbzOc3VCk/EEINnrUN9rXjsVlTDTpDz4xBI/YDm8021wqPGGiIr+FO+T6oopMGWpV0W8nD5ar6RNpOVn+KDRABzMcU3RblS/8grl1i105jF/InvhRyj2r5h128vjMAtDHxKmFSMr8uap8XO6xEdYHWiyxs7x76DhoPRho76kaadMdLG/oIGHF3k1Ta6sRRtPsg6OOCwBbv7Gn8blKxShbLnx0u6z7PkcI5o/LiXAXEFM3REkr/IVP8QtMWRg9cS7VaargP5zKy3lQ91goeNUp2aLq6hX+4E2n9xZQll9Gwd6PGYF0G8sSHw2GXtO4/Zgw/pw823aXvvD4EAaPf897ZSsnXOjg4IsgKrUn7kbcu4YTsFGcCPGCDDVmSSImIidphgENPjFeRX9bV0irRB+wQ2KoiXSuFjgBuwAq6Ssb+AnM06IQdoaho2Ld4P+piBulN7gcyltqMGjNt7pA6/1Yz21yWM8aw4Ew48lQ5zqkSQZdBevqfTsC1P/JjQuwxdBWKQSWwU+KV2kGIsjISLAX4kO2jn9jGNPmyHgwLbdxJJu+tsFXnH+q06j9MCHxF6+AI2ITrgIg0+oLOC7ETWDiG/6g/BEerN+g2UyfWEov1vncden4U6RS7YV6uuQhpkFz9UyMPMVfONsZlCeWAl9aZItO0XeYHXBX1TsX+q4ICqS7/AKLG7UkZ/tioC6x34SGONAyjeI/90ab9z0jI+m4b7gY6yQxwNBoNKrYZWms6nr3mP6TNaLpe0XH6i3iFR9NEoZGDMs/yf0BL7wTW5EddwhOMCnyH+gF3FMcNJoUFDFjgtpItsUa9JIIDyWj7ey93htqTlU7XPX/JCH3DsunArTeUDf0JTpXWXhg7kq+a35YFfRe5uttO+v4bBjbKRhCxoKp10fKn8nVwc8Pyue/cm2kIvT3+Pehq8dXoDXWCBe80UaCmedDKvmGYrBpwBsoxom5Ox7+mfHX0e2t+Snqr3pQQT0IXNar5baTqf+K2SLcZVz65O2NwqbULqBG4lvAtpkEPqLPsY+I6kbUqZaCeJHMW2AB4m6FXhDz5ERyJ3uIA8qozNIgOyIn86d4PXi+hqJf+FdhSxLuui1Aa1TLW2OpU+sCnZGTffcBR5hzHe86vxZmnVeGQ5kGbaE/QuNlm2Y41Ecp3wi73mqCvne5odWvlUzcV6Ob1RRhWv4sEUwo6KvK1ALmDYqquQBqyljRXyMI9j80Eei4UpD3nKdh/bRS4vKrB2CT0jHXKUfBPv9BjoL8bobLDtgxf/vSwE1jzwISK9nUccHBu8XuKG8ZYcsk2Lzr7ZWDoNwFnkTjA6n1KaUZ/aJlNuwJqG3lYVG3ZfTm+bMXVUbuE4mrKO5g9Yan51xcArOFfjxKRjTPRoZeT76JxlW2OtjAxkTN2arVrHmeRRTlto2gymDiufzZ7dA7+SnWaZwwPUWcO8RLO38V7nYZm/kynMZkO+jn/Qje2ibKPQE3gHX9CV5h+0kFen4RrbD3QeyFLqhFCu/4Vd9/vybWeW5tVbRWuySfto6bSVllQZsAHOSZqyMx5EfB8GizX7luclnEEYuGksW2njfIxgLDzABswvy/HHPdrm1d6KzKAlOIM9+5thDNkaNpGVsUTjgLDGXyyB+gpYYpA2hMel+S+0I4N3Vn+B1yhQPXCQVdyx9BvYdPVpn/C7/pCADfiXhKHCIF+XtQew1NLG2bGtWe6hz8Rm63VhJbBqw4kdNrAq1stcNcoI03xR4zHaec6jLdOqq5CWyNbgdWw+kcfwZcrDb9T8tjyXgEwIxwvQTPQck1FHxCxulxT6ps3FvAWsOtJsm+GVDFNWaFb4iZz51aoIrH/gI5JjNUKf4ASHXzM+LmzTcN/oSKVONMqS826lCQG1Fak/0ekpVi26Vatwgkytc8BMQXLCW2sApOoNl3mjNnlkq9QY/oAdcLe09IzfeT77U3X4hg54x9a57kSaT2Smvlv9ypwZ9FHCp5Wm6h7kz9ABDy2nq8jntpgkVm4w+CnZIBcp66TTe+dYexsTR93xzLT61Z+4nWeoHsuewSJJBq2KnYS8uW1ClhFtE9gPdh5xC0p3auNTXm3lv2e0d/RKtjWl+JS2ipiApRlrtbAxg5NBm0uArdwAtxLerbR+YqlbSS34mFw/ler5cVMO8DBBr6pNDfIBW1BlMk6RZ9BewGsBy6aMWY1x69fK/gvtqNb28zrLT2r2OJV+AxuuOMFn1RWfFf33Kn1lwi8adA0r025LQMPGOjtsYFWstwMw+KOC7SX1rcKjLdPgr9SnJLI1eB2bD/JYLEz5wbYPOq1fW0eSFzjAN03sL0pYcVOYNHZJGPKbS0DgFgU+KRpoEP3AzRqvzov95dGZSNnCXl1J65wXnEWp42mlxfpBTwZWMYlIXv4s0dcZ+RqdVJTD5ijdN+vnBlpdGudBEV6qB38tnFVjxwDEOLE4U1V698FyD3lRt07HaoGeYW7oQ+QodaqaboOGdmYYPGXyaVqla+A3RYcoA8ds6ErganFiWTbp/uOP6MFMp/Uy9u/7/IDiC5mqHjnAwNSV3AKrEqbQXUvOqMPYNhQPQ++CoDMrvLMhAzCeeT/8khabs8pKBHyDwral01ZaERuNOzKgYwU2wHFMmwAN+9vCDTKiPltW3xu9QV45wEDntdeQo7SPHnQVzrY47lEnfAg/xzO0O+TtfoHnAO2x9nL058bgEzKO0RVkLtlAtP24AgXauj0pvY5qkwkw6qZEm5On0m/nl8FeMvCv6CXzWzUemc9WmhJTLoH9gM3DJhK7atQ1yQ6BVYGHYr1aH4UyIhtf1Hms9+e2DPgr6afgMyC7tEuUN7xW8634XjDojfJBCUjqBrKP8E1V3TA54KIxK+EA+xvb9hWrfnkpCKx14CONWJ180qFyjlNxYqNDXp7VfbSPU070Gfkxb3whXG+XK53agQZTMuBWWtSd8JW8yM3vOOjvxIA+Gow5vYu7KDlRRHeMsZ7aFeqPg8s0J9LTF81r/KGR89YIfVKNXtZVgwI4LeUsy6emdQLGb3R0+YFFqqPsGwrSaSE/r1x9RPvh2OV4WhzzPISdHpDUT3WT7/Rk8qXY5nfAT9linil/IoGbsQu9DTQL4lGXDg6ZdO25DnRNPd07ObBXYAj7x71mG7qoyane8UkCl8hbzV5jLXHAm9iu+IawaiNbydJtovbbIlJfS6ettMiYGpgw9sofqdMZ4xHaNZsrtYmkkuRG2rGuLzlRDbqAbqyOSz5GdfTGB0f8QDdOolRlnnKqm7RrFrPGhzolL7GjBJpwM9JezmGDUa5IbYqugPNY/4X2hL4g1Fpr+8U2GTlNr0C70FYn0Qc2wf/Ld2H0ljPl/2u0i36rwaMM9DU2wHeMHadoyF1xkNviY4odAquCHRXrZa4aZYRpvqjzCD8g/kzK5WWQN2mvRZ+hJh9UX17c+pf5SMg00may8jXM2V/hO2sFjEXu/qIoq/bH8E3QTXIap66L5SgFPvoZbHNs2zfM+u2FEVjrwEd3eLIvUu+X1EdzygxSb5iSf7ZFH37IRx+njUNmpzS9cB1P1IKz0A4XOmmlIQ//Ip/hK6lX0ZfOopR/7LHJsX40+NwRIs8U/uDEat9xMPxlTozrHDjfXn/bAeUTrAwuaoBU0+ls6336sPt4XKHjBwzy2+Yv2kapMxAilYuIX1xpqWRNHk/5HoYqGJx4pvuAa/Z86LsbHOzK92dgNyVM4fiNrjI92hOfgI/uRJQ89rLW5rkesaNIU3xCxoeqDzYnHbyqtJWmssU2H79fk9Ztj0lu21yUJakkvalhUfJ/U3zMwDctkvZQbdsRh9zmUjHial1vO5K/yYe2S0NP39YwKtpL2l9EMhN0BXsp2JvYg/gv02bk+UDbT9pk5DK9arXVKfTRlmY033on/35Mdqz/AG1po8xti8cKNlPsOAWkv8MgV7Ae4oMnh1rf2dN2GLHKfH2xXq67USbhv45Vvb8vlKm1h5LPgC0rv4i6elsOY5gsX5RplM1k5Ycw54lO9e3ABCd9U2u31jeB33bfJX6JtYZPdHTt3OAwqu1rPv36MhBY88AnzHomX2Zngyx9SZ4byBHtqb3q/TcfsI8/78h4xuCZyt/T1V+fhrNQgYlopZUmmfoLw1d/MMNjWu4d0nHhi+Y5X3wUpD3ty9RRuUWj1A01yzqaPzgFxpK/wqxe3ku+cxRqKDmxLoln/J/TovveChxMSac8k7hXyLekvaPfFF6etfkxG4h3qUqD9AwN4qNJ0xW5Cv5V+Uo0+ZnGz35vqlYmPo8zXC3MYv5+e+TfqOOrkca2+ze0OLIvEffpuf3xzNVjenYQVlK7bLD/EqZmoJI5/55eflIh8FGBCFiu/fIMZeIfmLb+ujYXNF/sZn64PfF7dscv0pfyWzptpSX8aWx+L9/g4gFC+h0aXWhsm9BlzLVpxy3/l+u4YuNcRYZxI68+sY9x7lagjulVwc8Z7sOtXj0271oxH0t1omN3wI21yzJVeZrJYu0FNpj3F0Kjk/EK/FdyyEzarnJ9ldpk5DC90vZ4kTavsXlJxziZEe2pcvLoOL81wGMFmxyXlm2mqEiQPSXwYRKj7FBjZXz9TQl8WJaxPqPo+/QhAKG9ZPk0DiNsJisfdJa12wl6FrXrnQYt3zShv+hoF3Dovv03ZewiTPrFJSCw/oHPJYDgJBwBR8ARcAQcAUfgIgjoQawZzF+ErJe9xQi4zdxi5d5Y0TzwubGqccYcAUfAEXAEHIF1QcAHseuiqZvDp9vMzdHF3eHEA5+7o2uX1BFwBBwBR8ARuCIEfBB7RcDeYrJuM7dYuTdWNA98bqxqnDFHwBFwBBwBR2BdEPBB7Lpo6ubw6TZzc3RxdzjxwOfu6NoldQQcAUfAEXAEHAFHwBFwBO4sAh743FnVu+COgCPgCDgCjoAj4Ag4Ao7A3UHAA5+7o2uX1BFwBBwBR8ARcAQcAUfAEbizCHjgc2dV74I7Ao6AI+AIOAKOgCPgCDgCdwcBD3zujq5dUkfAEXAEHAFHwBFwBBwBR+DOIuCBz51VvQvuCDgCjoAj4Ag4Ao6AI+AI3B0EPPC5O7p2SR0BR8ARcAQcAUfAEXAEHIE7i4AHPndW9S64I+AIOAKOgCPgCDgCjoAjcHcQuAWBzykd7S1oez6jjY2N/m++TYtnB3RybhX5mk4OlrSzda+d93SPtmcbtLG5oCNLI0v7A+1tv0Ubs4e0d/ySFqA9f0QHZ6Hw+QkdPHuseLxHWztLOjh5bRhk/p7TYnuzzR+XOjuivcU2zSHzxozm24/p2cEJWZZNJX7rCDgCjoAj4Ag4Ao6AI+AI3DkE1jzwOaXDxX2ayeA/BD7d/YzmO/t0Jipt5d2g2dYTOkSgkgU3QoQoS0Pg8xPaekcFVAiazr6KwZDlc/4+7Unw0+JvRvOHL2Ig16K58SPaOXilGPZLR8ARcAQcAUfAEXAEHAFHwBFY78AHQcj8IS2PToM2z+nsaNmvrvAqzCmvf5zT2cGjfnVktkU7L45CQMR5PwsrQDPaXBz2qyWgi+BF20mWFgIfDmqSQIYLvabj5Xt9YKZ5PDukZbeqE4Oz86MFbXY0tumJWrU5P9mnJ13ee3R/+Vs6p3M63XtIs26FZ0lHCNbolI6WDzsZZ9t7BDQ0637tCDgCjoAj4Ag4Ao6AI+AI3FUEbmHgU1IlgpPyasj58ZLu89Y2BEpZcKNoZmmgrQInZD8/pMUmb8HL603r/DMdLX5KGxs/pcXRX1A6/oJOF4jVAp+Y3a8cAUfAEXAEHAFHwBFwBBwBRyBFYL0DH0LQEbe4zbZ26Onyc7USwgs+IQBBYJNiQCR0QuCRBTeqQJYGHt6i7b0/qIwUt8VV6w3ZwZ/dCmfvQQc8SDq/M/QJLfewkpWy4XeOgCPgCDgCjoAj4Ag4Ao7AXUdgzQOf/iX/Fztbhfd8+GX/sBUMgQICh0zrCF4uEvjkqzWyfa1ab2BkbOAjK0J6i14M+vrDHTZpe3mo3m3KhPUHjoAj4Ag4Ao6AI+AIOAKOwJ1DYP0DH1EZn+72jJZLfXpa2H6GwKIagFxN4CMHIVTrDcwP8idC5hd8uttyScvkhLc8CMsL+hNHwBFwBBwBR8ARcAQcAUfg7iBwiwKfVGmy2tK9F4PAprAdjXfC1d7xyQIWdUiCHHwA2oVgAwFN4R0f2X7XreL8rj8SewMHGKSyjL/7S3hXqPC+0XgintMRcAQcAUfAEXAEHAFHwBG4dQisdeCD4Ga29YheyKluHMmc0P4j3v6GAEAFLI1T3eT4awlY7tHWo1+FY6T5Gzu/iN/iGRP41E51E/7wraAaf70sB8sd2pLvCiG44fd6PkveZTo/+RU96r4jVAjCbp3pukCOgCPgCDgCjoAj4Ag4Ao7AeATWOvAhekUHOz+KH/uUl/3xIdOx38kx3/HRAUtC8x5tffi+CkIY6MaKDyef/5aW99X3fTS92X1aHOLg6dZ3fPjEOZX3bJ929AdbNU0+5lq++YMgaYP8iOvxjcJzOgKOgCPgCDgCjoAj4AjcPgTWPPAJKyLP9Hs9HPRs0vbiOR3Ix0GhOF61WYbv9iA42qbFs4P4cVBk5e/i7C3iCg9WinBQwqgVn0Ds/IQOEh754IUF7elVqi4r8/ecFt13e3BoQVmW85MDepa818PfEbKyeOAj6vQLR8ARcAQcAUfAEXAEHIE7jcD6Bz53Wn0uvCPgCDgCjoAj4Ag4Ao6AI+AIjEHAA58xKHkeR8ARcAQcAUfAEXAEHAFHwBFYawQ88Flr9TnzjoAj4Ag4Ao6AI+AIOAKOgCMwBgEPfMag5HkcAUfAEXAEHAFHwBFwBBwBR2CtEfDAZ63V58w7Ao6AI+AIOAKOgCPgCDgCjsAYBDzwGYOS53EEHAFHwBFwBBwBR8ARcAQcgbVGwAOftVafM+8IOAKOgCPgCDgCjoAj4Ag4AmMQ8MBnDEqexxFwBBwBR8ARcAQcAUfAEXAE1hoBD3zWWn3OvCPgCDgCjoAj4Ag4Ao6AI+AIjEHAA58xKHkeR8ARcAQcAUfAEXAEHAFHwBFYawQ88Flr9TnzjoAj4Ag4Ao6AI+AIOAKOgCMwBgEPfMag5HkcAUfAEXAEHAFHwBFwBBwBR2CtEfDAZ63V58w7Ao6AI+AIOAKOgCPgCDgCjsAYBDzwGYOS53EEHAFHwBFwBBwBR8ARcAQcgbVGwAOftVafM+8IOAKOgCPgCDgCjoAj4Ag4AmMQ8MBnDEqexxFwBBwBR8ARcAQcAUfAEXAE1hoBD3zWWn3OvCPgCDgCjsD/z977vEaWI/uj+W/kure1612tcuVNL76z6U0t8kFtZtGLBwU3oRYDs7hQDwyGLwwMNCQUDQ0XioSCZqAxJPUWw7sYzGVgaIxhGIbGGIbhO4Uxw1A0Jh6ho48UkkI6OnaWy+mKAleeH1Io4hOhkELSkQwBQ8AQMAQMAUOgBwELfHpQsjSGgCFgCBgChoAhYAgYAoaAIbDXCFjgs9fqM+YNAUPAEDAEDAFDwBAwBAwBQ6AHAQt8elCyNIaAIWAIGAKGgCFgCBgChoAhsNcIWOCz1+oz5g0BQ8AQMAQMAUPAEDAEDAFDoAcBC3x6ULI0hoAhYAgYAoaAIWAIGAKGgCGw1whY4LPX6jPmDQFDwBAwBAwBQ8AQMAQMAUOgBwELfHpQsjSGgCFgCBgChoAhYAgYAoaAIbDXCFjgs9fqM+YNAUPAEDAEDAFDwBAwBAwBQ6AHAQt8elCyNIaAIWAIGAKGgCFgCBgChoAhsNcIWOCz1+oz5g0BQ8AQMAQMAUPAEDAEDAFDoAcBC3x6ULI0hoAhYAgYAoaAIWAIGAKGgCGw1whY4LPX6jPmDQFDwBAwBAwBQ8AQMAQMAUOgBwELfHpQsjSGgCFgCBgChoAhYAgYAoaAIbDXCFjgs9fqM+YNAUPAEDAEDAFDwBAwBAwBQ6AHAQt8elCyNIaAIWAIGAKGgCFgCBgChoAhsNcIWOCz1+oz5g0BQ8AQMAQMAUPAEDAEDAFDoAeBxxX4XJ/TdvMtrRZzms1mw998SYdv3tH59U0PHp8+jSbD7AktD7+nt6eXNCbFzfmaDlj2gzWdVxP/g7arLyNGwEr8zpeH9GZ7TtfdiNzQ9fk72qxXtBB0Zg7/P9Dp5Yc6pastreZf0mr7Dz3Nzd9o8/wJzeYvaXtVFSrmdfRmo+mB1Xy1pauYO726OaP1AdvT17Q+/3f6Ltzd0NX2Jc1Z7sURnVZt7d90vv6aZrM5HazPKrrsSRMK7rvoxKOPmKWajIDhHyG7uaTTdz1+BT6q4Rci1T29in6j6YNuI11hc8Cz5cduU1AlT7eeK/mrj6dgBpl9X0C2S8W1wAXYFWlAh9vj/6LtuWw14LeHNKP6lGV0tWvcvv5Ih8snvt1utSFV8D7Oi0LX0NED4jFIDpuAvmu8fqDL0/9O+43QWbNvFQq6xwvIBPts/ULue2RvalE1nK/P6fhwOfSzuG7eQQ+PJPD5QJfb36Yd7txpzZ/T+kw6qqna+Pjpby6P6aUM2nIZZnNavDymy2rfX1aAVodBpmtVkjktDk86gp8O/GcH9HJ7oXT2veOpOv8rOls/H4y9mibTDSrOSPrxwAdOcawxk+lamKFxbDQI4J11P8J/JnX9FjR3Ra9ekr3REDD8B1QwiNDVYMFHtfyYBvY+PYt+Y7SjPFWswuaA5z10fCbpeapgUzCDzK02Du8ELsCuaH+RFr9f0eHpey8AfLt/1/S1UQY3QNtM68lfn9Bh0jd4IPVC1TXka7RzU9W+s/SwCehb4xW6RBpfOOyiy3/tjOEOQpAJdtn6zWTqoH7vSVSc39Pp4VfJYP1dfOYjCHxu6Pr0yAc9B7Rab5Mo/ebylDaIEuff0OaiMfNw7xoWBWJWw83ubLIZEh59+M7PZDUcnjeY+bMlPZvPqG4YqCi1SiDLq6WJvN9cbOj5nDvqSzrcnKaBGY8GvfazQKqDH3jReZW6nRAIoOKo5Qm+/eyYXjan8zjNf0XLZ60ZJzhPOBzZIMbyiOBQaw0C6DyhZ8tf0XzW0LUkO3bdiccYGXt/SwQM/wE44NDVcYCP2lEduKXqPm421PeWr74lB8B6xAfekno7G8ru0nObVPl2Cma3tKEx/mWbFmSMvv3p4umI7/Z8PV3QwrWb4ysZwiDd8w1dVAc+S7Q++pMxrD46A1MLgE20+jU9aaaW+zHTg99H7CsRYO+oD7//gQ9GQpozOogWW6PxH9MwO2h3OJDg/NSlWR/oYvONd7g/+SiYYNQAACAASURBVKVstcqNilJ7z/yigal10iFTTzo0CkrFdHIrz5kDF1DNafHq93TIy816G3FgOZK+jSfK507JMf3slrLVsIgYLJbPhiBcXfIGHCp0EPwy3z8f04obxdCwAu9b/HbicQvKlqUHAcN/QAk4dNk0fJTuG3pgf/hp4Dcs8OnX1RTMbmlDXXYK2mhDhW9/9YpetAYeHf05Hfh0Pe3aWFvVj9+OU3ZhteMy70Qu15tGrCeNlu9TPQO/j9hXhsBnfJCgRwt7HvjACVY6khKBq3d0+PJb2rxNZySSGSE3tc2zRj9kMy4ohw3rL3Hp1UyM7PMo0Fv5fdGcFqtvu77LcWx6B1KffZDCKNcwDNfh/sXPgtUCPVQUOG2FHgceozMinE9iU/lGRyfvng5lKHz4gHbOI1y/+O9sRgKZUAyc8Uj6tnxoyLyOEWCrAQ0wYDv8I524KVkNe9DU7XXgB/kQrAsbCwJOvJB4vL+IM3Bs74sVvVa/HeNZv41YUz6kXYf6421IxZjl/I36TdQgo3TQXM4PtF4dxGnsxYpiOWxiI/pX6g7X67fJ92a3rNeToOZ1+FshyxNaHv2RLt/zN2zKjCX7jM0hLfmd8z0tn9GBE3jl7wQT2Vt0kQm/wjec/TXj74BWr0/SGV2XbcxWUD8g5/Db9nXgg23lQsx4c94WH5kteRtf43vFW9gS3dW3O4yu6Hy7jt+fzpd0dHJB7/23gTkWffbLhHttDniWvrYoS5u555KKOuV1EVZZdOh5EpbTMIMFx1/ILP1NfFu9gr9sBujw5aCNe/bt7+iYv6FVfaPHiEeuf/qD7hckY7BX5x9i/XH20uKzeAcsvqb1pHqd1if+9nfj2ouWrvGubOfYhsIKHCeT5pd3w6vzqdyWoO47XAVt981uxitwk3hDj3iX20W3Ted1FfUn729KA+i5hkywxfE87b4PMEnplfV/V7rL+E1wRr2Ktt+9PDQjK2/3PPCBwktnLoXUr2/o+uy16HTkwMpvgmAIWIKEtL7c6z/TOnx0iHf4rX3bknGF0X51qVuWVrlFpzl8NA+HiUqb5OnBDTKXzishxQ1ia6lbnji590ZdOJIL2r48oNnit7TlTRGasiQEhxtUHFX2mL5Z+VFm4A0VMHUGA7UMKwRJMjB2CUFDwxTvoi03+YtijF8FPJ7R6oUIMIJzz4Mr8V1VSAN7ntF8+ZrOrm98YKzg4bHLO3NEPpgLemmVI79nk7OZeXAN3CDDSL2GTTnUoLdKvR5HVqTIlmUG3Oa0ePFi8DNBbiJq+owntFz/WXxb14vTGF1gJNguLuEbvqTF4osYjEp5ku/+WrzBVn6Jm38EOmOzHODjCS1X3yjfb2KAAAK0+ZjNntDzzd/ohqbY0hienb4ddi9kHwLdA3qxeua+X4x1ZZr9xmXesX7y5imlzQHP6F9c0FRtA2X9G+FpNiM3QHWD+iR5EXpu2nyOJQZ+Uloc9JaYwQbyX8is+Kg8qbyHvwy+X77ENWgDT/gh9u0/0ZVbfq+VO+RLAhfpF0Aev2iHMttJ8mt8FjKA313Ua9bVz/RPbOgjeBvsGHYg27kRG0pW7OySV7Yf1H0GFbSht4xX4CZkCgEs3km8u216RH51QBVGMPYLmTR7q+RFf1OzPdhc4GmMd99Pc0VFXvraD4W/BGfUq8wPaHwrpGqP9jvwgYJuA0LonPIOLT/G74LkzhHBwFE5GPzcQUMxPKr6nZgp4lFQ/11O57rEm8s/0lESQA27uW02b7MdZHJ1wthQmfk9+JKVHvm09HjHv1d0fnzkg0JJU6aR1x/o8uR3aRDpdnPb0GbT2FHP6e+LbIczdExEJ22qnlFxpPNqXMdOB2SCvqXjFjNgxTrrPL3oBAfnwbShk5SuKxU8B5uTMx13/DYNtLmDsjyiY+xGdOMDTH4elk8K3lmHx9iBS+4q5Pn3eol5B/wQsIUGA7A6PqLsIV0263RzeUKv3QyQsF0vQ15WCIqBG2wlnxXgUTn/rdnQSWOmoDetXoPpzt/gT+RshPABbH/BT8VOXaKPSr3rxwnysC/aRJ/GdDcvXfBQ4FeIB9/gv9kL+o80ohwTbIXLgR1CV0XZ8kGND7GRSsBT0F68pA3sm8ndXNLJkd8JCOX22pKor7f37QIjaefCHjkICnqZYr+TbA54Cn+Ozg8HSsFeuJ5v/MwUfDDyHtBqcyYCcun3BV1Vz9H3jWM5ETNpNsk1+M46TUpbEPDn/Cr/grDaR4jyucHHim8caPsOKsqRdiyKkZfwAd18gjZsPnT4e+q1GMxkPxp0LnwA2rWiHOY6+qEwEBtstae/JfSWtEGifIkZeOip+wEH2KvCa5HGawLlBEyjzsdtGjJJPHlg5Yw2rq2bELRIw3DXoD3FziF3We5ga7GdDm1sV5sqeOnRXSFLpf7BL0q9a3k7n32mgQ+Uno8aetRCgwCjQHrlmwsoJFSGFPnCiNLXyh1P77+lN9iQQTpp2XDKnEWFHF7CWZbfiQjjlPSL63zkWRaqXLutuL9Pl0c5mnlQKPmDA+JnaPBEh9c9HlnqlLMCPAp5dMeQNCaOFvCRvDF7ta2tYR/CWYRRXmlj0VGGBsGVp+XnF7X0ucAj9wGPTB7OhnfBfiE7Oj0p7Ti7x2tt/Uh+4owGnucvXtGrg6dii3LICB4gG+7TcgLWOV9JWQhGI+7t+paXCZ6Uep2x074FHalr5IBNi8AHmKPzgKTuF4E/OsM5z0niaJMOJ8FH6Mhm6Udvof+IacyCd9AZ7nts5UaxtUi5vALtHj7K3MkT4B1sx9MO90PqwnZQ34MNJlT9jKfGn0wHOTSMRADsBx4KHiSp4A8Y/3/5WbROm1M6c6F9KOwwt8GEiewG8qGt1HyK8J1dWIJmH2YZQ+IWdHS/P8y6De+SNgD2MtZ+JLMUqKewB3+f2Jivn3iGcnAvOM8voSuVTw1T0A7vgAX4kyXgHep1lKXY1TXvGxXlMN3oh4Z2Lt4X9Fxyf1xF2MwH/PTwKuVQrsFfwBi0IWvkLbbJeRpPF7SA6ST/AJpZ4KOwPP0RaN/OzhObSnzMcHxHv0/i9ODlDrrLcWZAgHXQ43SUZI7PNPBBxRbOWqJSrbjojMTEcEjSiWrXqXHF/KNXLpjYiEAoCwrC0o2W0ecNCIyzlocDlQnfJ6lC8MjhO9psRCCUzHxljQDbtt/OO47Ie8JTjR4VZ6SSQHe5bkLnvtrw5Z0NzXnyaA62IAX+sLvMKYTGpKaPsfOBVAXEhy088nejWMN2fMPh8ot65PJzwPOzO7MoYjvkC/cop4qxxyLoEBiLsgonDXwbOLryQAM0y3odweu5Qrmgm+XJMK7ZXciF9NzA4vu2XpyQN6T3s8bJOvdQknKR6TdJkb2DDoOOksSiEZS20htkoiwN09Y7rnd8nhvPNm9o80Z8QxX4hN4lbegQHSIE1WO2NGI7TYzAB2iAh7Eyme+hfs1CZzHDHnYQZAZmkC8vO8tfvR0G5hy20rdLPlA2Oojs23G+XLBLXUbnHyZhVmVU2J/Ucyu9fwf+q7xq3zZAd9G3DzLLsgcdBB+IcoKO6rwBv5CXkyK/wDlQKN7l+g8pBU6wDaSVvMv04rooh9/BtoAFsKnRy9OjfPAjygsda+1dT93Paedlc1l5Gl9+Jit0ovX35LNBZyhH2L1bFTO2mkfKXrsGvzV8R/JJ+0PdCzYF3Qm+1XqBssGLpp/WO8FjhrN7A74kryLL1Mv9DnxqBqqiwMtOtn4pGhQAZeUZYKSouPl9TN9r/OWsS6TRexU65FL5MAjVGKOxJg5zEm693LXSaSOIgw4iX70VrKPjhIojcVLYg+4iD5yok4+Eds0+xGi/G1X9l3qAKfiQzrK8rtmqIlj+qIVH/i6/z2kVtjPgBefuvjlw2GSzQY6ukKHTbpODYz1vITAGjclOerxeF2I3H4z4E/ApcZHLm3La0AHL1Rv4hAN25ZLEWP8He+oZbYQsHQ0X+EzqghQmo4X0QV8ybX6NvMJmQhLtnVyilcvt7yWfo7bU31lv+nbILMsOcsQyhvrT6XvcAcj/7/ABvQw4BN1yhBSYQa+xrNT/SSLiOizJqWAr+YDMQs99Ps779n9WNgPx7IDWON+QWbMhIVt+qfCfJynvgSd8SxylDnw6uoIXlFOxDVmGKjPyC5xDnuIdsID+Q8qyow9/JXUqk8vrohx+mbeHKFvILmlU03fw6uhMqfvgBbRzXplgnsYzm8kKnZRtdVZHgn7kJwRZmnyZXoLP2A34reFbyw/Z42D6IJOw4d7+UDiUHbwAX1l2651Il+Hs3sAmO+qKoFS93PPAB4qTiqrICuBcB+G974DWDCWnm9/HMmD8wbnFVxOuOg2iqJCxY10tP5F7mLqsVuwJHIekmpGGl+IiT+fuJf5oODKHoAV0wZEI+vISZY1UElV3mKWp5gWf0ubq9hE+6Od19Ifv6HT9NfHHx3FaHctdJBZSmNg5anaw0izpXQuP/B3spSp/aasOR5f+724b9WCLQcd+dFrqbbScVIThDtizU/2X37lQ4ob38plGB89aekOant+RcjOMVbuTxSA944XAp6oPmTG7xsxHssOb1iDJfKV+49vs3agOs/RSrtGzSJBX02X5LgwKuc1hvh9me3jGh2e6UG6CIXRWs6VY74I9RyD6r5oYwf7yGR9N5rxI8F9JW8gMzKD/vOycvrgXM9K8q9cbzKa57zeHOp/MPKFsUd9HbV4UVwZtycuwUca4XiBzBSNJVl4r/MvX+jX0IX27f+bsLhsIYiIoJ7FLnbqKH/ILnEPu4h2wgP5DSqWjj7QduBXlMF3YFrAANjV6eXqU38Or/B4J30T72V617ue087KZ/zyNxyqTVdWJhLV6jdUwb8QOoB0DulV64LeGbzVjXELmbMj3RRJ7HNNdThu89Okuz+3uM5zds6YfVak0H+554COWEyXrbXOZxYyD+zAdxo4GJ0sfHD0MCelRkUV6KClZxiXed11G+uoaWNAolN8yMmSC4Uree/Ih/9gvaGE5l54+dxLuPqlgej73tJC7kZZfBZ2093zPeSodtl4O8sVAJOovBjQiL4Kp2YKWy0Ua+IBXrfECCcgfRvXxovMXZWh4F++gT9h+WkboYCa0OM8BPf/2d/RiLvMNtIbvffJNLFBOHG1KS9LvBuz5bKfvaP08P1QWesAuUzqN+BTpZd2Ib/uvIh2t/gZ7AWYF5rIk4avcdx+3w0lSHK41P1Cmqjb6Lil4QaOGe6nzSLOwFcjdsvWQvUU7fwfZND7i4FDclGEopG1L0o/cZXMR8Kr5R/CNdgh21GO/SJsvu5Wyie/KlM5csMviG58Y9LGPOztb00FthjL4NoG9pmc862onp2AWDEa5AB3Bm5KqeAReu+wUuaHL1JcMGHP5w9l6SbCGcuAXQEr5ha768gubDzIAC9RdWUj+LspS+rP4zrV1kCGUw3SjbQ7tIe5h57JsTl77xmcKr5qOBQ4B41xW8Cb1lqfx/Oay4r7LpjOZ5e1d2/dQtzUMZEHaNfT5Fb1683t3EH1iY0GXPT6J6Vewc0W33gnegKu0KWAU9CjS3+Jy/wOf8EE8zxSUa2+TfeOlgQaH3dhlJDQIWuUA2hixz3bM4voc9qyXlQr5st/Aj/Z9DY8Q4HwQ0dBpBpKRdbdIF4ym0wA1WsUz4VwU/N0OceH8CjT+vrJJwy7oigdTjb6QV9ASl2Vj0osL0sHRtOyDC5QYsZ3CHsbygVmkqzQcSFb7beFRvBO8JruysA3+6DeuEDboyoz8pZ3L2nPOVCvHVZx4fkxuI7AFPxOYOmkxEOJG/sVujSTPmkGDCv6gjxqAHc8DX/7sHjejkS3BCPWv5jPkUgjUlSk4oRHLfJqDFDtGQvaaTLBtLV3+rsZbxVYKW6vxwM9RFuqYTJu/g9xyd7LMjtheAv6eVtDZMMtc2FLYoORuvh1+ZubO7rmkYbJL7FAlg4rQDuQ6VOw38N9jc8BM6DV0OFPc4u6iQ734Bd/nJMtxJD+Mn9CTqueazevt5CTMpGkk15BZ8Ja8r9yA/9z3VJIPj6MNJoNfTkdf+MNKMz5QTm6XSjnAI7FRVf+sF7+bLNt8kAFYCP2Hcsp3YdAi2dVN2cVPlUHxqzW7ljvkhf5WyU9gNfgFyBFxjzsTtup+TlvhNZRR0VfAdIJNQ1dJm8pSCUwD3Sht3xVkyvjty5x9f6fQqOlObVPBC/QjmWi9E+lgUxKPgF97MFtQaV4+gsCH5UsbEXXNZdLocJ6RvcmTGSStcghcm3u54yyLsbUdWSdJW+LFDaQ/QyV+i6IYqmBtuEQFRdpOAyzo1B504M8dUZxNgsZgfeY7ATW6/vlUo0fFGWlQ8sYkv69zFTt8Q0M0Yh+OEHQgAp8pcsH5QCbklR2OGsMtPNR37TNRog2KAj0/ScPMrz394rnL2i5nltRBlIWGLuts4fVYvZZ2GEaz9MAH9lB0mENZ8qLmT7QzVThAa539JeqKK2ICTrAT1X/Is1kk7/K65Ru0d23eElsJNlsLNDQ+4LNG3sGOVbmH8ko9jtnSmJ6kP5b85dc1jLQzaWp25GXI7Fc/i06zOU13cpkQ6MffqDvkje/KNlboqabnps3nWE7BLMcb9z18QybhA2BLsuMFktVf2JKg49LiubJBDcqBT6/SjjNwqR+Ns8OpPp7Q8tVvh+MlggzAordDWqPNeAn/pOpaaw9H7Drx9RN5BY5ddT+nrfEqdMY0oR+UEzCd4h9inyHVFewvPSZlWtsDmUCr9ZvbJ3eFsVutkDWxxRHdSXsIQWOvnSUFDTcazuARulCyTXn0SAIfFpkDh3e0SdazsyKXdPjmD+J8nRSeOCsDYylnjZj2lTusSzEakCtO781PukfCkd/KltBubfXb03hq+kRDCBXJVVpUFM04R/irvvb4y12UnCMa1t2+dac9D5kHXiaUPVFWdLaDw6rwDEyGxgTOTjTglXzuMXhyy8/i1rLJaF+eP3RKBzvCSGramOWZcA/+vA2G8jv4hSPRnEb1XT6iO2bPzN+vxfbV4Jtt7de0dqdk45n85XLS08G1mVuZI+g3jBAmb91Necq0PpPaqtewjzE7kqXHM4jYn/iR+PeVj7XZZ2zErmPuPJXabor9OJWyj+lOStDyDbV3vbaSDe7IDoRkwV2jLM2+tXdMG7Pi0pdvaHv+F/ftWTIrgfJg/w1b4rOATt9+68+28bT5RHjpj0Gv+ssYiZF4NxB3Qe/9IZC5Dyh1qNnvUFifzQGz0u+WZXEbuBXnQHEH75y2Sds68LPZntFFIUNDz5OwnIZZCT1khj20fkXbDpto2mdeWuafxevBjwj6eIdyNL+MNP4Xvii3k3RFhe/v8NlboB1kABal/uPsav5O8Tls98kOkZqu6/0ltrVNclSH1t+ayuuUup/TrvCabObhcSkwhXJ6/YOCZ8XnQ999bQ9katk33il2KPq35dLGaIiln9B8EnjJbYnptN7FckL7HmxXBGcddUVQql4+osCnKqO9MAQeJwIu+HnWCCoep9j3KZVrgKQDvs/CrSxDwBAwBAwBQ8AQ2CkCFvjsFE4jZgjcFwJ++vmL3ax5vS+u96ucYbnNF/5wyf3i3bg1BAwBQ8AQMAQMgRwBC3xyROzeENgLBN7T6dFv6OgEH0vvBdP7xeT1CR2tfk8nlx/2i2/j1hAwBAwBQ8AQMARUBCzwUWGxh4aAIWAIGAKGgCFgCBgChoAh8JgQsMDnMWnTZDEEDAFDwBAwBAwBQ8AQMAQMARUBC3xUWOyhIWAIGAKGgCFgCBgChoAhYAg8JgQs8HlM2jRZDAFDwBAwBAwBQ8AQMAQMAUNARcACHxUWe2gIGAKGgCFgCBgChoAhYAgYAo8JgUcS+PABVtMPL42KrB8+FtPEU+j1k3f5gCg+rPO/aHt+lWRr31zR+XZD69UBSbrFgaUFEX/wVuNAp5uLDT2fz6g89KwgNjzAAV0NmpwQh2u16CLNrHkGCg60mlPr4Kx4srB2KBZk6dQhkj/qXxzKNkH3jxkPPjTx3Tldj8kI+2/a7BiRjvcfsxzQHqnDHVw+qCQ3l/9D7yb51QfF/iNmhg9l/O/0sNOWtNfndCwPsPzYdc3xkvP40P0j+NMOm2yBa+8MgRoCNZvK60Yt/12eo5+H/pvCC9qte/EHRI8g8PlAl9vf0mKGk2m13wN6ub2gm5ruADrTaHUYZLpmeV/R4en7Wmnx+c0FbV+mAY8Mftz14re0VbfTHYypGnxc/5nWyycumKqmiZwMV5CvhUFX4ANDZ11oJ6+jYJmugZk7qHNOsxkqDvKLX/A+pkOR5fFewrFY4BOC5h6HChvqSXsX4/mY5YD2SB2+C/v3nXcYRLFO4H3jPl4eBpsafjkh8p5OD79KB/g++hlZGo8P3T+CP7P5xHzs5g4IaDal1Y07FFHNin4e/ITCC9qtj932eh73PvDBrMZsvqTDzSldyuiGR3pfr4agqNoRgBKe0LPlr2je6qiPKUeWN6rAD3Sx+Ybmsxnx7M7mND2P5ebyhF77WSA1cHG81IKKtIFR82tGCvmqWA2ZMJtTpevpzJ8t6VlzxgkVwgeriyM6vZYK9EyOBj4TdKjJ/eieAQ8LfAg2PVof79EIPiZPoD1Sh+9R2jsWBVu2TuAdgfwI2eG/0aEZKQJ+fP4NbS7u62wsjUfY1EP1j+DPbH7Eouz1nRDQ6sadCHZmVuwb7dY9tdN7HvgoABbQI6qtBAk3f6PN8yfDTM/Px7Saz6i6PKtLOb3G1JEuNBQvaXslAwIvt9q5QUD1Fb1a/ycdcGDVO6oG+VS6Edh24IPyGe+faLv6sjFTAwwWtFwuaDarLHkDDrUZnyk6jGI84ivUiwm6f6xowKbvyaF2wfgxeQLtkTrcxeeDSARbtk7gg1BHwgT899TAJ2/PEqI7vtF4hE09VP8I/szmd2wMRi5BQKsbSYKPdKPYN9qte2qnH0ngUwlqOtSGZRTDNyaYKaksu+pSzkigFXjyRnerDoovozCSG7o+PaLF7Ak93/yNfjlf33/ggyDFzd784vmpBDQkKt7pOzpc8HI2BXvQrAQ+k3QY8FcueMbu7be0cnzwLBR/s7Wh02KpIa+L3dChX0o4LElc0fqtnHFE5Wbb/AudrZ+72b1UPqbzQ/p91yKno/CZPOJvxNaR5/mSjk4u6P325TCbmAe9LOPmkJYc4LvlmnNarL6lt9mM41BEL3/8jd02lWN2QKv1Dwp2CfO8cJKuHK/cyP+JLhJcmbfvdBqjcoAu5Bx+m4MARf0W9nn21wy3A1q9PklnmL1oN5en9HbtZ5rd0stsNrooB7xqHZ3auxzzJ7Q8+iNdvt8Ogze5Xylsu6X3XEd8n5fHeGY6vj4Z6nDhlwZ6mJ2POshsl7FK7B/4Sx1mvr5LrhTDXy7/SEeou7xS4Nh//8W0sELAzcQf0XHXd0Vjcgz4RTs/y5Zdp/wNQ1yQnYOKv9P58VGss4zRVn6zNiUtdNvjw+J3rfPVMV2cvfY8zGnx4gX9X8GHeP3kNoeiCG2i1GO2rHy0PjMxLyeXc/GnsJR7VlspgHrm/Jzk8Rfvc4bA571YXeEG3yo+p6jXuf0HeesXJQ3mi+vRVnwnJe3hJ7o6/zG2NdrKFl8c097I76cU/tqDlihX1rHeNkCTGfTYr2VyFDI3bO3wJHyf2SNj4KTwDZX2vEjX8I3X57SVvp0Ha7X2szcdM9tdfocPDsLnF1IXZ3RTrRtygN3T8Gmj3xa0uW/269d0XmTzdd75hL9nA+AZL0wO/FTaDlHiTi73PPAhQmOqLnUbhQgOOY5YNR1Dl3JkI/TvBgeYGdGXujUy0vDdwhd0sE4b0JvLY3q5+IIWL49dh6wpi1YA5Ks2YEOmFt3hnejAIWhRaUqs/uWDJO78ZEveQEMNfCbqUJObn4lvotrfWV2JICZryF1n6TWdueV6qNxYQom0sLUWnXnQYY3d4TkCddDG7wG9WD0rA5+WjBzkrf8cGhiiXv5u6Dp0iFC++M11WQgEnOb0dPHUB4civ+sMZ/bQJQfoprRU5w2eYP/B+cI+v6TF4ovk24QQNIpG2QUHVSyETotywKuoN+ApCQxR3zHAkcrmOm0vXgydU1nfmniNfP/o+OjVMeqi7DhBELzrtH+HK/CXcgra3XJFfBer/4yDBKFD/CWtjv9H/95y1H5H6kmwj8hD7rfT4B86huyxLqd+SdbXKWlZHy2euT2CD4sdEixbht0fvPp/6MWuAp+mHhU557+i5bPh+1XHT6ivsDX/i3oW9IxgSwQ+yxf0Igx0CTtL9D5m/7XvcCU/IzS47Xi+oQvXgYy2wgFmHKSK/CU64kGJqt9hmZ/T+sxvuCRXRySrSLgDfkbrg7lof1t2IvyZFDO5niiH11dha66fM0FG5qFlU/K76Va6WeYbm2nFgG1vujE+k/JH5E/sNVGCv4m6cP6nWjeKCIYIAxeyTQFVN7gufDKK9oNgQ3sL/wTfn/HCecBPrS6D7o5+9z7wIfpAlye/S50Dj4q82dBm806MoiiIaWCj8mvrkLX0kqzcsaZHgTeXdHK0TDp7bje3zYY2yYieLAS7qsGI/Ds4NFEBWgFKStHfQT7ZUDSuy05kbuBMFx2eYRYqrVZ5enTksxki6EQLfMCzxBvpNR2qgscgdLZ4SRuM8l6f0cZ9ZwV+RIdTjhS70XCMyqHzisrNjVXmQLmN8bNxPML9Wsy2xG+7NLwk84IXSYNHj+SodZjxAbbcsZEj2VdiNDnaVD9/0OEBrTZnMXAK2ClOUYoROvaME4/I/ejrLI9ubXwnVdKYJsckh1rYEmTjzoOYGaArOt+8LL8dRB10o4AbRQ7fOBblwFZgOxIg5R1mVnjUNMw68cjsd7FTHxop1L989kykH60nwGFcxxiIKnwD6iTqKTCQ9c3VI6/zwL8iv4Nnilyg4W2MZ8acI4ob7n9LVgAAIABJREFU48wXC1qIenETZoWk7Um9+Os7y8F0wJ/UPzAf/Eei59Deob5OSSv8RmLTXN9yHyY6JGzTfkAtooBywUd8o17BBoJuOdWU+ozyeHCsJ9hg+sgjeQTeuc/hwXcePOSVB0Lv4Dupb36k3vvaGLSokgs+sjqU9F/Ao+SP6630JdCRaB+CP5D+kzv/Ygc91Ltga0I+z3I+aNnfBtRkzuWIs/exfgmbR13SbG2SjL3t+W18iNQHyx3bgsHnQeaxdJx3Svmw48x+JrezAm+1bui6HGwhtxnwny8ZBQawZ/COe7wXvED3wU51Pnb19BEEPh4KnlrcfB+nhEOHPW/wAZ0CvnsFZQqlIAuUE2iz41T+5AgL8lZ/ucF5R5s3cvkRaMqODQh4/hID8Y1H1oGB4yo6ISCV//bK52Uu6CJ/wpvo5GfP1UYpODgxghIaHlQcMH4LHSKr/A30RZn+PTpyw25/mLIt03HyNG0cVSy/GYON5fKgUD/yVuAlmYYz0XgRnQkEPtCNCIwjtdhQDDqdwh/4yBxyJD5yBR1q39bhnaiLk+QQHbcmlp5F0A5pIZsoP0iDd1GHqG/FjCVl+BblKHKGcvJ38b7cAl52av13FLDtIFMg7C4GnjX5ZDrI2qNjnzbp3MIHiHKAQRL4yDJxHeVNZkomyQUaio2BTjGogjyCZ7Akf+8qh6OllQXMMegiC4U9gbfbpNX8Ru7DbuJIbIEP84NyYx2QXBbXwFraRsAvm9V1mSEnOlYoD3IXJSgPkEfyCLwVewiBQSyjXUdGfKXCUfkIPKJjGfnTAqrQzrg6jbSanXCj5L9hloGcxzxtv3M58vuMa+iy4leG1OBNWcUh20vQgC0UtgY6nTKCN2XZfMCObfCfPw0zXCg/F9ENTsIOBA8hEM0yuNvedAxAu51P7Q420uOD23xFPwqasm5oefnZkDaxGcf/U3px+Bs6kHUafiHgmpcTMQq8QPchT42P3Tx/PIFPgocPJmQglAUF0SEgyFB+804ilKMFO+5ZtuY94an3hteLv00CodT55QaIUUsxAuSLQkcsMdYWG5AvMeIyg043NlJqMOjwyRvbvEJwWaLzBvzhIHKHGJy6ojvoCDRKMeKTTrmDo6riI+X5V7KOPDnZKcjT4Jv5r5YjnKaaBo4FHQZ0PON9FN5fAQN2PL94hwwMa7+ubBHgIZ2bcX3beZ4VeEUDIzkr3+m2J/JIOXhUP78XSYvLIq3UZ75sNX8HXhsYo8CiHOTtwQAdEnSSQNT/gra3C+BVr5ODDbZ9BPgT9lrVMeqvlAU8ywYW+EWaw2x3PkuPsiW9aM99cuk0HGKoi0U9auRJIL+bHAMprSzQlZjFgqHXQW8T0lblBe2MVmZPSDX8ZmnTl+WdUnYqR5klrb8or2L7SnZ02NKjEIC3Vlfzd7DdaKe6zU3hybfxvLJD9lFCcAIeUpsP4iU4/ovO11+nM1QhIV9otDyO0uZBEx1P3MOn134ljaTcWtkiEcoAjaqtQQc1jDMZq3RE2YwMVl3UZPPPg28E3ZCeZ9i+L1fndKabVj5kFHZY9cGpnMMd8kubQn3SfUxKxeeHroAf37/nAPIprbb/GLI4+aWu8nIUXoAZ7C8tfOd3jzTwkTjFDnkwYCgtGLAwpuSZVN7ETpRk4bbXoWMv+MiNCs4j4VuTRxp8hSEYnzBuLSUqrMQzBAUjfCR5MDKQBzRh+YMf4QkyphUUfOgNETAQ2GnCSFsYkTs0wtV0soIj8FFwD/KAx9pvKm/C/oiugM2ANxyN1tB7qqA3JfAJepPL5TJZbjui79gC38AQ951y3Gvgg8a5wRsUKLF2S64gF+REQv7N38HGKnYN2/I2Cjto1xFt5FvywNcTdAwe0Ijl9yAtl+IkfkMuE8nlHzJPk0un4SiBt6JON/KAf/zeQQ4vjdjgI//Gp+IDEhuCTXSk/Wdl8wvIkvvkpJyQyF+MlJsnL7AGxo06k5Q/sTxXvpanVW7+Ltbrdh3S6m4GQFiWlPnIYPuo0+AB9xmdREc/+w/Ha2lBS/KHZ3GwdKhPIg10FXir8VyxOccyyhF0E1Ey3SS6lgmRrk9GbOrUHDiU7f6YjPBjyZL2HA85EyOXjdbTTfNhjMcEHyzhc9eaLoBrS4eCkLMJBDjDqpKhfzHQSfoaiT/Ny1F4qepelL/Dy/0OfHrBKtJhKVCtIonRgGD0uwx8FMWrSs3T+XtpVN0OquZ8RMHASdIXr3GJChuDGIzyNhqwwKesZHmFQAm8PtnvEMXT1Sd/HKakQ0eb091Sh6KIcNkpdwjuqvhIeToCnyqdwFn9AniqNGA3UR+lzjLSwEAGPirtLF9yi5nWN+kOb7IOJen5Brxq9lm+myTHvQY+4DViXoiKBxLryYEPOmIV3wXaXnejeIGn7t8eHWOwaajrAw+aflEoRsDljopID1xxP+SZJpdOw1Gq1qNGHrBd/E6Xw0szOfBJ5Zd+J5+ZjG2Z89dVeSFMRgv2pNbhLC1I1H6VslM5lIxJ+RPLc+S0PNCtVlfzdyP1TWFZfRQGMYfNjN642R58h4wl1KjT4CG1+UA3wfE2Mz7sduUyK9+WSn+P9/JZYKD3YoocYlllYWtjOsjKgc2M8D5qey0x3acVG9okO7zJvo3P3Eh3+/J7fHDOfIaRe63VjTyfvB/04PyIwzizV8bbzf7kG2/l5Si8QGeF7mX5u7ve78AnjHzkS6hSgAoD6wEZFV92tnvypUXX70CruRQrr/DC8OqUw5tC7vCmcgGeJjuM3LA1+pBFOvNWvhhMzRbPaOk+OBWOBby2KoqmQ421kE6xo/COy26PriXrh6+wBEzKi8Ihdxxxw5v+X9BQeA4fTYqGHXipukVHFelB+y78icZV1qFCQMUJhjTKu0lyTBysAO1gU8BB2F3grXyH+lZ+4xM7n+57L4y6h3IgJ/APhYgAH3aEtPp698AD9AyZ8qW+soi7XCf1Q3S6fbnz1Q904pbiaBjqBQcZHD5R3rAenLNNkqtCg+mAf+AVWGrkCWnaF7ocPTpmurAvrQ6ivsImbpMWnZZUhtSHtTqjksdO3WpYBz1qZ/tATmAGOTvLc6JpeaBb0JUY5O/Efdh1Tabvu4YtxMFCkS8M8kEnokx8oymSBx0l9UOThe1b+cbH0UJ7/BW9evN7el4cNA7cNPsTzDQvhRwKdqkcok4Hvwjigo6CRyEj7Ez5xifUd26TTn7wW//f9UBdYIn6CL7z3yxdsP07lh/kbdULYCh5hI5b+TIZmOcvfk3ffvt/01z6TCfLl8P3PkV7n5ej8AIsCt1n5e/ods8DH9E5Vvasd1OD4YwTdBAV0FUwkU44lJ0qBzMW+dkVnhm5DzyCI2fgeTStMu8eNp2tlg3ySYNW0hV0kW/MaJEu0M8rRF6YwMhNR6OCQjeyEud5+R7phA61ZOLj82RXN7nrnm9khnOS8l2+5NQ2OqQoW+NR2G2ysxKzLM7ZGcETeuAdx45OLv3ZIHGXGV6aERvaiGV9V7dYR3Q5Ff7wPVAuh9ytqClHG6fy7JMpcojGNNicagDDQ9hn4Ldln8q70MmQS7VYpTg3xttCUY4IjKQukx36hB2Fhs6f3eNnjeIuePL7sBpezBfO/RC0NXhQ3iQd+3LnT2nxdF4cCg3bTW1xsK9hp0vwBPuQtsxMTpELNEBTCBlkyzvejTwyu/9OYFyOiToOgU/ua8RylxDMwhZ70tZ8j+bDRP0JdUIIH3hEh12+U65VrGt6FHKGDizkRDuglFE8Qh7JI3Sb2xRnVt6FwCTbNY19XDh3rM0T7D1pX5L8vCQKPEYe3E6XYRdC1hF2uhQBSY0/uQQTfQiBT+DJta0oGwlqdqK0Ac7/IJ/8zeRIduxUdqdT/GKgNknGGDAneBftec32NN+IoCW3Aenf2Qbe+2+uxtLxINGE8kPdkbuLMjpiV2O1jgJB6EL6QK1uIH3tF3nyulN7znTwDnVE4aWl+xord3i+54EPS5529PR1uOIsgGBAeUOnoIjKhk7TrpUzuuaXG7K4B//gqGA8Cr/ZIzi22PnNEuS3kA/y5u/9fUoXDiF3nFpmVHSkzSuEkgc6kIHPXXSoFOEehU5rviY31QHbWzyMtEwbz1dQKndSdpuO1HuSLbmp0YhnfyS6b54vIOqIK6NG28sc7FI0kOpa6XIr70SE0NGQDhkpKhhOkQO24nlL8EAx+IX9hwakZZ/6uzCKqWARbKMohzsTGJnNbGq+pFeveMt7iU/tTIfhYEl37oesw028snNbgEXyezsdw09w540PVE77R/AFmbzATWxXHOlwWviOkbM61DO1JIZeQNiHxMu9qtheggvf9MsxTcewrwUtlwtl91BZr6akZZ7bdTvYqUvqvwkKdUICAN8PnzDSptawbtqn9EuQs78NjFsGSx4xG5933lg26F2+q9U32K7kUeIjr8E78mi/sG3wIOoz6oX7zbcWH+Ev+GrJD4sqNrEp7J/Ttu1kvI0SciyfDdv/t+TQ/GJgeaKMNX/K5Us8mraX+cakL5LrT+ikNx3L1l3+7XxwgC/YtfSBE+uvJzb4Y9gqSoCu8+f8HraPeou0gpem7lHG7n4fQeDDYPg1j8WW0MOuG/JUejSizQ5QwBeG4RX0UZQzrAt/k5y47Efu3vxBnFrveVEboMBwcjFNVjG6pzrBSDqhC+c5kge5kXfY4jmvEEglf2WFHyoOaNxKh5J0fq2eoLxWdieTI33eASYnzjNhpXLn5bkRvx/S72HUmcsio3ggzmNxTp1nfy7o/fZleYCpY0vMKKER1U6ediUw7R7+tHQ86/EtybonmBaXLZwa7+TMWFMOOUo68hF/Ub9b9ll/V57Onp3MXpTj4ZCzvK7jzuctvVe+/xjSxzOf2Ab97M/7ysfrhW1XZpqFZtLLW+gYctZ8g8aTav9ycEs0lsygRmNKXaz6r4btpcDoPKhyDGeryJPfh5kiTcfCvs7+Ks7m4nqV+6QpacE863OTHv9Q4CbahFq7kwzeoWODMrLfKtZejxt5pIPmP4Sc52JZZVZMcVvwiO8vZXCDXNB7+a6s1xqPoKP8ZvXbHTi8+pY22zO6SPw1eGBb/4muwiyP7xccn8fz0kQxcQYXnfKxXWZjOeXW+CCs1fsxusgb6R+s/0QX8pwxtrX8rEL4i5qtOTPBLHWHjIVv0OpOrw8ZZCptQPejvekc1YJPnaab3Sna414blLrABirsj3BWIeM5Un+DWs9o/dVvaJsfgMv6+2pN5+kIlwU+wM1+DQFDwBAwBB43AtMGKB43FtOlm9LJn5J2OieWwxC4HQKVzvbtiFkuQ2BnCDySGZ+d4WGEDAFDwBAwBO6KwM0FbV8e0Cx8n3FXgp9b/inBzJS0nxuOJu+nQ8ACn0+HvZXcQsACnxY69s4QMAQMAUOgGwHM8uBby/Tw5W4ylrBYF9+CxAKfFjr27lMhYIHPp0Leym0jYIFPGx97awgYAoaAIdCLANbpz3jt+YbOr4sF372UPvN0U4KZKWk/c1hN/HtEwAKfewTbipqAgAU+E8CypIaAIWAIGAKGgCFgCBgChoAhsJ8IWOCzn3ozrg0BQ8AQMAQMAUPAEDAEDAFDYAICFvhMAMuSGgKGgCFgCBgChoAhYAgYAobAfiJggc9+6s24NgQMAUPAEDAEDAFDwBAwBAyBCQhY4DMBLEtqCBgChoAhYAgYAoaAIWAIGAL7icDnFfjwCbnv5KnH+W442i4keZqHrGjwX546/ZC5vhNv2EWqdjr8nYg/gszAp3EadpRyn2w9ct13hbrBp6GLk6v7MsdUhQ+Jrx7u1S5kB427+Zaby/+hd+dXDxeqnXG2G7x2xk43oSs6Pz6i5ZxPcue//0WvDr+h+eyO9aa7fEuYIgCf/CWttv9IX93LHcr/mtbn/76XErsLQdt2p7b/A12e/vfD330SsoZ2PNcL/E1HPS1odSP+aBJ+PoHPzRmtD+Y0C4bDOuwxnjzNQ9Y9jP9unZOHLGHBGyrxnZxfQfXxPAA+id3XxNsnW6/JUHuOutHRMFRJaD6klvghPd+B7AQat/ctwxk/d8D/IUE6ysvd8RotYucJbuj69IgWLuDxgc/8P+jNm/+wwGfnWPcShE+2wKdADG3brdv+f9P5+muazR5gUJcLC1lDOw67AO/wNx3+taCVF/b47z+fwKdL2Zrx5Ab2kI0C/N++c/KQpVN5g15v7fxUqo/nIfAJDrMl2j7ZekuOj/RuEpYfiYdbkYVf6GgUq/RB47a+BfnvwkOVuQf4AvLeFq9PIRI6gk/o+eZvZCcwfQod5GXCJ1vgkyND8Me3bvuBLYKHooQH/CDnHf6mw78Ct64+wQOG4A6sWeCTgKcZT25gSYYHdgP+96mxvSOEqMS3dn53LP+hZwc+XU5un2z9EwA/CctPwF+1SPiFjkZxlMZtfcsueKgy9wBfQN7b4vUpRELg86k62Z9C5odeJnzyp9IJyn+AwQH88a3b/gcs26hZ5rzD33T4eODW1ScYZWQvEzyCwOeKzrdrWi3mfk3yjGaLFa3fntKlG7KCQWDN8vA7X23pamdL3bwRqhWQG5PfqOtjh6UfwqHx9wObQ7G+mk8//5benl6K0TfIw/n+Qmfr5zR3SxO+osPT/0NX25fufpAPNnkV0y1+S9vLD3ih/zIfb79NMXUnsa9pm6/Pvz6n7XollkdoPOvFDE95je0PtF4dRP2xPKzDrfweq0IDlTjB/oauz157HA/o5fYi4lfIlvOL5R41B/KBLja85l3orcIakSJbYps+I2Q4WNPZxSltDpdepwMOrxP9D3luLk/pbYI72/UBrdbbdL2yoH1+dU7HgfYTWh5u6DSxhdyZQrBpcsxXx3QR8J/T4vCErkFK+y10wrKwXnZpb6g3Uq9C3rO/ZnXvgFavTzp8iBeokCG3K5/O66PE6P+jC1d3mb8/0cXphg6XT3ydYFrfZboa6PXZgSa7pgg8y3zqfElHJxf0XvUtim0U9Rc4Sx+c1p8+OcDfhN8u/wT+tM5d5V2h77w+AfMh8Hl/eUKvg4+r61OVrChr9/VjaIukfviadfR336bcpt4IaXplEP6q1xdSQTvXBfhQbFXzx0iu/RZlVXRxGzkyW50vf0cnlxe0XX3pdTH2jc8NXZ9vs7aU24QfFN+hYFHUWwagYv+9bRuTyOQafHver9HAxrNcrie0PPojXb7f0oq/RUvafqIuXwL9uL6Tt3tJp1fPYLH5C1+Q+jxkuTl/Tb/Wvjv1n2e4vhz4DcFKrheUIespSsh+Ja3RPoHPW+BRad+yoh7q7Z4HPqJDLw3YXaPDBYNInfpuAx+iIoiBxqXx4pn7fU+nh1/FSnv9Z1qHjk7K62z2hJbrP/vOI+R5Qs+Wv4odZLdO9V9K4BMxGhzpSNDT5IOdzDe0ufA0mmk5EHufSFzeRN6GD2lLuUeXXKASB6clgh7XYRNBY5NfESDhe7BAU3COd8EBiXfJZUu2OS1eHvtONVGYsn+6oEX4qFhiIbEU8hU2P+SZP9/QBdapAJ/FN7TS7Gv+nNZn+Ng8d6Ys0HQ55s+W9CzIMeKImzrZpb2h3kh+IO+XtFh8kQbe3T6EG/ZW3RV25eAcGusSo5/onz7webp4Kuq1sIPFEZ1eQ7FT7ECTPTFWceP9UmFbB/Ri9SwbVGnZBvONJVPAWcgSBg6myCHY7Lls6kXWKfDXGfi06IaBJWA+o/nyBb2QA3PANtFnRaBWWUxnR/74doHPWL3xMk2RAf6qyxeO1L2gC+ajZauZP66ool3PM11MluOEDlUbgd/WO82R1ZF6lNhaCwtZb5m6Vjda+TMsm7qXdTBKkl5hIFL6Dr6e0+LFi2FwM7TTIxjMZhTaRugHddHVpZe0vboZ8eeZnlNm63fVfqCfZQ0ygATk9noHv6HfkesF/ka2b6CV/YJWV59gpI7NsvYtK+qh3u534BMU+JI2YSaCRwc2w2yFNCakDYbDKukxnjxNRZUVww4NiuSFSTh+YKSxszFfHtFxkEXusINGGQbOlT83uvhuCOyig5ovX9NZ6DRVZAgfMHM0v0lmDm4u/0hHruMMnlFWnvaKzjcv3QxQOuuklAmdLKT+iIds6OTIz3ok+mrQcPj+Emd6kg4958Myjny0lUe+vvP2gqCuPqsz6BMYKPz4R0HvixXJGZubMPKLTiFsYXDsif6vz2jjR4kjlrDHA1ptzsRMyge6PPmdn+WCraS0ZxLn6zj7ExqDoj4goC9nntpyZI1fFaaaDbEJ7NreYllxVzdgyY3Zkg6PMcMYbTgZTYS9JjY5xa6kPnKMwB/bAY9Y/+jrn/BnIVhgQMF7jx2A9pjdorHN9M2jfa/jrG6wReAh7YpZU+tvjYcpclQNSXkRy0t9WdRtkCNgKepNoAj+8A6+gTESfivUVW3ATeqT4Tmml66TO96ZHWbwcx/7MeoHCwxblnxFHG9Xb2L+VA+aDLJ+cMAo2sKAr1w62KuLiX4s6F5efEw50P6nbVP0sewTpE4kX7iGnWb+IOAm8k+qt6AL+5+CZQ0zrQ5Cjuz3GgGhnIEXbbYMWEI9zjDg2SmtbQzpo2w0qQ+U8dq8rQQ4GEgt9OtxR1sDneG+4D1iHetphSHQYuwSH6b1CeATUtscVrPk/aZKeQ/w8SMMfCooQ9nBcDhdXqk148nTVOijwiQBzmA08xev6NXBU7EdJcrxFQ68JaMyKCc696GhRt5ZtkMdp4/v5qs/0Nn2t7RwS4bSIAaUp/1K2rxMEPdlozyNbiU1MEnwVNKKdMdnPw4dClmZkQUOJtE/XsKZi46hpxs7R5wWTkA6ykgjXo2ky3mBDNruMnhX4TuWyVewVaWRkyPDyHTzN9o85+VUkAf5cb9DOVBm9y/sCx0d3N/W3mL+2DBAXqH3wB/eAQvRKZO6yHUZ8g8XRaAMfQbMkQH8teq1xifyy1/wDjsA7bH8yKeNxKJzBn3I8pRryBnqby8Pkhb4gRzy3dh1LC/vcJc5UY7QdUiUvYO+ZyVGNxcbeh6W3vwSZt/TnUSZcOQt2mIosPMCNKAP3N+2fnCxqO8S70g38gpMNHvCOw3LXDTQhgyijhX1Q7xD/evWxb/au3eBDujmbI7e31EO1BWt/Q8df6kTjSHgnnf6tbSNZ+Al1FvQhT5hI7jPaCVYApfb2qTIXyyXFoM0gdeMl+QWckgc8awiS5Kfb8CPsNciTeOBw1aW7/sd82/o8NWvKOlruLSifkEvwUZz3sGbyFNjBbR6+gSJPkuCRftWJnmQT/Y78AkdvWG0nJdLzZeH9GbzLpmtcMhD2cFw+GmP8eRpGnp0ZQjDdkbDAc/PzvFGwx5o4h6zA7gvSkh4h4FrlU+8WyzoqZvGFTMLBeHWAx5pfkebzcb9vQnfhohywZcrByPV39Om59ucvGheB+zL2rwR3zmNOTXwMH9Ki6fDd15xBiMWAoz1JXXCfty3X5wPHT3hFEecQCgN6QIukX5SPmSDDIltemqtd8TfYrz1OvpefBMibLCZH40Y0me2fls5IFcApOfiY9sb6oZsGDJ5EzaVdwqWk+0KNAqMNP7AUOsdpxmzg7H8vhzou+CN34OGqP9gj39H6y/yS/wlAb4ekyNPP3IPrEM95JkXzT8pug6ks3egqWIUMo3gBSwqWEoy4fpj1w8uKPcH/Ay8Sr1lmAQe+aL1boIMPb6wVxew62AHI/44kUe72a0c8CF6+w884aM1fvgZ9CRk41nsN2/L73IlidF6i/J9OzgVS+goYF+rg5IpXGv2iHciEFbrYo8vyWQTpIfLDj0XeVoPhvKingf5+P79+ZoOghxel+FeyBrqRc479C/raYUX6CTQkulSzGGbSb8l6DLaWpRJ0nq413se+AwNbvxgOypi+IBOzHSoyu4xnjxNS5nRkHlGxJ2J4IzXj/7BkB0vcGQw2EYjmPCO9JqB492AQ/iOQIvsq2LEaeiasUcjZ8fwo+hwS/x7Rp44v1+WqFQmVz4wq/ELbDj//Fe0fMYzGGWw11uB5ejskCfinN/XWKLexgGjmpBBc0Tau7B8QeItr2Fb0WFGnUmuYS+QMbP1Xcohi02u78veclmZiUzehC/lnaKLyXal0BiK1fgDQ5V33XZQyQ/y+AVvlToHWaMtTam/DR665QCjvb+9/knRdSgifQcMkiWQIa28gLyaX2+9kzT4+r7qB5eVdnoGTsArfAQ/TTEZ0uF/7d0EGWCDHb6wWxdT/RhEKX4/hhzAV7MTZkDTScGYfyCXxsv2IFvSxH2T7nY30+dkLHvroCYTyhbtmUwGXqS/muRLQF8Mbjr6E/Qs+em4djYLft1snl8J5Owecg58RT8b2/HYP8l5hx3JelphyNexhH5ImtL5hQOyWt9MPtfqa6D58C72P/AJmCLCl7uRCSNQHWqP8eRpQoHqRTTsv7vdWIJxBcMeZn+iAWOZVc3x5UafGiY+dR6YwTt8xCeWyckP3lXO+WFM7755eDPM9mw2PGr0PizdCDJJOhg5SnYayx2KzEAUloa4bxq+D7NLbsYI+oKTSLPGu5Bu+D4n0MyCPTSSKu+RWnqFpWCuUqMBasvkCGgOOaWc3kEGzXnk78BTmN2EjniWc7C5ZD14nj8pGTKlDjcsfdulHEm5uLlPe0PdED5hagdOwXKyXSk0BjQ0/oCT8m6SHSj5QVr+NvUNGtFPhbrWVX+RX+LPA9VYbonZ+hF7lvxOuW76p5aPz95Bf2N+SYzAlz4HWEQsdVHus34wB7k/4GfgVeotwyRhPn83UQbg2+MLkXZMF027Tphv3Hw8Odo+BHjCRzdYDK842ODVGm/SHd48ptPqLcrPZnzGMA+8iItmHRTpwqVmj+Fl3BQIvEz2JZlsjvREPQt2ui6dLXKw43dLBO++LWJf4WZ/MCgKorD1UC9y3rV6iszZb0FLvk8xb9umzLdf148o8EmBh8JCgKEqu8d48jR9JFN0AAAgAElEQVRpOeUdpz+g59/+jl7MpbMa6Azf+3xBcb20CGxCJZBUY0UcGtCWgeOdaFCDMyhnQWQp7rrZQGDpl6BdEMADVB7ZWOIdfpFGYoR3E9bvQq8BO4GXDPZCOmxggLJav8DzS1odv6P1wVz5rkrLD5vpwJyzg7fg1ATN7B3suuxM8ewnPgQVmCJ/wEfQDraBYA585/c7kEMUGy7v1d6gS2mTubyBM31UG1hKPeFZFmhLSsk10ksaLoHGH3KW76bZQZkflNNf4FF+vxI7xaj/U+uvzsM0OVJub38H3mELkFvUGxAPdSrr+Cnf+MSZXk6r7bAJosACWOJ59nuv9YPLBi4SB/AKrDgd8IKfkHxn76bKUK0fip8E7VFd/Oy3hO70Y1IcXKMszY+GZdFCn1PkQFrtGx+UW3z8DsY6fgMN1td7/72T1DFoaO1ups+g+ztg6YqDrUm7Ah/4jbanHYkA34HZV9x3t41BFmHHwKpXz2C1+3eQ6Yvn/5u+ffGl+K7Hy+q/9wn9VtCFjYR2I9dLxCrpWyK//AUtTca8TxDSTuk3ycIe5vVeBz7B0OXuL4xz2FVIVKqgQL9lodNHj/HkacYUCQPkpVeyrNpzpieCikQWOXWNzgjoCNkCS3gnHDDDgY9uNcca8nLCs6Fzz+fBiB3DeF98ebbM4FjguNIdi5hc3JFLOBRZjrtG/uzDR95BSp5llGBYEIlBg0wXKi8w43w1jJlfyKdg6js+c/fNlPJeYYlHSd0yR7f8Tu4WNthmkA9ODLaJe0kzewebT3ZjcWcqyHNfRKOG/G6GiM+FwFbkYse4ECDmtr5DOaRMuL5Xe0PdkDrM5QVj/Ku8A5bS1qbaFWgUutb4Az/lu2l2UOYH5fw30E22gk+XfqT1v7f+gofMN2EpRbIhCe/aVLHnnOHqPfxLj39CWp51inUk3VULviwOrCR1MLQ52JxCl3dgt/VOCHSv9YPLBQ7Cf9x1xmeSDEpwI+AoB4j6dTHJH8sycf1R5QDuqf1RsmxL6gRMiV/wl+xOye/FjmbO56Cs3nqb+8EpbQLK6qmDQhZ5Cbl4VpnP7vFnMyZL9bw/Dr6r25dANoFtKK+nDyQZnXCNNiAPZmvPmTTehXYDvMMvwafI9q3CE2h19Qlu2W+qFP1QHu914CM7s+r3KHIf/2DQw9rXofHuMZ48TYfqfFnFyIM3uOI5k2zud6+d46MZOIw/7VzEBg1brdZkiPlVPP2azsB/GA3N1hO7dPl2vUqZogJWy0s6mQ0aWbroBMXZJ02MudHRtvyG8566f3/cSlyVTW63DRyCUxNyFu9gjxrmeCYcOfLX9uyXdUTr7DfPv2BMxDlAKEuTQ4gUL+/T3lCWrDfAEo1H5EwNfFQfMlZ3M7uqYqTxB360d+AdOtd+YQdaftDOf2t2q5zjA1nkWu/8WtTLUCddGvA2RY64LDgdVMpl8PcT/FMYHMr4ny9/S6/cNv7CRsLAioJ5qA/APPfFzFvrnZQlplN9iOd1Z/74YwQ+QtYuGWBTmg/R3nXpgjGt2bXXYdCbxF9eT9SFxivIae9qbVPw26gvIJL/ioAks+EBd3H0BcpX0wEPDNqifgr7n4LlhDqYSzTc187m0c7xAa9KvQyyShxF287vna8SuzGGPCW9UOdCmyDp6pLEp75c4RuHd57/4vlHCnyCbWXyJX2Cie1bFPJBX+154ONH0N/K73pYidppxdkHfc6xoqKgUsO59XaOarplw/612L4a6bi8X9P6/N94kP7msx1uK+r8hGONR5DBO6WxDQ5IzoIgn/zlb6XWw7k2qPh8ujXvlHdxXJyUrJ6S3H0aNutEO2l6Q9vzv/SdWA0nXjgLjFRkwV5xAvFwZsn67Wk8UFTCIRru4OyS960b7XRsxTYhQ29jz2ulk2+pePTuW9psz+jCHYIp9C9pX8VZnvSsGMiQ1wc834EcIFX83pe9oW701m0NC82HeIF67UrqI/lAT+MPYFXeddtBJT/IF7/5ORlLOjq5oPe5bbmPpKfUXzlzJPTQLcfEwMc1D6f0Nqkrtfqe+yKMUuO7ObQRNX1zHVyLHbSAuaiLAefWu5DIX9xX/eDi0BGUnTjwKvSlDpCAb63eTJChWj+0zp8vs6h7uS7AW6cfQ/Li9x7kkOdludnHi7520PGqyTe0DW9PxUHek+qtpk8uTCtLadsm1cEC8PAgnX31sz/vh8Ogk0GQCb7EEU9m1VDHJ+j5VoHP4Me+CjvIQkyua7+hr9ZnlDQN/LqoF7letHoKutmvpDXaJ/B5izpW86NZWQ/0dv8DnwcKrLH1WBDQOgOPRTaTwxDYPwTczJE2SLB/ohjHhoAhsO8IuODnWX1Ae9/le4T8W+DzCJVqIu0OgXDK+tj3Ubsr0igZAoZAFYFhydIXxWhpNYO9MAQMAUPgIyHgl+J9gaWBH6kYI7tTBCzw2SmcRuxxIIBZHqx9vesONo8DFZPCEPjkCFyf0NHq93GTjk/OkDFgCBgCny8C7+n06Dd0dCKXEn6+aOyL5Bb47IumjM97RADrZf33YmKHu3tkwooyBAwBQ8AQMAQMAUPAENghAhb47BBMI2UIGAKGgCFgCBgChoAhYAgYAg8TAQt8HqZejCtDwBAwBAwBQ8AQMAQMAUPAENghAhb47BBMI2UIGAKGgCFgCBgChoAhYAgYAg8TAQt8HqZejCtDwBAwBAwBQ8AQMAQMAUPAENghAhb47BBMI2UIGAKGgCFgCBgChoAhYAgYAg8TAQt8dqkXnIg7f2x7umOXM3F6N2S97UGCk/LnpxTvSGmTeNhRmR+LzERZbi7/h96dX0VuJuaPGe/p6vqcjg+XNJ/5LcZva3f3xO7uilFs/151xSe0/zedX+MsccUX7E7YR0OpqF97IdkVnR8f0XKObfxxkn2N+Ru6Pn9Hm/WKFqiX/Dtf0uGbP9Dp5YdaRv8cxwaIdkXLAXuXZSTXT2h5+F+0lf5Mo5M8u6Lz7YbWqwOaCVrz5SG9eXtKlzD3JA/fePtvtPE3Fxt6Pp/RfPJZUx/oYvMNzR+Mb4Pv+ZJW238USEx7cB+2At8E+1V+nW2+E/6sLoU7KFnYhrQTvna2sj2n60BiDC/JX61uoU7kmI/bHd38jTbPn9CssM0xvrwA7iDWuZI/CEiENLMa/5xWyNk8/xCytut/0EOrXjjZv6TF4YnQh+A7u7TAJwPkTrdw0IXh3YnqA8gMQxYGCllbxtjifFJ+VNxWZWsVVnk3iYcKjYfyeIIsgyMRumQZJuS/f5Hf0+nhV2kHZXKn4v653k2Jiu3fm67QMMl6p/iC3Qj6aKio9evBS3dD16dHWQDTGsD7QJfb36bpi07iAb3cXlA1hoAdc75WmynTFWXIzu1XdHj6fhzpmwvavkwDnrxTO1v8lrZq4DbUx2pQc/1nWi+fOF9VTVPhcAiYOmWo0NjtY/ievBM+tZT7shX4JmkTletmh3yQL3S4mzY3F51tlJ+1rQEu4Mk8jaQp6sOI3dFwsLMbGKzknc1G9IigpsgPASDfgGndvmU6iQ/o4BftSw0LTicxa/M/pf5Y4AMd7OIXDrpqOLso5IHQgKz7HPg8ECh3wka3PuCUWs5mJxztjkhwyN/Q5mJsFHl3xT4MSnD8Mvi4L84+Zdn3JeOuy9nD+uUgQCek77BmzGq42Z1NNkNyc0mnr/0sULUtBE5P6NnyVzRvdcrGfJssb7Q98rMqfsR+c5oePHlzeUKv/SyQ2rFzvNQ6YOkAjZq/am6+Y/t8QxfVSLGa+SO9QP2vydtX7P3ZCmyq3rZF/dbTQKoQ+Kg2xTPh39FqMaeZmP1o5vHt2PzFK3p1MKeZRrdm6027ywYtijrXqcfQztYGPDyd+a9o+UybWQrI0dX2ZVydMasF8/A5DV14PObPlvRsdBbV1z8NV7Dmfy3wyQC50y2MtjC8O1F9mJkha4eRqQJMyo+K+yk6fyr3D+9hN57jjcODE27UIT84jnfI0Ke0/U9Z9g4hvFdSe1i/HD7ohPR0cntkHKEnl+X8fEwrXl5Xa0u6fFuvrXakq/obL7faviOg+operf+TDjiwmjArPXSYax3EezVgURiw6rEJkS25vE9b6Smrf3VDM4hxMirlVW2HaKDHWP5M5+uv1VnOIU0eCLTsjmgILOe0ePV7OuSAqrDPTj02eGdxEcDOV8f0swtscj6h+IjLYvlsmBVWZ9jgI2p0UKcYs59ou/oyCTJRmvwdeBy31z0PfKBQ7hBf0eXJ78L65PnyiI79mt8Y5fMUHa8H/rFY43lzeUpv87XKswNarbdFWl7DeH2+FeuDn9Dy6I90+X47OPDc8HhE6u23fnRgmOZcrL6lt9lok1Rgft3F34jhYjlTdMg8avGDkGOYwpwtVrRO1q5GQz5Ynw1LFyqNURefLJzMfyW/32D9bLL14VLP/xbQKPwz78012iK75MGNsolyzv5Kp5vDYE8ztoXXJ42136DrabANXPwpLHuYyYo/xR6KtLCfdbqmvZAF/MhfyOf17KbwvZMo8iPt3esW0W31BMco+c2WxTA+iZ7mVNYt2C/L+hc6Wz/3o1HjHY0+ewZ9duA/0dX5j3Tol7s4u8l9iMQ6sX3mPdNrmOoXQb/ML0eHC1vR6hK3YLk/UmwKZchlHs6v/eJH85TGapIuOP+f6OJ0I7Bi+b/L6j4RXZ/TNvHNmo6lnZfXrMeN/EbM+fYfsrKEzd+q/iO/tNesEe7CCHRY539Pv7spfHMpa/qE657EeEbOvwsfGTp4UtetGZiwhj+TLS24eYcO3rAmHzMllfoIW6wFRq4k+Ioxnjy2eRvd5BYvfRkFHxhxH2bLfjlfTwx8PE8FXS6Xv0Vai75Dqb/4TYVSJ4OuyneFb+PvX5LZO9ghY3ohZjjYvnvbQ/jGMb0A4/K331ZQVilrQnWsn+QTh3qh6oUToTwpG+xQ+GtHTz7/l/ehMh8nQprKc42P6xM6XMxpzjOFv5zR+qMFPuDN11FfbtKv8bhFXFgPf6QTt0xdW/IGmhV9QU+u7/SLX4qr0QkFx6VxGlYi2SMJfA5odfiiXG88f0nHZz/SSzcdKRsjCd4NXZ+9Fh1cmW64dkYVOhhwcnm6OS1evBjoSKcq1vwW64hnI2ugnaKm8Ccj5PxjRBgZGhexJjRp8CCXXPKACi4MtGiMpvApAp/FN7QKnUSUzZ3b57Q+w8f3cMDSmbT4n9Pi5fF4kFLIgHK+pMXii+SbkkF30m5ELUouPQ1MBwNbVMQp9tBMyxiJpV+FLAlT/gbyCZzRwSnyI+1d6hYXexc9wWYlvyLwaeLzhJbrP/sPHWG/WFYDetKecrym2DPoCx8Avfvf+fI1nWGDAGB9W9tHftgUs97CQn6v0ErHvMKmUIaUoxX4NOlqupjT08VTsRwCOuGO3RGdAqsmXfiyXHfyfkSPqp+5bf1HnRGyoH6N6YgH5IK9gs4BvVg9UzCSaaWs+XWr7vHH2YNNhg6e1LXkOycrRn/VpW5K+vQR6nWsf+AhDsqJHLBFae/i9XAJzCLNIol7gDZy+Dg9X+qm5/FPXUfsCwqDf3h8eUwvF1+ENqcpi1aAl6+UvaU/2RZF/5PzlnZC/aAlD9xW+zyy7QSmT2i5+qbsX80kD5pgwzPMFHx8W2nhIPjrsifM0NRmInlAwS91k/29EAyJvpIr2mMJG1Z17tMk9LiycUBT2h3hWzX4dwQKef4weJYHVAITvqzmF+/AfzVIc4TSwTEEScWSN/iBHKuBr6EeiXct/oIooNn2A48k8OEGe0lHJ369Lgxi9gUtFgdihudDnBUKxoHKfUCrzZnYEUKkFWs4KShRjniISuA6D1gjCSXkI5kiPToaQXH5xUT+1AqlGC4q/+IlbeRuODeXdHLkd88KRq44FOQPaW7HpwsoJA9i964YcIJ2NGY0Ljx6+VrMnMXZPRm45Zj6+6oMgz0dHmPHlis637wcHH+wmwrN4GS4A5d/IDvFHiLmi9UmmXW8ufwjHblgUTiFQpYaf5Fu0kgW+YH5XeqWaDzuoifV4WGUmDswcXbXjZCGnalgL5CZO6Q9gw2MHeTv8QuSflrXm7piXyFxUese+IAsYtAg1L3YmZsldemMNu57BXRQwCfz2GFTAQNRttqw31YXcvadZ9E3fmQbDXSN31gfy85iZvfBX8uyhlmksEtgwBFY36X+R56T+kVTMBJ8JCPrlTYpE3m4FQN0PJIffBnjjBlJ4T+aHRmtAMmLD/Tcjlkb2mxGds0qfI1on7T2UEsvWRJtRnW5nEwv65kP9twOXZsNbZKVDjITfJmsC8y330lLBOtom0Zt05GHvcDmRZmQW9Zpt9rE15PQFoGG1CfoKO/AMwcuwQ/I+ocBBWGHiQ2JzQoCDyhP+70vW1FkTdip2X6SKNxAj+WAtRjYSHTjs3q9Jfp3z6R+PLbB90S/nuRjE3MziJndEXw+dCXrEPqfEEXoMRncEHLI54VOdVyBT+ynobw8vfBFop7EGS6JC2iAZyk3+k/tvt3Al0YTtIkeSeBTCgmllI5QAzQCkl4hLZxSVGi5bZ5QLgwHHTZp3KKAHgWJ5Mplzh8n8c/Ag881qSw43EAjyh0ac6SpyJYyq/CJ/FpDFxwzjB75cY8KgPu0tDByMcYbeAjpUE5pTwFXGQRnxQ63DRo7swfoQ6wjL2RRmWPvmI7GIFmRvy5Hf93akZ6AW7DH2EgkswOQJTQKwAcy10bvQsbOC2CT+4VstsJTCyOesDNgXYyAiY5UsDOUJWwd+UEP+Cj0QtkSO1XKiFFseJWyNfsBP0mjhkLQQPfoAjyg/sX72EED3Z5fkV/b5jT4GegR8qJ8WQbeCT3I1+E6lhl8Jb+bhBHKQsAaiBMvG3VbHld3hUJa0BAdI7xiM/NbLsfvAVBXgYVI3LrkZYib78VyRXSm0gGASKKCTwi8FOyBneycadfJ7F0sUb/iTvA72ryRy5nBuxzURG6PD+qce+yD2awNg3+M9Qg0tF/grtgV5NY61wmpGqacqHwH/krfCdtCXYUNKTpBPyP4qYQh/eaj2wpkhR7rv5jt1BkdngacNFsLz/KBMc7rcQs+F3zJulXqfSgvx1qzO/Q1swAA7UAoF9JBj3U8kuCumj+zUZRX2ADklbJg4Ef6NGAg03meYftJfUMQONKO+7yt+vdIAp9MIVzdq+tsYQRlnmE97Vva8MhP4sxhsFAU7mFYmbK84YCHxKhChYlG2FJQWgKv923xx6lhdJJH8K3J7NfQO5k3aUMQKgBoCgOtGObAbwefzfzgFzJkOgsVLmKoYhz4T1EMdwUPWTkhIV+03smESAfe47vb24NvpL2O3ohvFYLtFLLEctMrRZecoMgPOUqbgRyh7FBAlmdXegIdoc86D56ZRB7IjAY9MNx5MWbPoC/qh6Sc85/wJhPy9Yjtc5I8P+4FPjnV8r7DplSbL2W9nS40rEraQdbgN3nm5vvmyHyUNccyvhmu8vIy+02St97JhDlNX1K1PfJ5oUPX0LfLGsWbSeY2J1l013kZY1gVBJQHsCkRCGVBQZghCfpUfHgeQAObah7+Fjf/Xkthr/nI13ERCKUj2QNe0edh1iPrfDb7HhoDuR5kGryLGA0zU/mMmm5zA6X8He57fCHKL9uy2B5q76QMteuPYStRNrU/wPYz4Rtg1LNy8NwjG3YAzG0AdQltp7/P/PNAH34QvCMPcMvtjj/R5KWV/rue8AlGq8639Ihy6vnDIEm1/slghulBFsjmywiz7xiMAU5ZujC4E+2+1CdoCP5xCX+RBU14zb8W+DAK11gSUgMalXvEgLLGJlScqsH48hoKcsrq5s+r1is+OG7wlZTDjgdLSypyh4qqGLJmXFP4BI/qzjd5ecDdOwXIM4ZrMRLh8cFPIUNWDtK539Y7mbCebro9xCU9ZcUfdBYa4kIWyZO8zrH174r843KEsgP5LM+u9AQ6hT02Gu9EnorMge/KRbc9j9HPcEl4y8vOaWV5OXmWP9hVwCenKe8n2FRX4AN+d6EL0JINIfspLM3K/ZQ22iplBXbw3/IdX+flIX3e+eC0rXeSbk5TltOL0UhZmf5l6eEaaao2kZeBTkgNq0C58yKfPRiyBVtt+u6MB8iStF+dbNwmWTETiDon+IJPasrB9iptWWMm10OWRi7jS8pKl6kN2wdrZeX2CD03bDGwAN6E3F3vQqLOi13ZSi5rZ/GVZMFWW3aHznyWZsjr9eFtpWgvvV0Pzz3WGZ3B10v8o/5qfYLwPNBq6VEID5tOfEZneUmemh4wU4WVEf8adrfL6wj4SOw99/0N++3wFxb4BCfnT+LFzIdbp/x3v4UeDA9GgHthNHwJwL0RoOIUBp9la95O4g+UwCc34P/yu2GkPMco3o+gQm5e45zJUXYQhKyoXFP5RBnID9bdL/gHz6i4WeCTVLaEQN9NwUNWTkKl9U4mrKebZg+xMXAfhb7hWUj+e0vb8/d+uZqo/IUskid5XXFKRf7byJHlgQO7q54UOqNYJvJUZJaw5NeT7HmEfs5/wlte8Ijtc/I8P+5HcZ5oU2pnv5R1d7ooaSfouKUyG9okO7xpQQpy5VjiOX7z8jL7RTL323onE+Y0h3fTMGqXNUqLi8xtTrLorvMyxrASBGBvqu9upcNyF/h1kdZfQrZklL23vJJc9kTXTZZICYh9Plm/gO9I5+zOgU9gDrPO6e6ww3LKllz5O9yLtiOUkV/ARjR9td4JOr26K9LdxlYgmxYACp46L1VbzPPCDqRtcBr/nPt+791sr8aTx5Dzvv/J7ciW9hW9PAlt1NMyEAgBD2wy1M9OXWmyILBLeJAggB8pX0sP0CvPEr2jU97WOwl8YnCUYiHKBJ+1ge3ClkRef/nZBz4wbhVkKD3scBMVWn7jE5fXhXXTUEA+3V/qofpkGn+RzJCP93b/jtbP88OmYKyaQ4uGF+QoRkbLztdkPgM2+Yd47DT8B6PBsFFx0cnBfT7FHOXvugIPhYNAOZIKytTedaZDeT32gMqtOhw4D9F4gXaQRfIkr6MNq98ghPx1eeu6zvPg/o560rCAvCo+sYM/1OuKzBKW7LouI88QD1uIxpOwQX82bCsqlx+wOeN7CmAbeBe78qH8Udsv6x4a2ZnyjU989zWtz/6nst0pF67YVGfgEwKxO+sCOMpGFMDkv/BhrbSgJ+qJJBOwhh+EvWp1vPUuIdr+hq4LI5Sl1RvYdktu5gc0IJvkUdhk4Ad46unT3KDdWG7Cdp8v74Pdox6kRIc71PXg+xV71/L1PgMP+XK6JH+OxXCv9hGSfMNNIbeSJj5CWZrNxVT5FcoYAsSWnaNeR3sJeRUMwjunI+hZs4nWO8kt0t2HrQCHKKvkZOp1ikUlN9qCUI+Qzst98C2dHPNhnpp+we/X9O3mf9NB6GeCxjS7C76+xktBH+X4X9S9kB/8tfEscRrJB8xmC1ouF1ngA3vR8AK/qDMVvnwdb9VXC3y8c052Q3LnjsizD0TFh3Hw9qN8do/r5GTLxoLhwOnkO0/xOk2cK1FRHmxxKn+wjcDnMDKQGkE0nOSj4fyMiSCHYshoQHwjFow/+RAzP0NC4Ij87gTt39HJ5YeBc7G8KCzVC404KoMMzuSORdzainNdWg0slwYeQrpWpWu9A+j820o3wR6C/tLlPNFuMr0Wskie5DV0mXUGi/x1OaDr1KY02XekJ2AR7JHLqmF5Jc49QWMLmdt1LUFpUr0DfdaJ3D1MLtMSnVhg7Wxf7EgnlrXUbV+zW3SGeQmB2KVR7l7FNo5zHninMLGDZdWmgi2LeqsNguxMF8AReoKfkpgOWoq75cEnSO2J69DIZjQE1vEj77rNt+u1KC/gk9WvSRiBD2V3OexYODp4Uqt70ibl2nxgLXUt5ZLXgrZ6HhLPTuDsmal1EDYg8EN9CX5a8jL1OvoN9XsPeWYUAgPnf5TthCtF1/2jlgHylrgHOsmulUMbN+y8inoSg8x0d9tLOn298ttQx7RxYFEul+OmM98tFHZY8hbrg/ZOynmftgIshaySlYnXwD+ZfRQ04g6ysh4hAXjxW+MnbRfSQG/+mIU8zUS7233gA/2P+NiinYDsNT1Im+A2U6TrretIl2MWBlwEzQh3uPrsA59YgYeOZDFd6KYNZeWu7YEvzvCQymieQ8EBkTjfI6hFXsD4evlDXjRknE/y79/DcDAtqv0GORRDRv7QGE3kE/lrZ5kkW0GDtqyArTMOuMMgzwECJtkveChkkOUgj8YD3snfkXTd9gDMW3q/XecgOHRp2xOwQP7xwIdx2YGe1MCHZ17+HA+ILexXnnUCLNvOUGpxml+I9MNJ1Qk/8mwMEbgsntGyOGOMgxe5DbpiT4Wu2NtjllSxl1AXwKeSRvAb9Sp9CNcpnp2tHGC6E12AP6GnELhoPGe4pgr0dzV/7ekFbDi5gnWg2XoXErkL1I+hLRG+txsjlIUR0Vz23i3Z23UvbXuga8FvKlZ2N/6tmBsEwNlEtTqcUXW30DnaH83etXy9z8Tgmt7ep+3HoE+tTdALhP5jPdLThadevjK9CNJE/Qw8Sz9Rq//zJb16xcdTiDrF7gKz0ArdaBewQ80mWu+CZP7ivmyl4ptydjrvoceAt4KVe4cAOaMr85e69YlRL5h26IcM76ba3a4DH/Bf5T3IGwOZIa3ix0NaXEjbhm1O8UHIn9smaLTrqwU+rAc5yuOMm0dCvqXN9owutjxNKTqYXm8x2udGyc/+vN/Sao4OgljvwrMQb+Xa3Gm7i9yGP8cmGgy1YvLI35bW7pwPNKy8O86Gtud/yb5tUgwZtGVlnYKjzH8lN5fIRmadIHCyuTHzjNIPigydO/xIHpy6auUwE6133iiavIo03fYgR069jnhXGv7+7OI4tbVCFlFecSkbIu90ivx1eesOsZbnjnpC44COkJRHzvCJuvtWnO2kfqMmadSuu+1Z1o8/0XOlT0MAACAASURBVAUOtmN+WF/52SAC67OLE3od6iDXv21yZpNqdyL/uXAzbrYz8TPsx9a0led01U6C12yKcUk6iVz/cOo4GisB3p11IXHEYYvD7Pjb5Lueif7TDZJjhl36utxP1OyXZWy9Exi4S6V+IUkXRqKss78mo/alPkG49pvPutewQ4ch70jU6PJzbkO0LaHZh39Psg7WfYZGH7zUfJOWZ+qz4ZsZuUOm68S6s4j+QKdYgYBdFmU7N1LUNFmZmNe3VobWVqizbGU/ZjjfDN+DlvWVZ3rTepX7H9ihZhOtdxpA92ErP9E/XX+tlFXjaOwZ9FgNfNAW47DlnCDaLW3gOaTNbD1/rtlESJNdoLyinezUVZIfGw9ous/K5VvkdUv6Gm2EzIoBDgTloFHwLzPF66AfiRFoyGcxS7ja88AnyGEXhoAhYAh8IgT0DnuVmVrgUs1gLz4vBNBRyQd6Pi8UPidph05cZyfzcwLGZDUEJiDQW48s8JkAqiU1BAwBQ6BEwAKfEhN7cnsELPC5PXb7mnPQefy2b1/lML4NgU+FgF/+NjLbw9xZ4POpdGTlGgKGwCNBwAKfR6LIByKGBT4PRBH3ysbw3Q02g7jXoq0wQ2DvEZhSfyzw2Xt1mwCGgCHwaRGwwOfT4v/YSrfA57FptE8evztjx4h1Hz1LZQh8Jgi4zT2+JO2YGQ0BC3w0VOyZIWAIGAKGgCFgCBgChoAhYAg8KgQs8HlU6jRhDAFDwBAwBAwBQ8AQMAQMAUNAQ8ACHw0Ve2YIGAKGgCFgCBgChoAhYAgYAo8KAQt8HpU6TRhDwBAwBAwBQ8AQMAQMAUPAENAQsMBHQ2Xys7t+3Gwfs/ZBzoeg/UiHyyc0HCqGg8qu6Pz4iJZ8eKw7xPJ/0avDb4rTqvvK+AS64EPq3p3T9SiDsDPI2foFNkwUMtXTz5eH9CY5aBMHqw15Rk9vxtk0jH/nAWSj4loCQ8AQMAQMAUPAEDAEdoiABT47ARMdUtnZbBBGJzHs3oKOqR1Y10CNKJz0iw48H/j2d7o+PaKFC3j88/l/0Js3/7EfgU/nScMDLrAzyN/6lbYI+2ql53dzsStKGvi0g5mMLwt8mmZsLw0BQ8AQMAQMAUPg0yBggc9OcEfHT3Y2G4SLwKeR1l4FBIZTeWeUHvKGDvoTer75G92E1HtyMckWYGczGp2BScRH4FMLrD/Q5el3tFrMaTZDGuA6p6eLpzSftU4V9/SfLmjBs24W+CTo240hYAgYAoaAIWAIPAwELPDZiR7QIbXAZydwVoiEwGe1pauQBh30Vsc8JH54Fw8i8GFYchsGrnM6ePWKXswbwZaTIaazwOfhmZlxZAgYAoaAIWAIGAJEjyPw4W8k3n7rR6z9kp3Vt/T29FLMAMiO3Z/o4nSTfCuyWH1Hp5cfMpvgkfAfaL068N+O+KVCixWtk+8hJO2f6Ep+hzJf0uHmlC7lVETR2c1H5CW9Xl6J6PqctutVWPY1Xx7R8fnf6Xz9Nc2aI/ZR7JvLU3oraAzfzBzQar2l82sIcUv+YjHJVVkml/dD1AeWg8nlbNXrYfnb1falvtStsJUntDzcxLLC9zCY+YisjvLpkgpdnv2VTjeH4tujA1q9PvG2AAzT5WftmZyYp50u8jxcCZ7O/52/DPdpYCkCn/U7Ol59WZnJ8TzNv6HNT3+gVdeMj+Tn7+n3WUXd8ml5FuniT7TG912LIzqFPbJOE5zntCjqP8Qs6zR/37RJfMWQtk/fnPaKzrdr4X9mNGM53mb1nvgbtW3mTzJbB5v2awgYAoaAIWAIGAI7R2D/A5/rP8fOUNEZPqCX2wsf/KDTiKU7aYfTdfBlZ4qu6Gz9nOYFTeSTS6si7cWLF6Kji7Qzmi9f0xk6ahMCn2GZUaQzBCLcsRIdPzaL4vsXn2f+jFYvOHAbmxG5oeuz1yrvKDMuMYvydvOnmu5ImYvf0paD0V0FPi1bQVlq4NPJp5MRnfovabH4Ig2YnS3hOxpgmOq2HdDEPO10OdjgqQzmYkrQxqylDHx+oiv3HZVmQwNtxw/senSpG/g5oBerZ0ode0LL9Z/9Zg8+7fxXtHyGTS1mNMP3cS2dziQdlrRVp1Nf0awLwVbGaELXnG7MhrL6HBVjV4aAIWAIGAKGgCGwIwT2PPCJnbN0xkZ8s8Aj0Rc8k4OOHXc0eZT/Rz+DwaOwGz9aKzp26MQtXtLmPC6soptLOjlaDp01dL4S2jzavBG0sQuZCJRAO+RHRxAd04m80ns6Pfxq+DhdzFzdXJ7Q6zBbJWRTjQc8HNBqcyZ2GPtAlye/8wHRbflTCxQBjZwJYVVd0unrYeYqBltE6YwEaMIGpHzAD514TvuBLja80xsHjUKn12e0cRihkwocICvzc0brA/7+pYdP5OdvXZZ0eIzd2q7ofPNymI2TgUFhC5BL+4VcabCEwDT5lWWowZykL3fFg9zA1WPoMSgCLse/xx6yJGXLcnAtMEow1WxNpE0CDqYFu+eBBZ7dRD3V5CG6udjQc7fzn7RxoRcMJkzRN2SWNuVmdrxPCVhADlk2D1jA/qT9Aif7NQQMAUPAEDAEDIFdIrDfgQ86KCGASKEZOsro/IpOY5Ee75A2pVPcobMTOjXIn394P+QMHS6Ui/y4LzqmkV4Y2Q5M4J3gFfTQcQtp5UzQXTpW6LSBBngQI++hTLwT/IV36UWqn/QdETre6IjfMfCBrcy+osPT90lhQT9On3+nLS/rCh/5o9yaPDmfwEpLj3dRJoLugi0krGU3wPa2gc9YPjlDArkgh78PNs+seX7wDLLgPuM+3gIHBJvxTQxQUW5Me7A+E0tXeQJnOyyt0+xeBLpDsBblWRyeiMCexfgbbZ7zbNJg35PsMvAggmkpTriGHFngE97bhSFgCBgChoAhYAh8bAT2OvDBDEAy0q0sTRs6Pug0okMloW2989/ObDa04b834puN0MEbyY9ON9KjsxQ6u+gUoUPcole+Aw7FaLwTER0+BC1S7to1f7PwdpB38734Fgo0Sh4ipda7mCoGNmOdcZSJACT/yF6TT+EBmEMHkpXkOtcF6PfymeeXxJV34CvYgkyfX0OuHIM8XX6PcmsyaN/EQO5YXwY7i/rA+UDB7iDLZIxTflN7Bu+y3CF9mi6l4e7Aj8O2TifNCblrWOE5+AFdPOfZp0N6s3knvonjEqLugr/iGcE3b2kbZqpSTuzOEDAEDAFDwBAwBHaLwGcR+AyzJuh4xI5chFJ7J5fAxU5N6LRwgBU6eMiPzlCkPFyhc+QDm6RDximy96GT1MMryq51htGRq/EmeA3Lbiryhu+EUGYPf4J+cgm+amXheSxD7+iCjpSv5A95o84SZsRNrgvQBz+1X/CZ5xekCz2LWYt7CXwQWEueateQG3LFJX9poCNwh12HelGj3cIox6SWFjqu2X1G5xcsVxT8quxB7pqe8Vzgcn1Ox4d++Wsy8CKXvXJhcgke6PjfZKmcypg9NAQMAUPAEDAEDIE7IvAoAp/QEWuCgY6S6LCE9OW7sPzJfQ/0vZ/92NCGd3MrOnhl/kCaL/Zhxics98GItZ/hciPXWP6FTmNL3tY7iQo6mKAp3+nXCF5SfWt0FB4KnelllEGoRr+Wl5/XOuqVd+BrHwIfLD90gc0v5HbOk0EOZJHPVKhaGOUze/W0uj2IAsHPrWZ8+u0yloiZ0nSHyWKJnvsG6B1tNm/SHd66bCCWZleGgCFgCBgChoAhMA2BvQ58whr/sIFBS3ilMxyS5+9and0bunY7XGkzPvrocwii0LFJOmTMRN65y/kJjIolMyKAAz3tWwcEXWG2RtKK181OZNgxDp3BifzFYsQVaOjfRYmE4VLnUdMVaAuMAg7lNz4hMHXf9fycfeMDWr185roM7Ct6zmYlsFu4zJJcC16Ss4ySRMpNiycluXsEXAWGbH3nazpwtvSTwykJQmGH3YGP2PAjsIFNKFBug/dmeaCDOhnlKb7xQUA34zJ/on+6rdB79R0YLy5gr+V3elnSYJtTZuQyGnZrCBgChoAhYAgYAqMI7HfgU93ViTcGO6WNW36CDhQ6jbiX2OTvRCcp7NDGvb7svJDQwUN+XrbyhJZHfwxntcQd40QnDx02BEJ3DXwCDry0RpxHlCxdQ9Ai5Y7XoZOWLLnh3fHkeUegAXl7sIxlFFchoJK77HEqWW7sDILHpLMdOq3gjfNr/MWOcLKrW7FLn9LRnsSnkj8IrryDLQRbComVC8iFzrySRH2klKumkw9jHUhmLFwn/Qt/qKnEXARxo7KAH2Xnu+OjYQfBMJiBtNEOIpc9u7rFQDcMQPBOcmHnQmUnuQn6DjaZ7Co3+Iph90dfRxDcJDv9sSSi/OAPooR2ZQgYAoaAIWAIGAK7Q2DPAx/eeKB1jo88Pwedxs7OOjqkyZr9bF1+6OBF2vo5PnNavDyOh5iCdujo5J27SC/pdDq9V96FzlrGY+A/66QWNgQeavn5OWhUeGjxV5THD0bONsnOYQmdzGS2Ax108DbQVQ8wFcv5km+13Pdaz2l9xtshAwfZ0Z7Cp5Yfwivv0CH2ekqDOuTDL3Bv6Ui8q9oX6LV+gWteX/BcOUsKdh3qRY0+cFjQcrlQzjqSZ+ogrdSHoNus/3KXOs4jgt9QL4CXTDtF3zH4KmyKywhbcIuZ4qJs5kHIHGxC2rSQ2S4NAUPAEDAEDAFD4FYI7H/gw2LzTMxbua6eOxz5yenoNOYdOUdg+F7BLXXBlrm1U9Y3tD3/i18OhY6JpP0TXYVzgfIRba8jdBCrHVNJD/xAv4131+e0XQ/n37hOmNs1Ct8RgFfQUX7z/LNht6/N9owusPzHBR0NHtTZFqUs8Yhn595Kvn25b08vk+2L7xz4cJmFrbCMa7GzVr2j3cdnPX81qJL2EmxCABQugTs66yO/gVaLp0A8u0CAU9aXQQ/l87j09CVtr1rr9gQ/Z38NZzbNnN6lLpglkfb83xmP/jafia3Yz5CaZxN/SL+tYV/B3+5l1Pv0rdnUEMis1j/QKR/AG/4pZWu8WuATELMLQ8AQMAQMAUNglwg8jsBnl4g8OlodHcdHJ7MJ9LARMJt82Pox7gwBQ8AQMAQMgceJgAU+j0GvmEGaL+noRM6SiFPpw+j/YxDYZNhvBCzw2W/9GfeGgCFgCBgChsB+ImCBz37qLeN65DuDOb5fybLZrSHwSRCwwOeTwG6FGgKGgCFgCBgCnzkCFvg8GgPgM0T+iw6XT8TH4rxb2ib7zuDRCGyC7C0CFvjsreqMcUPAEDAEDAFDYI8RsMBnj5VnrBsChoAhYAgYAoaAIWAIGAKGQB8CFvj04WSpDAFDwBAwBAwBQ8AQMAQMAUNgjxGwwGePlWesGwKGgCFgCBgChoAhYAgYAoZAHwIW+PThZKkMAUPAEDAEDAFDwBAwBAwBQ2CPEbDAZ4+VZ6wbAoaAIWAIGAKGgCFgCBgChkAfAhb49OFkqQwBQ8AQMAQMAUPAEDAEDAFDYI8RsMBnj5VnrBsChoAhYAgYAoaAIWAIGAKGQB8CFvj04WSpDAFDwBAwBAwBQ8AQMAQMAUNgjxGwwGePlWesGwKGgCFgCBgChoAhYAgYAoZAHwIW+PThZKkMAUPAEDAEDAFDwBAwBAwBQ2CPEbDAZ4+VZ6wbAoaAIWAIGAKGgCFgCBgChkAfAhb49OFkqQwBQ8AQMAQMAUPAEDAEDAFDYI8RsMBnj5VnrBsChoAhYAgYAoaAIWAIGAKGQB8CFvj04WSpDAFDwBAwBAwBQ8AQMAQMAUNgjxGwwGePlWesGwKGgCFgCBgChoAhYAgYAoZAHwIW+PThZKkMAUPAEDAEDAFDwBAwBAwBQ2CPEbDAZ4+VZ6wbAoaAIWAIGAKGgCFgCBgChkAfAhb49OFkqQwBQ8AQMAQMAUPAEDAEDAFDYI8RsMBnj5VnrBsChoAhYAgYAoaAIWAIGAKGQB8CFvj04WSpDAFDwBAwBAwBQ8AQMAQMAUNgjxGwwGePlWesGwKGgCFgCBgChoAhYAgYAoZAHwIW+PThZKkMAUPAEDAEDAFDwBAwBAwBQ2CPEbDAZ4+VZ6wbAoaAIWAIGAKGgCFgCBgChkAfAhb49OFkqQwBQ8AQMAQMAUPAEDAEDAFDYI8RsMBnj5VnrBsChoAhYAgYAoaAIWAIGAKGQB8CFvj04WSpDAFDwBAwBAwBQ8AQMAQMAUNgjxGwwGePlWesGwKGgCFgCBgChoAhYAgYAoZAHwIW+PThZKkMAUPAEDAEDAFDwBAwBAwBQ2CPEXh0gc/N+ZoOZjOaHazp/GaPNfPJWf8HbVdf0mz2Ja22//jk3NyeAcjxNa3P/317Ml05P9Dl6X/T+bUwvKstreYPwB6vz+n4cElzrhuPtn5A115GyKr+CnuAjtR0TOsJLQ//i7bnV8IK/k3n668HLGczmq+2JN+KhMOlLGP+krZXwkaKxPxAsSU13S4e3tDV9iXNZ3M6WJ9RnTOk65B3F2w9MBo3l/9D7xIbqDAIXVsbVAGo8/Fn4bOICPbS5Rdq2OX+4rHUVcgx5ptquPjnN5d0+u6crkMytBWiHQjv7OKxI/DIAh8YM3dW9r3D/qlND1juO46Q42M7OHSEs3LQqH3STtB7Oj38KnTSOfAZ7ah/avO7VfnQ9a4DH9D7ig5P33vOoG//rtlpQePdk5bJg3ZmS7fCpCcT+BvrXCDdY7WfOlbDgNoYPj7/g6jzdVn2483n4rN2Efho/uKx1FXI0Vn3NOO+OaP1wTwbDEdbcV8+VmPMnn0qBB5X4OMbnPmzJT2bf36N826NCI7BAp8+XIHXA3SkcPzzb2hz8aFPnL1MBR1MtNmxjiqPFr5e0SKZKUNnY05PF09p3hxo8Xw9XdCCZ/+aQRIDDznuy5Z6OxdI97n5Vsjd2fkas6e9rFv3zPRn47N2Efho/gI2u+91FXJ01j3NTK0+aqh81s8eUeDzgS423/gOyE9+mdZ9dRweow3BmU7sRD44KCDHx7aF+yrnFgCHTkTPEqtb0H8wWaCDiTbb1TCCNuwoBj4Hr17Ri9ZAi6M/J6SzwOfBGEwnIxM7X1321Fn055rss/FZ/3971+8aSbKk+99oe93x1lurLTnPec45a7QxzhnrjdEg42CNgzMEstYaaBAP1hoKBMPBIGjGWUfQHA+Wh9CxxnIIwXHcG4RYHssi4hFZ+WVGRkXWD7U0I6lDIKqqMzMy4ovIrIjKXx749Jv4xLZnEfP2aKGy17+9nMAHHeXimLa3f9Dt9pgWszktjs7FvE6h69tL2qzjV9wwt39Oi9VbOt1e98xxF+XDHPz3tF4dFFOIZosVrTdyLqksg3s4TTUHLTpZ8sswf3U+fUurxTzWV+FXNPKLqy01cl3HYkUnlnwKi/nyBzq/vqqs8eG5xA0dLV9luVnm0y1dy8UBkY/56oyuLk5oyV+6+/QRoLmj28uNwvSAVuv3tL3WIxXMh8Lf4qP69Xxs+VZnd9dbOpX2Ml/SURNlBuZyjQh0hzQ91Y312RxFXCI2HfuTnf5f6arAnfX/FwMX2BhfYWdxihX4A28h62Pqk6iDW+CBdbqproUabbdS1HCP4KTWrjoF2h9qOiqyA0vQxjN/ifxIZ7wersAVhaMOebTtb//Zrvcy88X84AW64muRf6S+IjnGv+gDZlZ7knY2fo3Pp+tzOkn9X80ejXbGMtX6SdUXhT6j0y6ArboCu4M1jbahwXYIm5JtCDag6sej4OPyRq6t47Vijd1mx/bvXMfYvIKP0XhABlwFjVIW1vdarXuLhSbyV74jJM7iXraBQZ0FkOK6NdbVL3Sxfh3XN/J01f8WH0Zv6Pr8h9QPz5fHdBbXcd0V9s26+1D2WUFcw77N91DLU/l+e0XL45/o+lNcBypljFAOXqCfTn/xR5S/HfEZ11Yn2FaNsSntd5Ie5YgP2iQ+QklmZNpvCYOwrjVi1E7zlvnKtb+j+kzgPqWvkWz6/RdF4MUEPp052AiErM7k9mdaS8dddhozOY+/ppsb0ZGKzjnReUWvm197A6i7q4ZeV74SQ5YUtPXye0CHm6tcFxokptUknsCnku/2nI5SMIU87Jh8R6uAkXzJ98s9X57QBRb2Rz4w7bDteGTnpbG9o9sUIAk+wH8IaBFZ9fExp8XhmQjCrA5uSvk+vmJdf48vLvDKV9gd9CEDn159vqLl+ucYrGeHtJ1ONYSLxhTOuSoH3qgPhxk9qj55ndHrhq6SSiOGY+1WixqeoWtps2bG8kdLR2UOY/oZsGWb/hvdhA8tVr0tT+Fli3oS/p1K8kJny5am6Iv67Jbt8zWtL7AdQ7az0ZsbLN/QG7Pf4A9PSanT+snedqH6LQO6tEh8rA311od2CJuSbcjSs2AIek59qCyrsSeiXj5U/z4lL/gYi4cQId2CxmPIEmmX7wiFFdoB2kyv/NAZcw+bfkXfLv+cN3WZsbP8PzHwOaDV0Zt2CivqiX332cUHOuzYt/6Q2td/6vfQXfwYq+Wb0+LNmzbwgowJ/BE30I/if3MjAp9RbXWiHVqs9epGtd/evJYepe+ANvnQgc+EPhO479K2LAz9t8+CwAsJfKyGAMdEByHoEPmLVSO+4NzQZXMYOsHBhd8w+sUhNXKXn7trOj+OO2dJR9dUZeS509mBbzRqPOsvqvyl6S/tCJBcuwHe2LEUX6/o9oKa+HU2y4cFpCXt8ksXXvKi4+bRjjOMavEozYc4AiQ6p8SHfgGYYAjH8oBWzUUepUt8gw+itHOfGsHKfEudd21jUvm7X6l5zaNb0l5Y5iaOvqFD79YTJAUOyR6AudIP3dDl2XH88gjdw1b5ZSm/OMr6My41ZMn8CPCF9MkjpekLK+QU0z1G2W1NUuhAOxfd59wGRN1JR4q+3F0q5cntMgQLEeOCLpMJ+o86gi102ryqzxylnKiv9EFD2g07N2IEIskCOxPtV7MUnpFP2yMPQpxFR1HYI+Qd1U+CtmxnAcDp/fIoG7pPOxzCJ4IGudkZlbIL7HPQn+2oHMG1+vcpeWF7re0PvwtMhZeBuOxvzXfdffkz3hFmn3UfnbH8KnhM7YuD0CUdn8dZHndXtDnkGRxf0WJxIEZ4RJ8l2u6k90hqjwe0OjmPH+aEjmPANbzbo6Un9HuiP02B38i2mmYHlL5Au7uk4Wd02JjSfu+jR9n2LHnBkJGG9pj6O85r5Es6GtFnguaovga8+fWpIPAyAh8YYWHYwkEufq810AdSCXgRHaRNGXwIR4EzosMHz/pZEcPoUPpSi/rDl61yCDd9EQVt5C1GU2IFqRMAf+go4OiXjGAEqzPSYfFRFo1PoK8Cn05evFxlJy8ydfACXeSfVj6/3OSXbK4Pa8qweFTXE3kCxmMw79CEjVjbYSNNvhAEDvIWmBQ2CX4fS5+SAX2PumFb0kmDnkQZjaFIKm9Bt3X25PQGfV8EKKAvv5pa98UoCewI+MfnAuOoI/yGevBcMi+eIIfEAr+N0Re+9uov1LGKFMwD/7G2hHw72iOz0cECtHXgI2AZugVNq89B2k7tELoeYAR1yQ9SKJKwj7pF2wRfyBevRf8+JS+XBx9j8FD1psdEw7C7XWQZ4g+yyrYCXqz31aS+E22pq8/U33f0gTJok2j/eE6ItTfgP9ARtt2Zei8/aNx3DabmjVlAnSPbasGvkoWphWNCunjlnKhvRPu9lx5l3Za84MRIQ32FTnU+wX9HRwwAPoDGPhM0d2lbYNmvnx2BFxD4ZAdUOzf5WXXayWjhIHGE/yM1g2tzDP3wnNamoYb/34k1G7LDNoqFnyIf0gnTHUzqiC1HTPyWaEC2opFHBlQaaKeyBZ/oGGJDR8dYlQv544sAdVXzF5WVHTXk4pGld6flPHLwgTy1a6pX8TWpPBxIBDeaZ/ms6kEScIj66MdcOCvqhZkCW9BNLzb5QkiJ5Q1kTpgw3HGLT/lbUUrJAzmq+YvC6uGGLjenbRtpfhTrw+B4a7l18bFnIYFnQVeRMh8hW82WzHUxcHwy/q1uZd0tP6l9oZ5BDCGHcKom6etTPGNI8iIlzy/51q70s8wr75HPag99ae1I02A/CXySHib2yyi/c9+n7RGyZV1LVDr3fXykL+utbtAf5HcV3knllW3o7zijLuFT5gGNjr2NwKMjA354JFnCJEvQttqDYe/AKskHHnEFvaLvtGzVaF+RRr0OVQb8Deii/RD4W397BN8WDpCt96p4C3lhs5b83TTIDRuqXavYc52QI2Fit1/UVaUFOoUeZduz5AVARlpBr5YP/fnIPtOkGWn3paF6v35RBJ5/4DOyAyobmZyepV8eQyMOrC851UiXj8+jOrHYSNOXQTS+7PCgk6h1ROl3vNz6Gl2R1u38SksEL7EjQNmqXKrDQX7wVRKvPMnpXgpXTBkZqe9Z+hKj+JpUHg6k9fLQIqh6kFzgMIS5eHlUO30QBi35QkCaukJmqTvwJX8riil5kH+KPtM0RaXL9GIUL5k++n1pJs+CbpFeeRhNX5ZH+xD4R5xTXxPoCl5QTxVz0FfY88+DZWUZrGEQdYN0uGrb0c9FZvGAfFZ7sNKm9pM79svAyLLRIs3iVYjJt2Z+oWuVvXiMZZMdFImou6X1x8hghg/kvriIh3On9lNpV5C/kKFgQsmn0uRjHw318WWKLOFw8T7anT4LuFm2Fxku6CG/pTPZVspZEXjfdnWnyoC/IV2E99BAewStwX5BKkbeK95CEuS38OqmQe7kT9Tkgm3J6tP9mPbbrTsVx82gHi15UdhIK+jV8qHcyD7TpBlp96Wher9+UQSeeeCTh4m7HVXEFZ1KcoQV3hixkTt21fKCZNyYoF138WP8kt20I0Yw+pGdWNvhxM45Ti+TsqBDkr8pCcpH1G91UCqtn7bqCIBjVS7kVyM+Fh8lx8YTd6AfqWnelTu8Ma0/hkYqNDnF16AcsvyITjplV/Xg90mYHWNlJgAAFbtJREFUT3G4wJv1Ykfl8WrJbP1WFFPyKDmKrNZDmhrAa5mO6B1GRZuPdHn7v90dA/vo96UVdYPn2suryJwfRtPPRfKOeRL/GAyFNhJHC2V7QT3yN0ky3UOO/AFk2ggdAvYaDtp29HNiRN0g30hnapd+8h79chmsKNaBfeyP+vu+Ke1Q1cOPqq4yBwLmVjeDfIjCU/KGYn189KWJOh9LlkH+jP5pUP5CJtiqbJ8QzGhfMalehypj8Afq3Wup8046+B7sFzol4w+Kt/Ar5B/ZVmMAPtrPqLGC33vabx3jWBh4hLYKOaQeLXlRsZFW0KvlG9CRCvLvTJoW/6jPr08JgWce+BhG3kEXBi0bTidT/GFMXuSxnIociKW1LrWq8Ds60MW/07v1v3YPQkQDS6NCKFi5Ir8VcOg0PFtzpsFXOpgRWFtyE1XX+Fh8VFiv/px4YUcQX8/kBgbVksYiRsgxrjw66ZmBUUoLMoKucFaZLWAMHPBsvuTytM32BWR1+pC1Lw154hX4FXWC38fRJ7AxX6Sd9WMGTlIEYAYMZVpx3y9TkVU+jKYvC6EfKPuVVm7GtD1LrJAf9RR6kDRxDzmkLeG3MfoamKKZglLQGmtLyDfGmQI+qAOy8XVqPwlaJdaSYrgHvpad6DQ8m7qY0g47XOQ2b9FO2EfdJj5GHC48JS+zhfxj8DDEKDC13j+7yDLEn9VnQR4L1+oaH8tm0JZk+2oBqPdbugyex7xH0G7sNXeoc7TP0NEVeJHyoM4xbVXYiqXnTn1Tf1Dtd2c9Ql6jb0nvFoEF6ivaAWggXx9e3GVV1vgUNCMuZn1TMfP8j4nA8w58xhoY8oUOE/Nt1c4dbNvXP9Fx2MIZjcGCPjfiYlc4vSe92Tn30atNkavtgNKekdKe0SE6d8g6qkFCFv4qz2f3xLNyiilK6Fyks1Lf1S1twd3HhwVDetFJ2pxR7KgTZKrxERSYz8ZJ8nc7uPaMp3ZHn7w7XaV86vDKRZvZVoA96gFeUcgODjV9yml+WJOGzhh1SOD60mQ+lssaJavhKKcriBd1Rw5Vh3pML3NMUQzpvIuRPANKYNVHvy+tqLeigyKP8TCaviyLtqN0E7D+Kh5WKuTjoqhnsG+w5Jior+QAqH5O7CyWg/mxtoR8Y5ypjM+4fhL5Fb+j+2WBb2r7Ql/APqXdpx1acos6cIu6wo5Pdr+ad3Wr8WH171PyTsUDzKtrIUs+40buDng/WQb4M/usmvxT+060r+57Hv1W8cEiQKLL1Npj7T0S+2DenZPP7gk7vnNfi91B+X206+YGsr+Z0lZZwBq2lh0qGwmPU9pvra6xekRdpd+Sd3VlX0roFjZc4Kv1yesQcbSH6oOsPhM0U38iMOlLE9n89ssh8IwDHxi/bOw1INHQYt5k4NYcaWNrTU0Whl2bB8u/F41MEyif0dny/Npuhzu0vz43/u75OTwnPMyjllWBb5lW208/ndsg8e07t2ACH5KndC9eJCauckvSfj7KM0qMDm7gPJSyvBjNMvjK2MMeVQA7BfNAf+gMAwCGF5tyvJEsr6YTwRn6ccyyDTgpsq50D9ytNobfhG1ZOIFWXxryhOuYOlG3wG00fVkZ9C3ohGT8zlsZq50AUc9g3yBoFH3JBH099jk+qw3hFKAWFdij6MMgr9Fu0loCicVD9cuyf4PKwItMq/V9nXaIXa1gO8JuQV9eUVfqQ1EuXhff0wYfmbhcLx+qX52SF3xImcFnXxry8BX5Ft/SsnOuDdv4DrKAtsVfrc/qlX9s34l+QjjHUWa8i7vvYatMf3ss3yO1M2Iq5/hA/jTjQipF31v9Rd+or9FWmWQvtsoONQuhPAIHZe+hPSm/qreuYT2mGSaqb5kvv6f/0B+vE5YtX61uLX3WdBTlkbt69tluX5qFm//22RF4voEPjFm+OHvgQ4eGgMA8Ub564rImzF9qNuX6k7DzU0Oby1+66xd08c4zGiG+9Hcy8GcX2p6+jWfH4AW6ovXpVhzWKV5U1suk1iCZ9skqHeTWjv5cVeTQX+355TeRD0O89iem/V7hyiMtb+l0G89aSGWtvNap9MBWv+TGlm8r7NoL17UR50DxiyOflZS+OPVh3ohdAMM5QVpOvKC0c8089aUlkCLz1ogP8jyiPnmed7F2rtVls7mgq81hOFQwORg1nJjNvjSIEa7QtfXi1b8JTEfTl5XB2RB0YnLb13R/T3KM6bMsWwr0R+oLvFxvqR0VhvxWGxlrS8gngpsEiZU2vZ/strNK/5LqFTd9eqyl6ZF6sx1yHfmcNz7Tq7vLYoWPG9knqC/Josjo/p3LPOa7QPLE9wK3i6tzOolnwfHZOJ3+D2Ufgr++9/soncEeLV2hn9DvhBzgpn4JMlnnvoS0qe8RiWEc/fkUd62U/QLkHxX4WO+e3+hG97FJFmBjtOOxuku0yptJ7XcnPeq+BW0L60elbtXIWvCNemxgTJ8p2sWoD8wlTP70hRF4voHPFwbOq3cEHAFHwBFwBF40An0O3osW/AkIF4Kfb2l9We489wQ4cxYcgWeNgAc+z1p9zrwj4Ag4Ao6AI/BICHjg80jADpGN066+uu+6nyH6nu4I7C8CHvjsr+5dckfAEXAEHAFHoI6ABz51bB415RNtj/+Njs/1FO9HrdSJOwJ7gYAHPnuhZhfSEXAEHAFHwBGYiIAHPhMB8+yOgCPw1BHwwOepa8j5cwQcAUfAEXAEHAFHwBFwBByBnRHwwGdnCJ2AI+AIOAKOgCPgCDgCjoAj4Ag8dQQ88HnqGnL+HAFHwBFwBBwBR8ARcAQcAUdgZwQ88NkZQifgCDgCjoAj4Ag4Ao6AI+AIOAJPHQEPfJ66hpw/R8ARcAQcAUfAEXAEHAFHwBHYGYEXHPjgZN6vabX5v52BelwCOEnZOmV6fM131/9FHy9vRAFgIE8xFsmf5fYp8PCwgnZxflj6Tq0HAT7t++Ml3aYsD9N2Ejm/cQQcAUfAEXAEHIEXi4AHPk9Ctbs7b3eXazqY6cDpKQQdT4GHh1OyjfPD0XdKPQiEk8znNDtY0+Ud8u3edkDJr46AI+AIOAKOgCPwshHwwOdF6Nedv8+jRsf58+BcqcXPFKkA4z87Ao6AI+AIOAKOwBgEPPAZg9KTz+MO+edRkeP8eXCu1OKBTwUY/9kRcAQcAUfAEXAExiDwMgKf20varFe0mM1oNpvRfPkDnV9f0Wb1Nc1meo3P73S9fU/r1UHIy/lnixWtT7d0nabPROgU3dlsTovVWzrdXpPOSrz24PQtrRbzSPcVLY8a2l7/HonBaWZ+fqGL9WuaB37/REfb/6ebzSHN5VQ16eTdXNLZ0TLmZx7WtElreTCVrJU9yJNkRppe48MYNHS0fNWPgeDh4mpLTeKhxezEwqFjdRYPd3R7uSl1MDug1fq9wKtDSPwwovztOR2xLoppUZnE3VVDr+czmq82FFZFDeoaclg4t3Tvrrd0KuxwZsoEOqyTG7o+/4GWc9jtMZ1Fvd5dn9NJslG2pQ90eduxuixQujPsGza+kWtjUOCGLjfrbLfzJR2dXdJNmDoJfGC7PJXyr3RV2A7b419MvTEehc2YeDAfQ/pE/RJ7i7eLol129MGyNUY7BxR+dQQcAUfAEXAEHIEXjcDzD3zg4Magp3X82TH/jlbBsZeBz40IOEonKgQ1h2c5+Ln9mdYyMCjoc7DyKRtGX97F97QJwQ+ct1f07fLPMYhhHtgB/q0e+CQ5FL/z17S+YJcdjrRMh8xIk4FPHwYcNJ7QBRxsBD7fLGgRnfOEbwraBA4ZEXGnebij24uT5OyX9Fhvx7RF/YJKvh1b/h90uf4XI/BlSkiLuPTpbwZdQw4L5yGeYANcN+gc0OroTQrWEw7zQzq7+ECHKYBGfXNaHJ2LRf0ZkXzXr9vZ7BW9bn4VwcEn2h79KQe/ycZf0XL1XeCtDQxhu3P6ZvGNsF3wpvU2gEeyXeZ8IG+whz9i+xD18QeOELRm3g7WCHz6aM5pIdt5Bs/vHAFHwBFwBBwBR+CFI/DMAx84buVX5/JrOYIAonZhene0IueHY5idqcWqEV/ab+iyORQOIVvH73TVfNc6g4tDajASc3tBTfhiD4cVNNl5O6DDzZVwQJEmNidA0MHO6GJFaXTl7prOj+PoTxrNMMoHw4WTjcDnjm63x62zHb/st7tj8Rf3D3EEyOZhvsyjEZRkg/PZ10o0D3g+oFVzkR35RDPry6Y6vnxnVAcEi0XyGbthXee82clm3/2C1gc80ndAq5PzHDzzKOBJOxI5f93QVRiwAf8zms2XdHweRw/vrmhzyKOQX9FicSBGeH7Po0LzQ9rc9Iz6wGakHbLMFZtJtqDsCzxzMFYGF2y7cvSJ7aaJo0VCb+ljhMxLRLdi5DLZLvAYYQ+QL5UNwnU/Gtz9Ss1rHs3kfgHtV/KKYBYG4VdHwBFwBBwBR8AR2AcEnnfgA0fIGiVIzhccMvWVX2sXzmtwqrKDmx0nXSA+o1waGcj54HjPgsMqvloXjhvnz/UlhxqyGXQpOXY5oOlMlQtswKlEPjzbjl/J7x1R4gHls2wprSOLyNPLg3J0dbHqM2QYUz7mVQFDuTNbxn5Q15aeWHvmjnoQQNsd+BcBZsyaAvMOpihj6AHVDF2hy4QFaFq2gA8KRuDT4S3j19pufjZHqJLtol2CjxH6hAwFD7k+tJ2EY6dfyB8p0hTHIdw83RFwBBwBR8ARcAReDALPOvCBg2M7MXCoooOVApRyukyaYoRpPnAM4WTh9/Cl+0dq9DoJ5EO5qmnAQYMzKTMiTTjDoFs4eSgDZxrOo1E+ZAUG0WEGBlVeVf4+HvrSwKbFQwoehB549OndqVi3VBBQD5B1THmMcAlc9TQ3pg5ZhnSdeLfoCX4SHfkbdKUwFtLV7bleRhQvb3nNUtNQw//vjvLUQuh+wBZKXoC5lBvV6TRtm8iHq86PZ4FVzR6gp6JNoDx4w7PVzsCDXx0BR8ARcAQcAUdgHxF4xoHPkIOjHDA4eqZTKpyusObmH2EUJk//kul8n79Ow0FsR3V6piGZTjNMDrLAeRPOeOHk1fIb5UNW5TDDcYTzC3LpWslv8QBaVlqixzeKZki7ocuz4+yMS53oaVoFLTxMKA+9g0/9HEjKqX51XZsjcymQ0uX0M3Rr4dHKBVvqBvL1MkAkUhBTz3T98Rm6h/7wXBJK00LLqW6QQWbWtgdeEejJvHyv8/NvI/UJnqHLQFrTQ7v3wEcj78+OgCPgCDgCjsC+I/CMAx9MMao5OMoBg8NbcfR6DQFfz4sdu+IoCpyxQbraQZM1GmmgWzh5KAPnDs6lUT5kBQZPacQHMvCVA46P1DTvyh3eTJllOdyPKY/pTS0GbXBhOfCRZp+uTadd6wK81a5KJyLbroFPmqqI0UmM+PAoJewJdjrQHkpeavbFzOu0ITx0fgHAkD1AhsI+ND081/oFWZ/fOwKOgCPgCDgCjsA+IfCsA580Rakzl5/9MSw4R3AAhxMbGNxXzXDsovOc6jHWSqQ0drqNndsSC3DWhEMOJ2/+HTVX2BI7FkjrJGJA03E+QRgyIx+egQnytdfkOMM5Bg+FoxnL9KUVZFEneCgSy4cCLx51m/hXKx95na/e03nY6W0EL6FqpWsTZ+huRnkDgz6+63iUwYakUS+Tc4FXS7eY8scbKmCDBNA07FaMYk0f8RF4YKvwzCTl9WkWnzKjbMNRX6bNob7cdoCjtUNgSrNsWlXvj46AI+AIOAKOgCPwshB43oGPdNDC2T0xQEg7hPH0HjhY0vlrzyppdzRjB+uatk1cBxEcIjiRaleqkPUnOg7bXMN5xogC774mdnXr7KTVddCyKRlpcPLCuURyR7W8M1Z2tFFef+WGcwteaxjIqV7YhW5guh34G3QgFQ8ITopd5RgJsXtZH817lY+L9eff0OIbfbbPFF1XcE4baWh7keclQQcKj2wEanqZSDCnC8p0voccciczZds8pTAFPsIW5K5uPO0s7lzY3dUtBxe5dmAi0mp4yF3d8LFiij5hc0kG5sKoP30YKLG4u0bbFbxmQfzOEXAEHAFHwBFwBF44As888OEtcivn7aTzbxD4sCYHzjmR54sk581aK6HOAkmOlpE30TQctGRcRhqcvMW3tOyc6cJBljwbJk/7azdrgMyWk92PgXmOjxWIgD8rLcnFN5oH4XDLtT3pXm/1XRALjm7ahjmVkbjb5dOX/s5ZNmxD8bBTk16p60xHBdV9ZxPx1LP1z3Hrbo1Hlg+0773GBzox5YgYFUFD3r2ts8lHpDF9xIfl6TtHh4MvnEEV82KLdZNvoU8ESSN4S6OXBk1p48A8B4RZH37nCDgCjoAj4Ag4Ai8Lgecf+LA+xHkp4St1GP25os3qazHiA8VZJ9sf0Gr9vnP6fOfkd3aiFitanxqnvzMPp2/jmSbsZPLX5rXYqcwIbsCS9dUaTuzBmi6uzukknAnEdJnXjThbCETkl3p80a452XIkIjrEllyCh0u9b0NfGlgKV4sHSweM11s63cZzbQoa+uEe5cFv4fhnuuN1beHc0unSsGSy8Ijlw7bYetSO0+plsgR8xyN3m3K9VLCXhjaXv1Taww1dbtbCbnnU6kdq4nq2+wU+UZ7rLTVH8cypEIDY7SyM9m3fK74t7Fg+nBs0o1kIuuvtqquPbtvxwKe0IH9yBBwBR8ARcAReMgIvI/B5iRqCoz44ovIShX94meDgdkdTHr6u50+xHkw8f9lcAkfAEXAEHAFHwBHYVwQ88HmqmvfA5+E0c3dFm8MDmlmHwT5cLc+MEkaRXtHy+Ce6TiN6clQF65KemWjOriPgCDgCjoAj4Ag4AgYCHvgYoDyJnzzw2VkNGOXB+pW8GcTOpF8AgaG1VnJd0gsQ10VwBBwBR8ARcAQcgb1HwAOfp2oCHvjsrhlgGNZbNca6qN2reN4UeHTnI70r1uHMaL48ombUWqvnLb1z7wg4Ao6AI+AIOAL7hYAHPvulb5fWEXAEHAFHwBFwBBwBR8AR2EsEPPDZS7W70I6AI+AIOAKOgCPgCDgCjsB+IeCBz37p26V1BBwBR8ARcAQcAUfAEXAE9hIBD3z2Uu0utCPgCDgCjoAj4Ag4Ao6AI7BfCHjgs1/6dmkdAUfAEXAEHAFHwBFwBByBvUTAA5+9VLsL7Qg4Ao6AI+AIOAKOgCPgCOwXAh747Je+XVpHwBFwBBwBR8ARcAQcAUdgLxHwwGcv1e5COwKOgCPgCDgCjoAj4Ag4AvuFgAc++6Vvl9YRcAQcAUfAEXAEHAFHwBHYSwQ88NlLtbvQjoAj4Ag4Ao6AI+AIOAKOwH4h4IHPfunbpXUEHAFHwBFwBBwBR8ARcAT2EgEPfPZS7S60I+AIOAKOgCPgCDgCjoAjsF8IeOCzX/p2aR0BR8ARcAQcAUfAEXAEHIG9ROCfwkRjfcmd4ZkAAAAASUVORK5CYII=;" vertex="1" parent="T_Evcuj6So3vLvqtFHyj-1">
          <mxGeometry x="360" y="370" width="830" height="386" as="geometry" />
        </mxCell>
        <mxCell id="ZtxC2L9r3oJZcuiYa41r-3" value="P.34" style="text;html=1;align=center;verticalAlign=middle;resizable=0;points=[];autosize=1;" vertex="1" parent="T_Evcuj6So3vLvqtFHyj-1">
          <mxGeometry x="450" y="170" width="40" height="20" as="geometry" />
        </mxCell>
      </root>
    </mxGraphModel>
  </diagram>
  <diagram name="Accenture Missing" id="g6R60lo5w5uT53Jksoft">
    <mxGraphModel dx="1662" dy="1943" grid="1" gridSize="10" guides="1" tooltips="1" connect="1" arrows="1" fold="1" page="1" pageScale="1" pageWidth="827" pageHeight="1169" math="0" shadow="0">
      <root>
        <mxCell id="vVEUWz_ZORVG87CjwqnF-0" />
        <mxCell id="vVEUWz_ZORVG87CjwqnF-1" parent="vVEUWz_ZORVG87CjwqnF-0" />
        <mxCell id="vVEUWz_ZORVG87CjwqnF-2" value="&lt;b style=&quot;font-size: 26px&quot;&gt;Core ERP&lt;br style=&quot;font-size: 26px&quot;&gt;&lt;/b&gt;" style="rounded=1;whiteSpace=wrap;html=1;verticalAlign=top;strokeWidth=3;strokeColor=#020912;fontSize=26;" parent="vVEUWz_ZORVG87CjwqnF-1" vertex="1">
          <mxGeometry x="90" y="230" width="710" height="370" as="geometry" />
        </mxCell>
        <mxCell id="vVEUWz_ZORVG87CjwqnF-3" value="&lt;b style=&quot;font-size: 26px&quot;&gt;MES&lt;br style=&quot;font-size: 26px&quot;&gt;&lt;/b&gt;" style="rounded=1;whiteSpace=wrap;html=1;verticalAlign=top;strokeWidth=3;strokeColor=#020912;fontSize=26;" parent="vVEUWz_ZORVG87CjwqnF-1" vertex="1">
          <mxGeometry x="840" y="230" width="190" height="110" as="geometry" />
        </mxCell>
        <mxCell id="vVEUWz_ZORVG87CjwqnF-4" value="&lt;b style=&quot;font-size: 26px&quot;&gt;Analytics &amp;amp; BI&lt;br style=&quot;font-size: 26px&quot;&gt;&lt;/b&gt;" style="rounded=1;whiteSpace=wrap;html=1;verticalAlign=top;strokeWidth=3;strokeColor=#020912;fontSize=26;" parent="vVEUWz_ZORVG87CjwqnF-1" vertex="1">
          <mxGeometry x="1490" y="-198" width="190" height="790" as="geometry" />
        </mxCell>
        <mxCell id="vVEUWz_ZORVG87CjwqnF-5" value="&lt;b style=&quot;font-size: 26px&quot;&gt;HR/Payroll&lt;br style=&quot;font-size: 26px&quot;&gt;&lt;/b&gt;" style="rounded=1;whiteSpace=wrap;html=1;verticalAlign=top;strokeWidth=3;strokeColor=#020912;fontSize=26;" parent="vVEUWz_ZORVG87CjwqnF-1" vertex="1">
          <mxGeometry x="840" y="355" width="190" height="110" as="geometry" />
        </mxCell>
        <mxCell id="vVEUWz_ZORVG87CjwqnF-6" value="&lt;b style=&quot;font-size: 26px&quot;&gt;Group Consolidation&lt;br style=&quot;font-size: 26px&quot;&gt;&lt;/b&gt;" style="rounded=1;whiteSpace=wrap;html=1;verticalAlign=top;strokeWidth=3;strokeColor=#020912;fontSize=26;" parent="vVEUWz_ZORVG87CjwqnF-1" vertex="1">
          <mxGeometry x="840" y="482" width="190" height="110" as="geometry" />
        </mxCell>
        <mxCell id="vVEUWz_ZORVG87CjwqnF-7" value="&lt;b style=&quot;font-size: 26px&quot;&gt;CAD/CAM&lt;br style=&quot;font-size: 26px&quot;&gt;&lt;/b&gt;" style="rounded=1;whiteSpace=wrap;html=1;verticalAlign=top;strokeWidth=3;strokeColor=#020912;fontSize=26;" parent="vVEUWz_ZORVG87CjwqnF-1" vertex="1">
          <mxGeometry x="830" y="100" width="190" height="110" as="geometry" />
        </mxCell>
        <mxCell id="vVEUWz_ZORVG87CjwqnF-8" value="&lt;b style=&quot;font-size: 26px&quot;&gt;Transport Management&lt;br style=&quot;font-size: 26px&quot;&gt;&lt;/b&gt;" style="rounded=1;whiteSpace=wrap;html=1;verticalAlign=top;strokeWidth=3;strokeColor=#020912;fontSize=26;" parent="vVEUWz_ZORVG87CjwqnF-1" vertex="1">
          <mxGeometry x="590" y="100" width="190" height="110" as="geometry" />
        </mxCell>
        <mxCell id="vVEUWz_ZORVG87CjwqnF-9" value="&lt;b style=&quot;font-size: 26px&quot;&gt;Marketing&lt;br style=&quot;font-size: 26px&quot;&gt;&lt;/b&gt;" style="rounded=1;whiteSpace=wrap;html=1;verticalAlign=top;strokeWidth=3;strokeColor=#020912;fontSize=26;" parent="vVEUWz_ZORVG87CjwqnF-1" vertex="1">
          <mxGeometry x="830" y="-40" width="190" height="110" as="geometry" />
        </mxCell>
        <mxCell id="vVEUWz_ZORVG87CjwqnF-10" value="&lt;b style=&quot;font-size: 26px&quot;&gt;OmniChannel Commerce&lt;br style=&quot;font-size: 26px&quot;&gt;&lt;/b&gt;" style="rounded=1;whiteSpace=wrap;html=1;verticalAlign=top;strokeWidth=3;strokeColor=#020912;fontSize=26;" parent="vVEUWz_ZORVG87CjwqnF-1" vertex="1">
          <mxGeometry x="1050" y="-40" width="190" height="110" as="geometry" />
        </mxCell>
        <mxCell id="vVEUWz_ZORVG87CjwqnF-11" value="&lt;b style=&quot;font-size: 26px&quot;&gt;Web Portal&lt;br style=&quot;font-size: 26px&quot;&gt;&lt;/b&gt;" style="rounded=1;whiteSpace=wrap;html=1;verticalAlign=top;strokeWidth=3;strokeColor=#020912;fontSize=26;" parent="vVEUWz_ZORVG87CjwqnF-1" vertex="1">
          <mxGeometry x="120" y="-340" width="190" height="110" as="geometry" />
        </mxCell>
        <mxCell id="vVEUWz_ZORVG87CjwqnF-12" value="&lt;b style=&quot;font-size: 26px&quot;&gt;Field Service Mgt.&lt;br style=&quot;font-size: 26px&quot;&gt;&lt;/b&gt;" style="rounded=1;whiteSpace=wrap;html=1;verticalAlign=top;strokeWidth=3;strokeColor=#020912;fontSize=26;" parent="vVEUWz_ZORVG87CjwqnF-1" vertex="1">
          <mxGeometry x="120" y="-190" width="190" height="110" as="geometry" />
        </mxCell>
        <mxCell id="vVEUWz_ZORVG87CjwqnF-13" value="&lt;b style=&quot;font-size: 26px&quot;&gt;Store Point of Sale&lt;br&gt;POS&lt;br style=&quot;font-size: 26px&quot;&gt;&lt;/b&gt;" style="rounded=1;whiteSpace=wrap;html=1;verticalAlign=top;strokeWidth=3;strokeColor=#020912;fontSize=26;" parent="vVEUWz_ZORVG87CjwqnF-1" vertex="1">
          <mxGeometry x="350" y="-190" width="190" height="110" as="geometry" />
        </mxCell>
        <mxCell id="vVEUWz_ZORVG87CjwqnF-14" value="&lt;b style=&quot;font-size: 26px&quot;&gt;Drawing Tool (Profesional)&lt;br style=&quot;font-size: 26px&quot;&gt;&lt;/b&gt;" style="rounded=1;whiteSpace=wrap;html=1;verticalAlign=top;strokeWidth=3;strokeColor=#020912;fontSize=26;" parent="vVEUWz_ZORVG87CjwqnF-1" vertex="1">
          <mxGeometry x="830" y="-190" width="190" height="110" as="geometry" />
        </mxCell>
        <mxCell id="vVEUWz_ZORVG87CjwqnF-15" value="&lt;b style=&quot;font-size: 26px&quot;&gt;PIM/DAM&lt;br style=&quot;font-size: 26px&quot;&gt;&lt;/b&gt;" style="rounded=1;whiteSpace=wrap;html=1;verticalAlign=top;strokeWidth=3;strokeColor=#020912;fontSize=26;" parent="vVEUWz_ZORVG87CjwqnF-1" vertex="1">
          <mxGeometry x="1050" y="-190" width="190" height="110" as="geometry" />
        </mxCell>
        <mxCell id="vVEUWz_ZORVG87CjwqnF-16" value="&lt;b style=&quot;font-size: 26px&quot;&gt;Sales &amp;amp; Service (CRM)&lt;br style=&quot;font-size: 26px&quot;&gt;&lt;/b&gt;" style="rounded=1;whiteSpace=wrap;html=1;verticalAlign=top;strokeWidth=3;strokeColor=#020912;fontSize=26;" parent="vVEUWz_ZORVG87CjwqnF-1" vertex="1">
          <mxGeometry x="120" y="-40" width="190" height="110" as="geometry" />
        </mxCell>
        <mxCell id="vVEUWz_ZORVG87CjwqnF-17" value="&lt;b style=&quot;font-size: 26px&quot;&gt;Product Config, Pricing and Quotation&lt;br style=&quot;font-size: 26px&quot;&gt;&lt;/b&gt;" style="rounded=1;whiteSpace=wrap;html=1;verticalAlign=top;strokeWidth=3;strokeColor=#020912;fontSize=26;" parent="vVEUWz_ZORVG87CjwqnF-1" vertex="1">
          <mxGeometry x="120" y="100" width="190" height="110" as="geometry" />
        </mxCell>
        <mxCell id="vVEUWz_ZORVG87CjwqnF-18" value="&lt;b style=&quot;font-size: 26px&quot;&gt;Sales &amp;amp; Operations Planning&lt;br style=&quot;font-size: 26px&quot;&gt;&lt;/b&gt;" style="rounded=1;whiteSpace=wrap;html=1;verticalAlign=top;strokeWidth=3;strokeColor=#020912;fontSize=26;" parent="vVEUWz_ZORVG87CjwqnF-1" vertex="1">
          <mxGeometry x="350" y="-40" width="190" height="110" as="geometry" />
        </mxCell>
        <mxCell id="vVEUWz_ZORVG87CjwqnF-19" value="&lt;b style=&quot;font-size: 26px&quot;&gt;Enterprise Performance&lt;br&gt;Mgmt&lt;br style=&quot;font-size: 26px&quot;&gt;&lt;/b&gt;" style="rounded=1;whiteSpace=wrap;html=1;verticalAlign=top;strokeWidth=3;strokeColor=#020912;fontSize=26;" parent="vVEUWz_ZORVG87CjwqnF-1" vertex="1">
          <mxGeometry x="350" y="100" width="190" height="110" as="geometry" />
        </mxCell>
        <mxCell id="vVEUWz_ZORVG87CjwqnF-20" value="&lt;b style=&quot;font-size: 26px&quot;&gt;Invoice Management&lt;br style=&quot;font-size: 26px&quot;&gt;&lt;/b&gt;" style="rounded=1;whiteSpace=wrap;html=1;verticalAlign=top;strokeWidth=3;fontSize=26;strokeColor=#FF0000;" parent="vVEUWz_ZORVG87CjwqnF-1" vertex="1">
          <mxGeometry x="1050" y="355" width="190" height="110" as="geometry" />
        </mxCell>
        <mxCell id="vVEUWz_ZORVG87CjwqnF-21" value="&lt;b style=&quot;font-size: 26px&quot;&gt;Supplier Payments&lt;br style=&quot;font-size: 26px&quot;&gt;&lt;/b&gt;" style="rounded=1;whiteSpace=wrap;html=1;verticalAlign=top;strokeWidth=3;fontSize=26;strokeColor=#FF0000;" parent="vVEUWz_ZORVG87CjwqnF-1" vertex="1">
          <mxGeometry x="1050" y="482" width="190" height="110" as="geometry" />
        </mxCell>
        <mxCell id="vVEUWz_ZORVG87CjwqnF-22" value="&lt;b style=&quot;font-size: 26px&quot;&gt;Payment Processing&lt;br style=&quot;font-size: 26px&quot;&gt;&lt;/b&gt;" style="rounded=1;whiteSpace=wrap;html=1;verticalAlign=top;strokeWidth=3;fontSize=26;strokeColor=#FF0000;" parent="vVEUWz_ZORVG87CjwqnF-1" vertex="1">
          <mxGeometry x="590" y="-190" width="190" height="110" as="geometry" />
        </mxCell>
        <mxCell id="vVEUWz_ZORVG87CjwqnF-23" value="&lt;b style=&quot;font-size: 26px&quot;&gt;Enterprise Content Mgmt&lt;br style=&quot;font-size: 26px&quot;&gt;&lt;/b&gt;" style="rounded=1;whiteSpace=wrap;html=1;verticalAlign=top;strokeWidth=3;fontSize=26;strokeColor=#FF0000;" parent="vVEUWz_ZORVG87CjwqnF-1" vertex="1">
          <mxGeometry x="590" y="-40" width="190" height="110" as="geometry" />
        </mxCell>
        <mxCell id="vVEUWz_ZORVG87CjwqnF-24" value="&lt;b style=&quot;font-size: 26px&quot;&gt;Product Lifecycle Mgmt&lt;br style=&quot;font-size: 26px&quot;&gt;&lt;/b&gt;" style="rounded=1;whiteSpace=wrap;html=1;verticalAlign=top;strokeWidth=3;fontSize=26;strokeColor=#FF0000;" parent="vVEUWz_ZORVG87CjwqnF-1" vertex="1">
          <mxGeometry x="1050" y="100" width="190" height="110" as="geometry" />
        </mxCell>
        <mxCell id="vVEUWz_ZORVG87CjwqnF-25" value="&lt;b style=&quot;font-size: 26px&quot;&gt;MDM&lt;br style=&quot;font-size: 26px&quot;&gt;&lt;/b&gt;" style="rounded=1;whiteSpace=wrap;html=1;verticalAlign=top;strokeWidth=3;fontSize=26;strokeColor=#FF0000;" parent="vVEUWz_ZORVG87CjwqnF-1" vertex="1">
          <mxGeometry x="1270" y="100" width="190" height="110" as="geometry" />
        </mxCell>
        <mxCell id="vVEUWz_ZORVG87CjwqnF-26" value="&lt;b style=&quot;font-size: 26px&quot;&gt;Customer Data Platform&lt;br style=&quot;font-size: 26px&quot;&gt;&lt;/b&gt;" style="rounded=1;whiteSpace=wrap;html=1;verticalAlign=top;strokeWidth=3;fontSize=26;strokeColor=#FF0000;" parent="vVEUWz_ZORVG87CjwqnF-1" vertex="1">
          <mxGeometry x="1270" y="-190" width="190" height="110" as="geometry" />
        </mxCell>
        <mxCell id="vVEUWz_ZORVG87CjwqnF-27" value="&lt;b style=&quot;font-size: 26px&quot;&gt;Drawing Tool (Online)&lt;br style=&quot;font-size: 26px&quot;&gt;&lt;/b&gt;" style="rounded=1;whiteSpace=wrap;html=1;verticalAlign=top;strokeWidth=3;fontSize=26;strokeColor=#FF0000;" parent="vVEUWz_ZORVG87CjwqnF-1" vertex="1">
          <mxGeometry x="1270" y="-40" width="190" height="110" as="geometry" />
        </mxCell>
        <mxCell id="vVEUWz_ZORVG87CjwqnF-29" value="&lt;b style=&quot;font-size: 26px&quot;&gt;Consumer Interaction &amp;amp; Self Serve&lt;br style=&quot;font-size: 26px&quot;&gt;&lt;/b&gt;" style="rounded=1;whiteSpace=wrap;html=1;verticalAlign=top;strokeWidth=3;fontSize=26;strokeColor=#FF0000;" parent="vVEUWz_ZORVG87CjwqnF-1" vertex="1">
          <mxGeometry x="350" y="-340" width="190" height="110" as="geometry" />
        </mxCell>
        <mxCell id="vVEUWz_ZORVG87CjwqnF-30" value="&lt;b style=&quot;font-size: 26px&quot;&gt;Contract Management&lt;br style=&quot;font-size: 26px&quot;&gt;&lt;/b&gt;" style="rounded=1;whiteSpace=wrap;html=1;verticalAlign=top;strokeWidth=3;fontSize=26;strokeColor=#FF0000;" parent="vVEUWz_ZORVG87CjwqnF-1" vertex="1">
          <mxGeometry x="1050" y="230" width="190" height="110" as="geometry" />
        </mxCell>
        <mxCell id="dTVWqhJEghJ-FZ3Y2SOh-0" value="&lt;b style=&quot;font-size: 26px&quot;&gt;B2B Integration&lt;br style=&quot;font-size: 26px&quot;&gt;&lt;/b&gt;" style="rounded=1;whiteSpace=wrap;html=1;verticalAlign=top;strokeWidth=3;fontSize=26;strokeColor=#FF0000;" vertex="1" parent="vVEUWz_ZORVG87CjwqnF-1">
          <mxGeometry x="1270" y="355" width="190" height="110" as="geometry" />
        </mxCell>
        <mxCell id="dTVWqhJEghJ-FZ3Y2SOh-1" value="&lt;b style=&quot;font-size: 26px&quot;&gt;Commissions&lt;br style=&quot;font-size: 26px&quot;&gt;&lt;/b&gt;" style="rounded=1;whiteSpace=wrap;html=1;verticalAlign=top;strokeWidth=3;fontSize=26;strokeColor=#FF0000;" vertex="1" parent="vVEUWz_ZORVG87CjwqnF-1">
          <mxGeometry x="1270" y="482" width="190" height="110" as="geometry" />
        </mxCell>
        <mxCell id="cVxRmzCuaiU_EPnk4Nyq-0" value="&lt;b style=&quot;font-size: 26px&quot;&gt;Travel &amp;amp; Expenses&lt;br style=&quot;font-size: 26px&quot;&gt;&lt;/b&gt;" style="rounded=1;whiteSpace=wrap;html=1;verticalAlign=top;strokeWidth=3;fontSize=26;strokeColor=#FF0000;" vertex="1" parent="vVEUWz_ZORVG87CjwqnF-1">
          <mxGeometry x="1270" y="230" width="190" height="110" as="geometry" />
        </mxCell>
      </root>
    </mxGraphModel>
  </diagram>
  <diagram id="y471woCBbC4i8VbqTB3J" name="What&#39;s in the box- ERP">
    <mxGraphModel dx="2489" dy="774" grid="1" gridSize="10" guides="1" tooltips="1" connect="1" arrows="1" fold="1" page="1" pageScale="1" pageWidth="827" pageHeight="1169" math="0" shadow="0">
      <root>
        <mxCell id="1BtkcILTWThWzXpOZL7S-0" />
        <mxCell id="1BtkcILTWThWzXpOZL7S-1" parent="1BtkcILTWThWzXpOZL7S-0" />
        <mxCell id="OvonGwnKlQ8HChLYsWeg-0" value="&lt;b style=&quot;font-size: 26px&quot;&gt;Core ERP&lt;br style=&quot;font-size: 26px&quot;&gt;&lt;/b&gt;" style="rounded=1;whiteSpace=wrap;html=1;verticalAlign=top;strokeWidth=3;strokeColor=#020912;fontSize=26;" parent="1BtkcILTWThWzXpOZL7S-1" vertex="1">
          <mxGeometry x="-360" y="270" width="710" height="140" as="geometry" />
        </mxCell>
        <mxCell id="f_UTtvKlSPQg1rigkB0T-0" value="&lt;b style=&quot;font-size: 26px&quot;&gt;HR/Payroll&lt;br style=&quot;font-size: 26px&quot;&gt;&lt;/b&gt;" style="rounded=1;whiteSpace=wrap;html=1;verticalAlign=top;strokeWidth=3;strokeColor=#020912;fontSize=26;" parent="1BtkcILTWThWzXpOZL7S-1" vertex="1">
          <mxGeometry x="390" y="260" width="190" height="110" as="geometry" />
        </mxCell>
      </root>
    </mxGraphModel>
  </diagram>
  <diagram name="What&#39;s in the box- MES" id="NLHRj_cJFwxfejbG6hPu">
    <mxGraphModel dx="2489" dy="774" grid="1" gridSize="10" guides="1" tooltips="1" connect="1" arrows="1" fold="1" page="1" pageScale="1" pageWidth="827" pageHeight="1169" math="0" shadow="0">
      <root>
        <mxCell id="lAbwMVT4_ml_yEZ6DjOU-0" />
        <mxCell id="lAbwMVT4_ml_yEZ6DjOU-1" parent="lAbwMVT4_ml_yEZ6DjOU-0" />
        <mxCell id="lAbwMVT4_ml_yEZ6DjOU-2" value="&lt;b style=&quot;font-size: 26px&quot;&gt;Core ERP&lt;br style=&quot;font-size: 26px&quot;&gt;&lt;/b&gt;" style="rounded=1;whiteSpace=wrap;html=1;verticalAlign=top;strokeWidth=3;strokeColor=#020912;fontSize=26;" vertex="1" parent="lAbwMVT4_ml_yEZ6DjOU-1">
          <mxGeometry x="-360" y="270" width="710" height="140" as="geometry" />
        </mxCell>
        <mxCell id="lAbwMVT4_ml_yEZ6DjOU-3" value="&lt;b style=&quot;font-size: 26px&quot;&gt;HR/Payroll&lt;br style=&quot;font-size: 26px&quot;&gt;&lt;/b&gt;" style="rounded=1;whiteSpace=wrap;html=1;verticalAlign=top;strokeWidth=3;strokeColor=#020912;fontSize=26;" vertex="1" parent="lAbwMVT4_ml_yEZ6DjOU-1">
          <mxGeometry x="390" y="260" width="190" height="110" as="geometry" />
        </mxCell>
      </root>
    </mxGraphModel>
  </diagram>
</mxfile>
